MontserratZ-Regular.ufo
<glyph name="exclam" format="2">
  <advance width="260"/>
  <unicode hex="0021"/>
  <outline>
    <contour>
      <point x="102.103" y="210.094" type="line"/>
      <point x="88.4727" y="700" type="line"/>
      <point x="171.656" y="700" type="line"/>
      <point x="157.458" y="210.094" type="line"/>
    </contour>
    <contour>
      <point x="130.064" y="-4.69952" type="qcurve" smooth="yes"/>
      <point x="108.167" y="-4.69952"/>
      <point x="77.4383" y="26.0297"/>
      <point x="77.4383" y="46.7933" type="qcurve" smooth="yes"/>
      <point x="77.4383" y="68.557"/>
      <point x="108.167" y="98.2861"/>
      <point x="130.064" y="98.2861" type="qcurve" smooth="yes"/>
      <point x="152.961" y="98.2861"/>
      <point x="182.123" y="68.557"/>
      <point x="182.123" y="46.7933" type="qcurve" smooth="yes"/>
      <point x="182.123" y="26.0297"/>
      <point x="152.961" y="-4.69952"/>
    </contour>
  </outline>
</glyph>
<glyph name="numbersign" format="2">
  <advance width="696"/>
  <unicode hex="0023"/>
  <outline>
    <contour>
      <point x="407.803" y="0" type="line"/>
      <point x="493.803" y="700" type="line"/>
      <point x="548.36" y="700" type="line"/>
      <point x="462.36" y="0" type="line"/>
    </contour>
    <contour>
      <point x="29.3349" y="190.172" type="line"/>
      <point x="29.3349" y="244.862" type="line"/>
      <point x="634.261" y="244.862" type="line"/>
      <point x="634.261" y="190.172" type="line"/>
    </contour>
    <contour>
      <point x="147.803" y="0" type="line"/>
      <point x="234.369" y="700" type="line"/>
      <point x="288.926" y="700" type="line"/>
      <point x="202.36" y="0" type="line"/>
    </contour>
    <contour>
      <point x="61.4679" y="455.138" type="line"/>
      <point x="61.4679" y="509.828" type="line"/>
      <point x="665.828" y="509.828" type="line"/>
      <point x="666.394" y="455.138" type="line"/>
    </contour>
  </outline>
</glyph>
<glyph name="dollar" format="2">
  <advance width="615"/>
  <unicode hex="0024"/>
  <outline>
    <contour>
      <point x="286.335" y="-120" type="line"/>
      <point x="286.335" y="820" type="line"/>
      <point x="335.926" y="820" type="line"/>
      <point x="335.926" y="-120" type="line"/>
    </contour>
    <contour>
      <point x="307.399" y="-6.39904" type="qcurve" smooth="yes"/>
      <point x="228.567" y="-6.39904"/>
      <point x="86.2019" y="45.0689"/>
      <point x="46.6699" y="85.2364" type="qcurve"/>
      <point x="75.9656" y="141.857" type="line"/>
      <point x="113.498" y="105.69"/>
      <point x="237.931" y="56.7885"/>
      <point x="306.966" y="56.7885" type="qcurve" smooth="yes"/>
      <point x="372.768" y="56.7885"/>
      <point x="455.606" y="89.7244"/>
      <point x="495.241" y="145.995"/>
      <point x="495.241" y="180.498" type="qcurve" smooth="yes"/>
      <point x="495.241" y="221.433"/>
      <point x="448.374" y="271.103"/>
      <point x="371.773" y="300.438"/>
      <point x="280.039" y="321.739"/>
      <point x="187.872" y="347.438"/>
      <point x="111.271" y="388.704"/>
      <point x="64.4038" y="458.404"/>
      <point x="64.4038" y="513.97" type="qcurve" smooth="yes"/>
      <point x="64.4038" y="565.635"/>
      <point x="119.069" y="653"/>
      <point x="232.833" y="706.399"/>
      <point x="321.631" y="706.399" type="qcurve" smooth="yes"/>
      <point x="381.03" y="706.399"/>
      <point x="497.394" y="673.099"/>
      <point x="539.36" y="643.532" type="qcurve"/>
      <point x="513.631" y="585.044" type="line"/>
      <point x="469.365" y="614.911"/>
      <point x="368.498" y="643.211"/>
      <point x="321.498" y="643.211" type="qcurve" smooth="yes"/>
      <point x="258.128" y="643.211"/>
      <point x="175.724" y="608.709"/>
      <point x="137.089" y="551.872"/>
      <point x="137.089" y="516.369" type="qcurve" smooth="yes"/>
      <point x="137.089" y="475"/>
      <point x="183.956" y="425.33"/>
      <point x="260.557" y="396.562"/>
      <point x="352.724" y="374.695"/>
      <point x="444.458" y="349.128"/>
      <point x="521.059" y="308.429"/>
      <point x="567.926" y="239.596"/>
      <point x="567.926" y="185.03" type="qcurve" smooth="yes"/>
      <point x="567.926" y="133.931"/>
      <point x="512.261" y="46.5665"/>
      <point x="396.631" y="-6.39904"/>
    </contour>
  </outline>
</glyph>
<glyph name="percent" format="2">
  <advance width="829"/>
  <unicode hex="0025"/>
  <outline>
    <contour>
      <point x="146.034" y="0" type="line"/>
      <point x="624.034" y="700" type="line"/>
      <point x="682.857" y="700" type="line"/>
      <point x="204.857" y="0" type="line"/>
    </contour>
    <contour>
      <point x="199.567" y="325.3" type="qcurve" smooth="yes"/>
      <point x="153.167" y="325.3"/>
      <point x="81.2019" y="372.433"/>
      <point x="41.5024" y="458"/>
      <point x="41.5024" y="515" type="qcurve" smooth="yes"/>
      <point x="41.5024" y="572"/>
      <point x="81.2019" y="657.567"/>
      <point x="153.167" y="704.7"/>
      <point x="199.567" y="704.7" type="qcurve" smooth="yes"/>
      <point x="246.966" y="704.7"/>
      <point x="317.931" y="657.567"/>
      <point x="357.631" y="572.567"/>
      <point x="357.631" y="515" type="qcurve" smooth="yes"/>
      <point x="357.631" y="458"/>
      <point x="317.931" y="372.433"/>
      <point x="246.966" y="325.3"/>
    </contour>
    <contour>
      <point x="200.133" y="369.793" type="qcurve" smooth="yes"/>
      <point x="249.202" y="369.793"/>
      <point x="307.606" y="446.764"/>
      <point x="307.606" y="515" type="qcurve" smooth="yes"/>
      <point x="307.606" y="583.236"/>
      <point x="249.202" y="660.207"/>
      <point x="200.133" y="660.207" type="qcurve" smooth="yes"/>
      <point x="150.498" y="660.207"/>
      <point x="91.5273" y="583.236"/>
      <point x="91.5273" y="515" type="qcurve" smooth="yes"/>
      <point x="91.5273" y="447.33"/>
      <point x="150.498" y="369.793"/>
    </contour>
    <contour>
      <point x="629.325" y="-4.69952" type="qcurve" smooth="yes"/>
      <point x="582.926" y="-4.69952"/>
      <point x="510.961" y="42.4335"/>
      <point x="471.261" y="128"/>
      <point x="471.261" y="185" type="qcurve" smooth="yes"/>
      <point x="471.261" y="242"/>
      <point x="510.961" y="327.567"/>
      <point x="582.926" y="374.7"/>
      <point x="629.325" y="374.7" type="qcurve" smooth="yes"/>
      <point x="676.724" y="374.7"/>
      <point x="747.69" y="327.567"/>
      <point x="787.389" y="242"/>
      <point x="787.389" y="185" type="qcurve" smooth="yes"/>
      <point x="787.389" y="128"/>
      <point x="747.69" y="42.4335"/>
      <point x="676.724" y="-4.69952"/>
    </contour>
    <contour>
      <point x="629.325" y="39.7933" type="qcurve" smooth="yes"/>
      <point x="678.394" y="39.7933"/>
      <point x="737.365" y="117.33"/>
      <point x="737.365" y="185" type="qcurve" smooth="yes"/>
      <point x="737.365" y="252.67"/>
      <point x="678.394" y="330.207"/>
      <point x="629.325" y="330.207" type="qcurve" smooth="yes"/>
      <point x="580.256" y="330.207"/>
      <point x="521.286" y="253.236"/>
      <point x="521.286" y="185" type="qcurve" smooth="yes"/>
      <point x="521.286" y="116.764"/>
      <point x="580.256" y="39.7933"/>
    </contour>
  </outline>
</glyph>
<glyph name="ampersand" format="2">
  <advance width="669"/>
  <unicode hex="0026"/>
  <outline>
    <contour>
      <point x="284.33" y="-6.39904" type="qcurve" smooth="yes"/>
      <point x="216.232" y="-6.39904"/>
      <point x="109.734" y="38.867"/>
      <point x="48.6354" y="118.833"/>
      <point x="48.6354" y="171.966" type="qcurve" smooth="yes"/>
      <point x="48.6354" y="216.631"/>
      <point x="88.601" y="291.729"/>
      <point x="177.833" y="364.729"/>
      <point x="251.532" y="404.897" type="qcurve" smooth="yes"/>
      <point x="314.567" y="439.798"/>
      <point x="386.034" y="491"/>
      <point x="415.768" y="537.635"/>
      <point x="415.768" y="564.97" type="qcurve" smooth="yes"/>
      <point x="415.768" y="603.906"/>
      <point x="362.966" y="651.709"/>
      <point x="313.596" y="651.709" type="qcurve" smooth="yes"/>
      <point x="261.227" y="651.709"/>
      <point x="202.99" y="599.039"/>
      <point x="202.99" y="556.67" type="qcurve" smooth="yes"/>
      <point x="202.99" y="536.069"/>
      <point x="216.424" y="498.3"/>
      <point x="252.724" y="451.532"/>
      <point x="285.591" y="416.931" type="qcurve" smooth="yes"/>
      <point x="656.458" y="36.4239" type="line"/>
      <point x="615.399" y="-10.5665" type="line"/>
      <point x="228.502" y="386.404" type="line" smooth="yes"/>
      <point x="193.502" y="422.571"/>
      <point x="153.369" y="478.138"/>
      <point x="137.103" y="528.404"/>
      <point x="137.103" y="555.537" type="qcurve" smooth="yes"/>
      <point x="137.103" y="600.502"/>
      <point x="180.335" y="667.867"/>
      <point x="260.232" y="705.266"/>
      <point x="313.596" y="705.266" type="qcurve" smooth="yes"/>
      <point x="363.394" y="705.266"/>
      <point x="436.025" y="671.867"/>
      <point x="476.69" y="609.635"/>
      <point x="476.69" y="566.103" type="qcurve" smooth="yes"/>
      <point x="476.69" y="527.704"/>
      <point x="439.724" y="462.473"/>
      <point x="355.626" y="398.906"/>
      <point x="284.36" y="360.305" type="qcurve" smooth="yes"/>
      <point x="220.724" y="325.236"/>
      <point x="148.222" y="267.433"/>
      <point x="118.488" y="211.798"/>
      <point x="118.488" y="178.764" type="qcurve" smooth="yes"/>
      <point x="118.488" y="141.261"/>
      <point x="161.123" y="84.2909"/>
      <point x="237.66" y="53.089"/>
      <point x="288.296" y="53.089" type="qcurve" smooth="yes"/>
      <point x="358.197" y="53.089"/>
      <point x="468.099" y="111.389"/>
      <point x="542.833" y="229.424"/>
      <point x="559.7" y="318.325" type="qcurve"/>
      <point x="617.488" y="300.163" type="line"/>
      <point x="597.922" y="200.03"/>
      <point x="505.724" y="63.5321"/>
      <point x="370.128" y="-6.39904"/>
    </contour>
  </outline>
</glyph>
<glyph name="quotesingle" format="2">
  <advance width="202"/>
  <unicode hex="0027"/>
  <outline>
    <contour>
      <point x="73.9359" y="436.404" type="line"/>
      <point x="69.1033" y="700" type="line"/>
      <point x="132.458" y="700" type="line"/>
      <point x="127.059" y="436.404" type="line"/>
    </contour>
  </outline>
</glyph>
<glyph name="parenleft" format="2">
  <advance width="329"/>
  <unicode hex="0028"/>
  <outline>
    <contour>
      <point x="220.404" y="-194" type="line"/>
      <point x="164.571" y="-103"/>
      <point x="104.305" y="135.567"/>
      <point x="104.305" y="274" type="qcurve" smooth="yes"/>
      <point x="104.305" y="412.433"/>
      <point x="164.571" y="653.433"/>
      <point x="220.404" y="742" type="qcurve"/>
      <point x="288.123" y="742" type="line"/>
      <point x="228.857" y="639.202"/>
      <point x="174.158" y="407.901"/>
      <point x="174.158" y="274" type="qcurve" smooth="yes"/>
      <point x="174.158" y="140.099"/>
      <point x="228.857" y="-91.2019"/>
      <point x="288.123" y="-194" type="qcurve"/>
    </contour>
  </outline>
</glyph>
<glyph name="parenright" format="2">
  <advance width="329"/>
  <unicode hex="0029"/>
  <outline>
    <contour>
      <point x="108.158" y="-194" type="qcurve"/>
      <point x="40.4383" y="-194" type="line"/>
      <point x="100.271" y="-91.2019"/>
      <point x="154.97" y="140.099"/>
      <point x="154.97" y="274" type="qcurve" smooth="yes"/>
      <point x="154.97" y="407.901"/>
      <point x="100.271" y="639.202"/>
      <point x="40.4383" y="742" type="qcurve"/>
      <point x="108.158" y="742" type="line"/>
      <point x="164.557" y="653.433"/>
      <point x="224.823" y="412.433"/>
      <point x="224.823" y="274" type="qcurve" smooth="yes"/>
      <point x="224.823" y="135.567"/>
      <point x="164.557" y="-103"/>
    </contour>
  </outline>
</glyph>
<glyph name="asterisk" format="2">
  <advance width="386"/>
  <unicode hex="002A"/>
  <outline>
    <contour>
      <point x="364.424" y="630.872" type="line"/>
      <point x="226.389" y="552.837" type="line"/>
      <point x="226.389" y="569.069" type="line"/>
      <point x="364.424" y="491.034" type="line"/>
      <point x="340.695" y="448.975" type="line"/>
      <point x="205.493" y="527.576" type="line"/>
      <point x="215.759" y="533.276" type="line"/>
      <point x="216.325" y="379.906" type="line"/>
      <point x="170" y="379.906" type="line"/>
      <point x="170.567" y="533.276" type="line"/>
      <point x="181.266" y="527.576" type="line"/>
      <point x="45.6306" y="448.975" type="line"/>
      <point x="21.9014" y="491.034" type="line"/>
      <point x="160.936" y="569.069" type="line"/>
      <point x="160.936" y="552.837" type="line"/>
      <point x="21.9014" y="630.872" type="line"/>
      <point x="45.6306" y="673.498" type="line"/>
      <point x="180.833" y="594.33" type="line"/>
      <point x="170.567" y="588.631" type="line"/>
      <point x="170" y="742" type="line"/>
      <point x="216.325" y="742" type="line"/>
      <point x="215.759" y="588.631" type="line"/>
      <point x="205.493" y="594.33" type="line"/>
      <point x="340.695" y="673.498" type="line"/>
    </contour>
  </outline>
</glyph>
<glyph name="plus" format="2">
  <advance width="575"/>
  <unicode hex="002B"/>
  <outline>
    <contour>
      <point x="255.837" y="137.537" type="line"/>
      <point x="255.837" y="562.463" type="line"/>
      <point x="318.892" y="562.463" type="line"/>
      <point x="318.892" y="137.537" type="line"/>
    </contour>
    <contour>
      <point x="69.9014" y="320.172" type="line"/>
      <point x="69.9014" y="379.394" type="line"/>
      <point x="504.828" y="379.394" type="line"/>
      <point x="504.828" y="320.172" type="line"/>
    </contour>
  </outline>
</glyph>
<glyph name="hyphen" format="2">
  <advance width="382"/>
  <unicode hex="002D"/>
  <outline>
    <contour>
      <point x="59.9014" y="240.271" type="line"/>
      <point x="59.9014" y="302.325" type="line"/>
      <point x="322.365" y="302.325" type="line"/>
      <point x="322.365" y="240.271" type="line"/>
    </contour>
  </outline>
</glyph>
<glyph name="period" format="2">
  <advance width="212"/>
  <unicode hex="002E"/>
  <outline>
    <contour>
      <point x="106.296" y="-4.69952" type="qcurve" smooth="yes"/>
      <point x="84.399" y="-4.69952"/>
      <point x="52.5368" y="26.5962"/>
      <point x="52.5368" y="49.6258" type="qcurve" smooth="yes"/>
      <point x="52.5368" y="73.6555"/>
      <point x="84.399" y="103.951"/>
      <point x="106.296" y="103.951" type="qcurve" smooth="yes"/>
      <point x="128.059" y="103.951"/>
      <point x="159.488" y="73.6555"/>
      <point x="159.488" y="49.6258" type="qcurve" smooth="yes"/>
      <point x="159.488" y="26.5962"/>
      <point x="128.059" y="-4.69952"/>
    </contour>
  </outline>
</glyph>
<glyph name="slash" format="2">
  <advance width="335"/>
  <unicode hex="002F"/>
  <outline>
    <contour>
      <point x="-25.0986" y="-100" type="line"/>
      <point x="304.901" y="842" type="line"/>
      <point x="369.656" y="842" type="line"/>
      <point x="39.6555" y="-100" type="line"/>
    </contour>
  </outline>
</glyph>
<glyph name="zero" format="2">
  <advance width="662"/>
  <unicode hex="0030"/>
  <outline>
    <contour>
      <point x="331.099" y="-6.39904" type="qcurve" smooth="yes"/>
      <point x="250.399" y="-6.39904"/>
      <point x="123.734" y="78.9014"/>
      <point x="51.6354" y="238.468"/>
      <point x="51.6354" y="350" type="qcurve" smooth="yes"/>
      <point x="51.6354" y="461.532"/>
      <point x="123.734" y="621.099"/>
      <point x="250.399" y="706.399"/>
      <point x="331.099" y="706.399" type="qcurve" smooth="yes"/>
      <point x="412.232" y="706.399"/>
      <point x="538.463" y="621.099"/>
      <point x="610.562" y="461.532"/>
      <point x="610.562" y="350" type="qcurve" smooth="yes"/>
      <point x="610.562" y="238.468"/>
      <point x="538.463" y="78.9014"/>
      <point x="412.232" y="-6.39904"/>
    </contour>
    <contour>
      <point x="331.099" y="59.6211" type="qcurve" smooth="yes"/>
      <point x="392.635" y="59.6211"/>
      <point x="484.941" y="126.892"/>
      <point x="536.744" y="256.498"/>
      <point x="536.744" y="350" type="qcurve" smooth="yes"/>
      <point x="536.744" y="443.936"/>
      <point x="484.941" y="573.108"/>
      <point x="392.635" y="640.379"/>
      <point x="331.099" y="640.379" type="qcurve" smooth="yes"/>
      <point x="270.562" y="640.379"/>
      <point x="177.256" y="573.108"/>
      <point x="125.454" y="443.936"/>
      <point x="125.454" y="350" type="qcurve" smooth="yes"/>
      <point x="125.454" y="256.498"/>
      <point x="177.256" y="126.892"/>
      <point x="270.562" y="59.6211"/>
    </contour>
  </outline>
</glyph>
<glyph name="one" format="2">
  <advance width="361"/>
  <unicode hex="0031"/>
  <outline>
    <contour>
      <point x="173.571" y="0" type="line"/>
      <point x="173.571" y="669.739" type="line"/>
      <point x="205.798" y="635.679" type="line"/>
      <point x="8.86699" y="635.679" type="line"/>
      <point x="8.86699" y="700" type="line"/>
      <point x="246.389" y="700" type="line"/>
      <point x="246.389" y="0" type="line"/>
    </contour>
  </outline>
</glyph>
<glyph name="two" format="2">
  <advance width="568"/>
  <unicode hex="0032"/>
  <outline>
    <contour>
      <point x="39.0344" y="0" type="line"/>
      <point x="39.0344" y="50.69" type="line"/>
      <point x="330.138" y="336.163" type="line" smooth="yes"/>
      <point x="370.039" y="374.931"/>
      <point x="410.374" y="434.433"/>
      <point x="424.108" y="485.502"/>
      <point x="424.108" y="509.404" type="qcurve" smooth="yes"/>
      <point x="424.108" y="570.374"/>
      <point x="340.537" y="640.379"/>
      <point x="260.266" y="640.379" type="qcurve" smooth="yes"/>
      <point x="198.463" y="640.379"/>
      <point x="103.227" y="601.778"/>
      <point x="68.6258" y="561.611" type="qcurve"/>
      <point x="18.3694" y="605.635" type="line"/>
      <point x="58.5024" y="654.167"/>
      <point x="186.532" y="706.399"/>
      <point x="265.931" y="706.399" type="qcurve" smooth="yes"/>
      <point x="337.03" y="706.399"/>
      <point x="441.394" y="660.567"/>
      <point x="497.926" y="575.468"/>
      <point x="497.926" y="516.635" type="qcurve" smooth="yes"/>
      <point x="497.926" y="483.069"/>
      <point x="479.493" y="417.369"/>
      <point x="430.36" y="344.236"/>
      <point x="383.227" y="298.236" type="qcurve" smooth="yes"/>
      <point x="116.419" y="35.9263" type="line"/>
      <point x="96.4881" y="64.3206" type="line"/>
      <point x="530.261" y="64.3206" type="line"/>
      <point x="530.261" y="0" type="line"/>
    </contour>
  </outline>
</glyph>
<glyph name="three" format="2">
  <advance width="564"/>
  <unicode hex="0033"/>
  <outline>
    <contour>
      <point x="261.266" y="-6.39904" type="qcurve" smooth="yes"/>
      <point x="185.099" y="-6.39904"/>
      <point x="49.867" y="42.8029"/>
      <point x="9.36937" y="83.5368" type="qcurve"/>
      <point x="44.4632" y="140.724" type="line"/>
      <point x="77.9952" y="105.69"/>
      <point x="192.764" y="59.6211"/>
      <point x="260.7" y="59.6211" type="qcurve" smooth="yes"/>
      <point x="347.704" y="59.6211"/>
      <point x="441.108" y="136.36"/>
      <point x="441.108" y="200.498" type="qcurve" smooth="yes"/>
      <point x="441.108" y="264.069"/>
      <point x="349.67" y="340.241"/>
      <point x="251.665" y="340.241" type="qcurve" smooth="yes"/>
      <point x="202.069" y="340.241" type="line"/>
      <point x="202.069" y="392.631" type="line"/>
      <point x="417.64" y="664.207" type="line"/>
      <point x="428.138" y="635.679" type="line"/>
      <point x="38.1675" y="635.679" type="line"/>
      <point x="38.1675" y="700" type="line"/>
      <point x="487.793" y="700" type="line"/>
      <point x="487.793" y="649.31" type="line"/>
      <point x="272.222" y="377.734" type="line"/>
      <point x="236.798" y="401.163" type="line"/>
      <point x="263.695" y="401.163" type="line" smooth="yes"/>
      <point x="389.961" y="401.163"/>
      <point x="514.926" y="289.197"/>
      <point x="514.926" y="201.064" type="qcurve" smooth="yes"/>
      <point x="514.926" y="142.498"/>
      <point x="458.527" y="48.266"/>
      <point x="345.897" y="-6.39904"/>
    </contour>
  </outline>
</glyph>
<glyph name="four" format="2">
  <advance width="661"/>
  <unicode hex="0034"/>
  <outline>
    <contour>
      <point x="40.3349" y="183.64" type="line"/>
      <point x="40.3349" y="236.03" type="line"/>
      <point x="410.542" y="700" type="line"/>
      <point x="490.626" y="700" type="line"/>
      <point x="123.252" y="236.03" type="line"/>
      <point x="84.1924" y="247.961" type="line"/>
      <point x="646.828" y="247.961" type="line"/>
      <point x="646.828" y="183.64" type="line"/>
    </contour>
    <contour>
      <point x="435.138" y="0" type="line"/>
      <point x="435.138" y="183.64" type="line"/>
      <point x="436.837" y="247.961" type="line"/>
      <point x="436.837" y="410" type="line"/>
      <point x="506.69" y="410" type="line"/>
      <point x="506.69" y="0" type="line"/>
    </contour>
  </outline>
</glyph>
<glyph name="five" format="2">
  <advance width="566"/>
  <unicode hex="0035"/>
  <outline>
    <contour>
      <point x="272.833" y="-6.39904" type="qcurve" smooth="yes"/>
      <point x="197.532" y="-6.39904"/>
      <point x="62.3005" y="42.8029"/>
      <point x="21.8029" y="83.5368" type="qcurve"/>
      <point x="56.8967" y="140.724" type="line"/>
      <point x="90.4287" y="105.69"/>
      <point x="204.764" y="59.6211"/>
      <point x="272.266" y="59.6211" type="qcurve" smooth="yes"/>
      <point x="361.005" y="59.6211"/>
      <point x="453.542" y="138.961"/>
      <point x="453.542" y="202.798" type="qcurve" smooth="yes"/>
      <point x="453.542" y="247.901"/>
      <point x="411.039" y="313.473"/>
      <point x="309.167" y="348.542"/>
      <point x="220.463" y="348.542" type="qcurve" smooth="yes"/>
      <point x="70.9014" y="348.542" type="line"/>
      <point x="107.335" y="700" type="line"/>
      <point x="489.527" y="700" type="line"/>
      <point x="489.527" y="635.679" type="line"/>
      <point x="135.897" y="635.679" type="line"/>
      <point x="173.488" y="670.872" type="line"/>
      <point x="142.454" y="377.369" type="line"/>
      <point x="105.296" y="413.429" type="line"/>
      <point x="236.36" y="413.429" type="line" smooth="yes"/>
      <point x="342.094" y="413.429"/>
      <point x="469.66" y="361.03"/>
      <point x="527.36" y="267.631"/>
      <point x="527.36" y="205.631" type="qcurve" smooth="yes"/>
      <point x="527.36" y="146.798"/>
      <point x="471.394" y="50.133"/>
      <point x="358.764" y="-6.39904"/>
    </contour>
  </outline>
</glyph>
<glyph name="six" format="2">
  <advance width="609"/>
  <unicode hex="0036"/>
  <outline>
    <contour>
      <point x="338.798" y="-6.39904" type="qcurve" smooth="yes"/>
      <point x="246.099" y="-6.39904"/>
      <point x="117.734" y="76.7684"/>
      <point x="51.6354" y="233.502"/>
      <point x="51.6354" y="343.768" type="qcurve" smooth="yes"/>
      <point x="51.6354" y="462.901"/>
      <point x="132.867" y="624"/>
      <point x="277.064" y="706.399"/>
      <point x="371.729" y="706.399" type="qcurve" smooth="yes"/>
      <point x="418.828" y="706.399"/>
      <point x="505.025" y="688.433"/>
      <point x="537.724" y="667.734" type="qcurve"/>
      <point x="509.03" y="609.945" type="line"/>
      <point x="481.897" y="628.078"/>
      <point x="412.163" y="642.645"/>
      <point x="372.862" y="642.645" type="qcurve" smooth="yes"/>
      <point x="259.892" y="642.645"/>
      <point x="125.454" y="498.739"/>
      <point x="125.454" y="355.966" type="qcurve" smooth="yes"/>
      <point x="125.454" y="333.798"/>
      <point x="130.188" y="268.961"/>
      <point x="139.355" y="237.192" type="qcurve"/>
      <point x="114.36" y="255.616" type="line"/>
      <point x="124.857" y="308.02"/>
      <point x="188.99" y="381.493"/>
      <point x="285.36" y="419.03"/>
      <point x="341.995" y="419.03" type="qcurve" smooth="yes"/>
      <point x="411.995" y="419.03"/>
      <point x="517.828" y="367.33"/>
      <point x="578.227" y="273.064"/>
      <point x="578.227" y="209.365" type="qcurve" smooth="yes"/>
      <point x="578.227" y="143.966"/>
      <point x="515.562" y="46.867"/>
      <point x="407.197" y="-6.39904"/>
    </contour>
    <contour>
      <point x="335.966" y="54.5225" type="qcurve" smooth="yes"/>
      <point x="386.335" y="54.5225"/>
      <point x="463.172" y="92.0249"/>
      <point x="506.675" y="160.729"/>
      <point x="506.675" y="206.532" type="qcurve" smooth="yes"/>
      <point x="506.675" y="275.803"/>
      <point x="412.236" y="358.108"/>
      <point x="330.665" y="358.108" type="qcurve" smooth="yes"/>
      <point x="277.429" y="358.108"/>
      <point x="196.857" y="317.739"/>
      <point x="151.355" y="248.601"/>
      <point x="151.355" y="205.099" type="qcurve" smooth="yes"/>
      <point x="151.355" y="166.764"/>
      <point x="193.424" y="97.6258"/>
      <point x="275.995" y="54.5225"/>
    </contour>
  </outline>
</glyph>
<glyph name="seven" format="2">
  <advance width="589"/>
  <unicode hex="0037"/>
  <outline>
    <contour>
      <point x="174.67" y="0" type="line"/>
      <point x="477.207" y="668.172" type="line"/>
      <point x="498.837" y="635.679" type="line"/>
      <point x="66.2613" y="635.679" type="line"/>
      <point x="103.02" y="670.872" type="line"/>
      <point x="103.02" y="505.443" type="line"/>
      <point x="32.0344" y="505.443" type="line"/>
      <point x="32.0344" y="700" type="line"/>
      <point x="546.36" y="700" type="line"/>
      <point x="546.36" y="649.31" type="line"/>
      <point x="253.188" y="0" type="line"/>
    </contour>
  </outline>
</glyph>
<glyph name="eight" format="2">
  <advance width="638"/>
  <unicode hex="0038"/>
  <outline>
    <contour>
      <point x="317.798" y="-6.39904" type="qcurve" smooth="yes"/>
      <point x="233.966" y="-6.39904"/>
      <point x="113.167" y="42.4335"/>
      <point x="47.6354" y="132.966"/>
      <point x="47.6354" y="194.798" type="qcurve" smooth="yes"/>
      <point x="47.6354" y="255.197"/>
      <point x="111.468" y="340.463"/>
      <point x="232.266" y="385.596"/>
      <point x="317.798" y="385.596" type="qcurve" smooth="yes"/>
      <point x="403.33" y="385.596"/>
      <point x="525.128" y="340.463"/>
      <point x="589.961" y="254.631"/>
      <point x="589.961" y="194.798" type="qcurve" smooth="yes"/>
      <point x="589.961" y="132.966"/>
      <point x="523.862" y="42.4335"/>
      <point x="401.631" y="-6.39904"/>
    </contour>
    <contour>
      <point x="317.798" y="54.5225" type="qcurve" smooth="yes"/>
      <point x="410.97" y="54.5225"/>
      <point x="516.143" y="130.66"/>
      <point x="516.143" y="196.064" type="qcurve" smooth="yes"/>
      <point x="516.143" y="260.601"/>
      <point x="410.97" y="336.172"/>
      <point x="317.798" y="336.172" type="qcurve" smooth="yes"/>
      <point x="225.059" y="336.172"/>
      <point x="121.454" y="260.601"/>
      <point x="121.454" y="196.064" type="qcurve" smooth="yes"/>
      <point x="121.454" y="130.66"/>
      <point x="225.059" y="54.5225"/>
    </contour>
    <contour>
      <point x="317.798" y="344.837" type="qcurve" smooth="yes"/>
      <point x="239.833" y="344.837"/>
      <point x="130.601" y="386.97"/>
      <point x="72.6354" y="466.369"/>
      <point x="72.6354" y="521.202" type="qcurve" smooth="yes"/>
      <point x="72.6354" y="578.601"/>
      <point x="133.601" y="661.567"/>
      <point x="244.399" y="706.399"/>
      <point x="317.798" y="706.399" type="qcurve" smooth="yes"/>
      <point x="392.197" y="706.399"/>
      <point x="502.995" y="661.567"/>
      <point x="564.961" y="578.601"/>
      <point x="564.961" y="521.202" type="qcurve" smooth="yes"/>
      <point x="564.961" y="466.369"/>
      <point x="506.562" y="386.97"/>
      <point x="395.764" y="344.837"/>
    </contour>
    <contour>
      <point x="317.798" y="393.128" type="qcurve" smooth="yes"/>
      <point x="400.103" y="393.128"/>
      <point x="492.276" y="460.833"/>
      <point x="492.276" y="518.369" type="qcurve" smooth="yes"/>
      <point x="492.276" y="577.906"/>
      <point x="397.103" y="645.477"/>
      <point x="317.798" y="645.477" type="qcurve" smooth="yes"/>
      <point x="238.926" y="645.477"/>
      <point x="145.321" y="577.906"/>
      <point x="145.321" y="518.803" type="qcurve" smooth="yes"/>
      <point x="145.321" y="461.266"/>
      <point x="236.493" y="393.128"/>
    </contour>
  </outline>
</glyph>
<glyph name="nine" format="2">
  <advance width="609"/>
  <unicode hex="0039"/>
  <outline>
    <contour>
      <point x="270.197" y="706.399" type="qcurve" smooth="yes"/>
      <point x="363.463" y="706.399"/>
      <point x="491.261" y="623.232"/>
      <point x="557.36" y="466.931"/>
      <point x="557.36" y="356.232" type="qcurve" smooth="yes"/>
      <point x="557.36" y="237.532"/>
      <point x="476.128" y="76"/>
      <point x="332.498" y="-6.39904"/>
      <point x="237.266" y="-6.39904" type="qcurve" smooth="yes"/>
      <point x="190.167" y="-6.39904"/>
      <point x="104.537" y="11.5665"/>
      <point x="71.2708" y="32.266" type="qcurve"/>
      <point x="99.9656" y="90.0546" type="line"/>
      <point x="127.099" y="72.355"/>
      <point x="197.833" y="57.355"/>
      <point x="236.133" y="57.355" type="qcurve" smooth="yes"/>
      <point x="349.103" y="57.355"/>
      <point x="483.542" y="201.261"/>
      <point x="483.542" y="344.034" type="qcurve" smooth="yes"/>
      <point x="483.542" y="366.635"/>
      <point x="478.808" y="431.039"/>
      <point x="469.64" y="462.808" type="qcurve"/>
      <point x="494.635" y="444.384" type="line"/>
      <point x="484.704" y="391.98"/>
      <point x="420.005" y="318.941"/>
      <point x="324.635" y="280.97"/>
      <point x="267" y="280.97" type="qcurve" smooth="yes"/>
      <point x="197.567" y="280.97"/>
      <point x="91.1675" y="332.67"/>
      <point x="30.7684" y="426.936"/>
      <point x="30.7684" y="490.635" type="qcurve" smooth="yes"/>
      <point x="30.7684" y="556.601"/>
      <point x="93.4335" y="653.133"/>
      <point x="202.365" y="706.399"/>
    </contour>
    <contour>
      <point x="273.03" y="645.477" type="qcurve" smooth="yes"/>
      <point x="222.66" y="645.477"/>
      <point x="145.823" y="607.975"/>
      <point x="102.321" y="539.837"/>
      <point x="102.321" y="493.468" type="qcurve" smooth="yes"/>
      <point x="102.321" y="424.197"/>
      <point x="197.192" y="341.892"/>
      <point x="278.33" y="341.892" type="qcurve" smooth="yes"/>
      <point x="331.567" y="341.892"/>
      <point x="412.704" y="382.261"/>
      <point x="457.64" y="451.966"/>
      <point x="457.64" y="494.901" type="qcurve" smooth="yes"/>
      <point x="457.64" y="533.803"/>
      <point x="415.571" y="602.374"/>
      <point x="334" y="645.477"/>
    </contour>
  </outline>
</glyph>
<glyph name="less" format="2">
  <advance width="575"/>
  <unicode hex="003C"/>
  <outline>
    <contour>
      <point x="504.828" y="142.507" type="line"/>
      <point x="69.9014" y="317.473" type="line"/>
      <point x="69.9014" y="382.527" type="line"/>
      <point x="504.828" y="557.493" type="line"/>
      <point x="504.828" y="494.704" type="line"/>
      <point x="95.9311" y="333.537" type="line"/>
      <point x="95.9311" y="366.463" type="line"/>
      <point x="504.828" y="205.296" type="line"/>
    </contour>
  </outline>
</glyph>
<glyph name="equal" format="2">
  <advance width="575"/>
  <unicode hex="003D"/>
  <outline>
    <contour>
      <point x="69.9014" y="435.837" type="line"/>
      <point x="69.9014" y="495.059" type="line"/>
      <point x="504.828" y="495.059" type="line"/>
      <point x="504.828" y="435.837" type="line"/>
    </contour>
    <contour>
      <point x="69.9014" y="204.941" type="line"/>
      <point x="69.9014" y="264.163" type="line"/>
      <point x="504.828" y="264.163" type="line"/>
      <point x="504.828" y="204.941" type="line"/>
    </contour>
  </outline>
</glyph>
<glyph name="greater" format="2">
  <advance width="575"/>
  <unicode hex="003E"/>
  <outline>
    <contour>
      <point x="69.9014" y="142.507" type="line"/>
      <point x="69.9014" y="205.296" type="line"/>
      <point x="479.365" y="366.463" type="line"/>
      <point x="479.365" y="333.537" type="line"/>
      <point x="69.9014" y="494.704" type="line"/>
      <point x="69.9014" y="557.493" type="line"/>
      <point x="504.828" y="382.527" type="line"/>
      <point x="504.828" y="317.473" type="line"/>
    </contour>
  </outline>
</glyph>
<glyph name="question" format="2">
  <advance width="567"/>
  <unicode hex="003F"/>
  <outline>
    <contour>
      <point x="235.271" y="210.094" type="line"/>
      <point x="235.271" y="251.562"/>
      <point x="261.571" y="311.596"/>
      <point x="303.172" y="357.897"/>
      <point x="349.906" y="398.197"/>
      <point x="391.507" y="439.099"/>
      <point x="417.808" y="488.468"/>
      <point x="417.808" y="521.404" type="qcurve" smooth="yes"/>
      <point x="417.808" y="575.074"/>
      <point x="333.67" y="643.211"/>
      <point x="257.365" y="643.211" type="qcurve" smooth="yes"/>
      <point x="193.296" y="643.211"/>
      <point x="99.1924" y="602.344"/>
      <point x="66.2909" y="562.177" type="qcurve"/>
      <point x="12.6354" y="601.67" type="line"/>
      <point x="53.3349" y="651.901"/>
      <point x="178.532" y="706.399"/>
      <point x="261.897" y="706.399" type="qcurve" smooth="yes"/>
      <point x="331.862" y="706.399"/>
      <point x="435.094" y="663.833"/>
      <point x="491.626" y="586"/>
      <point x="491.626" y="532.034" type="qcurve" smooth="yes"/>
      <point x="491.626" y="489.3"/>
      <point x="465.325" y="428"/>
      <point x="423.724" y="380.7"/>
      <point x="376.99" y="340.399"/>
      <point x="335.389" y="297.931"/>
      <point x="309.089" y="245.862"/>
      <point x="309.089" y="210.094" type="qcurve"/>
    </contour>
    <contour>
      <point x="272.463" y="-4.69952" type="qcurve" smooth="yes"/>
      <point x="250.567" y="-4.69952"/>
      <point x="220.404" y="26.0297"/>
      <point x="220.404" y="46.7933" type="qcurve" smooth="yes"/>
      <point x="220.404" y="68.557"/>
      <point x="250.567" y="98.2861"/>
      <point x="272.463" y="98.2861" type="qcurve" smooth="yes"/>
      <point x="295.36" y="98.2861"/>
      <point x="324.523" y="68.557"/>
      <point x="324.523" y="46.7933" type="qcurve" smooth="yes"/>
      <point x="324.523" y="26.0297"/>
      <point x="295.36" y="-4.69952"/>
    </contour>
  </outline>
</glyph>
<glyph name="at" format="2">
  <advance width="1033"/>
  <unicode hex="0040"/>
  <outline>
    <contour>
      <point x="515.266" y="-200.399" type="qcurve" smooth="yes"/>
      <point x="412.433" y="-200.399"/>
      <point x="242.468" y="-133.266"/>
      <point x="118.768" y="-11.5665"/>
      <point x="51.6354" y="154.567"/>
      <point x="51.6354" y="254" type="qcurve" smooth="yes"/>
      <point x="51.6354" y="353.867"/>
      <point x="119.202" y="519.433"/>
      <point x="243.901" y="640.133"/>
      <point x="415.867" y="705.833"/>
      <point x="519.266" y="705.833" type="qcurve" smooth="yes"/>
      <point x="620.532" y="705.833"/>
      <point x="789.798" y="642.266"/>
      <point x="913.931" y="524.833"/>
      <point x="981.498" y="362.966"/>
      <point x="981.498" y="265.232" type="qcurve" smooth="yes"/>
      <point x="981.498" y="180.665"/>
      <point x="941.532" y="59.6995"/>
      <point x="867.768" y="-4.69952"/>
      <point x="816.438" y="-4.69952" type="qcurve" smooth="yes"/>
      <point x="765.241" y="-4.69952"/>
      <point x="703.477" y="56.7636"/>
      <point x="703.477" y="113.36" type="qcurve" smooth="yes"/>
      <point x="703.477" y="192.266" type="line"/>
      <point x="710.645" y="256.034" type="line"/>
      <point x="701.211" y="356.059" type="line"/>
      <point x="701.211" y="506.803" type="line"/>
      <point x="765.966" y="506.803" type="line"/>
      <point x="765.966" y="127.892" type="line" smooth="yes"/>
      <point x="765.966" y="86.2909"/>
      <point x="801.867" y="52.2565"/>
      <point x="827.768" y="52.2565" type="qcurve" smooth="yes"/>
      <point x="858.936" y="52.2565"/>
      <point x="905.005" y="101.892"/>
      <point x="929.773" y="196.862"/>
      <point x="929.773" y="264.099" type="qcurve" smooth="yes"/>
      <point x="929.773" y="352.167"/>
      <point x="870.305" y="495.704"/>
      <point x="760.103" y="599.64"/>
      <point x="610.167" y="655.108"/>
      <point x="519.266" y="655.108" type="qcurve" smooth="yes"/>
      <point x="427.798" y="655.108"/>
      <point x="275.862" y="596.507"/>
      <point x="166.793" y="489.872"/>
      <point x="107.325" y="342.635"/>
      <point x="107.325" y="254" type="qcurve" smooth="yes"/>
      <point x="107.325" y="165.232"/>
      <point x="165.793" y="17.4287"/>
      <point x="273.862" y="-89.6402"/>
      <point x="423.798" y="-148.675"/>
      <point x="515.266" y="-148.675" type="qcurve" smooth="yes"/>
      <point x="560.399" y="-148.675"/>
      <point x="663.266" y="-127.241"/>
      <point x="706.532" y="-104.675" type="qcurve"/>
      <point x="724.163" y="-153.833" type="line"/>
      <point x="679.03" y="-177.266"/>
      <point x="565.365" y="-200.399"/>
    </contour>
    <contour>
      <point x="502.502" y="-4.69952" type="qcurve" smooth="yes"/>
      <point x="431.502" y="-4.69952"/>
      <point x="319.768" y="61.734"/>
      <point x="255.468" y="179.034"/>
      <point x="255.468" y="253.901" type="qcurve" smooth="yes"/>
      <point x="255.468" y="329.202"/>
      <point x="319.768" y="445.069"/>
      <point x="431.502" y="510.936"/>
      <point x="502.502" y="510.936" type="qcurve" smooth="yes"/>
      <point x="571.803" y="510.936"/>
      <point x="678.704" y="449.034"/>
      <point x="739.739" y="334.3"/>
      <point x="739.739" y="253.901" type="qcurve" smooth="yes"/>
      <point x="739.739" y="173.936"/>
      <point x="679.271" y="57.7684"/>
      <point x="572.936" y="-4.69952"/>
    </contour>
    <contour>
      <point x="511.567" y="53.3895" type="qcurve" smooth="yes"/>
      <point x="566.236" y="53.3895"/>
      <point x="652.542" y="102.926"/>
      <point x="702.344" y="193.665"/>
      <point x="702.344" y="253.901" type="qcurve" smooth="yes"/>
      <point x="702.344" y="315.138"/>
      <point x="652.542" y="404.31"/>
      <point x="566.236" y="452.847"/>
      <point x="511.567" y="452.847" type="qcurve" smooth="yes"/>
      <point x="456.33" y="452.847"/>
      <point x="370.458" y="403.744"/>
      <point x="321.355" y="314.005"/>
      <point x="321.355" y="253.901" type="qcurve" smooth="yes"/>
      <point x="321.355" y="194.232"/>
      <point x="370.458" y="104.059"/>
      <point x="456.33" y="53.3895"/>
    </contour>
  </outline>
</glyph>
<glyph name="A" format="2">
  <advance width="717"/>
  <unicode hex="0041"/>
  <anchor x="429" y="700" name="t.uni0308"/>
  <anchor x="429" y="0" name="b.uni0324_3"/>
  <anchor x="889" y="0" name="m.uni0328_4"/>
  <outline>
    <contour>
      <point x="2.20191" y="0" type="line"/>
      <point x="322.103" y="700" type="line"/>
      <point x="394.789" y="700" type="line"/>
      <point x="715.256" y="0" type="line"/>
      <point x="637.305" y="0" type="line"/>
      <point x="342.966" y="657.374" type="line"/>
      <point x="373.36" y="657.374" type="line"/>
      <point x="79.0201" y="0" type="line"/>
    </contour>
    <contour>
      <point x="127.897" y="186.64" type="line"/>
      <point x="149.793" y="246.995" type="line"/>
      <point x="557.034" y="246.995" type="line"/>
      <point x="579.498" y="186.64" type="line"/>
    </contour>
  </outline>
</glyph>
<glyph name="B" format="2">
  <advance width="754"/>
  <unicode hex="0042"/>
  <anchor x="384" y="700" name="t.uni0308"/>
  <anchor x="384" y="0" name="b.uni0324_3"/>
  <outline>
    <contour>
      <point x="114.305" y="0" type="line"/>
      <point x="114.305" y="700" type="line"/>
      <point x="416.232" y="700" type="line" smooth="yes"/>
      <point x="532.729" y="700"/>
      <point x="661.995" y="605.901"/>
      <point x="661.995" y="520.167" type="qcurve" smooth="yes"/>
      <point x="661.995" y="463.3"/>
      <point x="608.828" y="385.167"/>
      <point x="518.458" y="344.901"/>
      <point x="463.656" y="344.901" type="qcurve"/>
      <point x="481.222" y="369.232" type="line"/>
      <point x="548.059" y="369.232"/>
      <point x="645.429" y="327.665"/>
      <point x="698.862" y="246.532"/>
      <point x="698.862" y="186.966" type="qcurve" smooth="yes"/>
      <point x="698.862" y="97.8325"/>
      <point x="567.631" y="0"/>
      <point x="436.232" y="0" type="qcurve" smooth="yes"/>
    </contour>
    <contour>
      <point x="187.557" y="60.9215" type="line"/>
      <point x="434.567" y="60.9215" type="line" smooth="yes"/>
      <point x="527.305" y="60.9215"/>
      <point x="625.044" y="124.059"/>
      <point x="625.044" y="192.631" type="qcurve" smooth="yes"/>
      <point x="625.044" y="261.202"/>
      <point x="527.305" y="324.473"/>
      <point x="434.567" y="324.473" type="qcurve" smooth="yes"/>
      <point x="180.291" y="324.473" type="line"/>
      <point x="180.291" y="385.394" type="line"/>
      <point x="411.167" y="385.394" type="line" smooth="yes"/>
      <point x="495.305" y="385.394"/>
      <point x="588.177" y="448.966"/>
      <point x="588.177" y="512.236" type="qcurve" smooth="yes"/>
      <point x="588.177" y="575.507"/>
      <point x="495.305" y="639.078"/>
      <point x="411.167" y="639.078" type="qcurve" smooth="yes"/>
      <point x="187.557" y="639.078" type="line"/>
    </contour>
  </outline>
</glyph>
<glyph name="C" format="2">
  <advance width="719"/>
  <unicode hex="0043"/>
  <anchor x="422" y="701" name="t.uni0308"/>
  <anchor x="385" y="0" name="b.uni0324_3"/>
  <outline>
    <contour>
      <point x="418" y="-6.39904" type="qcurve" smooth="yes"/>
      <point x="339.3" y="-6.39904"/>
      <point x="205.468" y="46.601"/>
      <point x="106.768" y="143.167"/>
      <point x="51.6354" y="272.867"/>
      <point x="51.6354" y="350" type="qcurve" smooth="yes"/>
      <point x="51.6354" y="427.133"/>
      <point x="106.768" y="556.833"/>
      <point x="206.034" y="653.399"/>
      <point x="339.867" y="706.399"/>
      <point x="418.567" y="706.399" type="qcurve" smooth="yes"/>
      <point x="495.498" y="706.399"/>
      <point x="628.562" y="655.034"/>
      <point x="675.261" y="603.803" type="qcurve"/>
      <point x="628.138" y="556.945" type="line"/>
      <point x="585.236" y="600.679"/>
      <point x="480.867" y="640.379"/>
      <point x="421.399" y="640.379" type="qcurve" smooth="yes"/>
      <point x="357.897" y="640.379"/>
      <point x="249.759" y="596.744"/>
      <point x="169.656" y="518.207"/>
      <point x="125.454" y="412.502"/>
      <point x="125.454" y="350" type="qcurve" smooth="yes"/>
      <point x="125.454" y="287.498"/>
      <point x="169.656" y="181.793"/>
      <point x="249.759" y="103.256"/>
      <point x="357.897" y="59.6211"/>
      <point x="421.399" y="59.6211" type="qcurve" smooth="yes"/>
      <point x="480.867" y="59.6211"/>
      <point x="585.236" y="99.7541"/>
      <point x="628.138" y="144.055" type="qcurve"/>
      <point x="675.261" y="97.1971" type="line"/>
      <point x="628.562" y="45.9656"/>
      <point x="495.498" y="-6.39904"/>
    </contour>
  </outline>
</glyph>
<glyph name="D" format="2">
  <advance width="826"/>
  <unicode hex="0044"/>
  <anchor x="345" y="700" name="t.uni0308"/>
  <anchor x="209" y="355" name="t.uni0307_1"/>
  <anchor x="346" y="0" name="b.uni0324_3"/>
  <outline>
    <contour>
      <point x="114.305" y="0" type="line"/>
      <point x="114.305" y="700" type="line"/>
      <point x="399.133" y="700" type="line" smooth="yes"/>
      <point x="511.266" y="700"/>
      <point x="680.099" y="610.7"/>
      <point x="774.365" y="453.266"/>
      <point x="774.365" y="350" type="qcurve" smooth="yes"/>
      <point x="774.365" y="246.734"/>
      <point x="680.099" y="89.3005"/>
      <point x="511.266" y="0"/>
      <point x="399.133" y="0" type="qcurve" smooth="yes"/>
    </contour>
    <contour>
      <point x="187.557" y="64.3206" type="line"/>
      <point x="394.867" y="64.3206" type="line" smooth="yes"/>
      <point x="488.271" y="64.3206"/>
      <point x="625.31" y="137.291"/>
      <point x="700.546" y="265.897"/>
      <point x="700.546" y="350" type="qcurve" smooth="yes"/>
      <point x="700.546" y="434.67"/>
      <point x="625.31" y="562.709"/>
      <point x="488.271" y="635.679"/>
      <point x="394.867" y="635.679" type="qcurve" smooth="yes"/>
      <point x="187.557" y="635.679" type="line"/>
    </contour>
  </outline>
</glyph>
<glyph name="F" format="2">
  <advance width="633"/>
  <unicode hex="0046"/>
  <outline>
    <contour>
      <point x="179.724" y="361.429" type="line"/>
      <point x="550.33" y="361.429" type="line"/>
      <point x="550.33" y="297.108" type="line"/>
      <point x="179.724" y="297.108" type="line"/>
    </contour>
    <contour>
      <point x="187.557" y="0" type="line"/>
      <point x="114.305" y="0" type="line"/>
      <point x="114.305" y="700" type="line"/>
      <point x="594.197" y="700" type="line"/>
      <point x="594.197" y="635.679" type="line"/>
      <point x="187.557" y="635.679" type="line"/>
    </contour>
  </outline>
</glyph>
<glyph name="J" format="2">
  <advance width="501"/>
  <unicode hex="004A"/>
  <anchor x="323" y="700" name="t.uni0308"/>
  <outline>
    <contour>
      <point x="189.33" y="-6.39904" type="qcurve" smooth="yes"/>
      <point x="130.099" y="-6.39904"/>
      <point x="27.4679" y="46.0344"/>
      <point x="-4.49761" y="93.734" type="qcurve"/>
      <point x="38.9608" y="143.69" type="line"/>
      <point x="67.9608" y="101.956"/>
      <point x="144.163" y="57.9215"/>
      <point x="189.764" y="57.9215" type="qcurve" smooth="yes"/>
      <point x="319.803" y="57.9215"/>
      <point x="319.803" y="212.429" type="qcurve" smooth="yes"/>
      <point x="319.803" y="635.679" type="line"/>
      <point x="64.0344" y="635.679" type="line"/>
      <point x="64.0344" y="700" type="line"/>
      <point x="393.055" y="700" type="line"/>
      <point x="393.055" y="214.961" type="line" smooth="yes"/>
      <point x="393.055" y="103.931"/>
      <point x="290.059" y="-6.39904"/>
    </contour>
  </outline>
</glyph>
<glyph name="L" format="2">
  <advance width="589"/>
  <unicode hex="004C"/>
  <anchor x="189" y="700" name="t.uni0308"/>
  <anchor x="506" y="480" name="t.periodcentered.loclCAT"/>
  <anchor x="189" y="419" name="t.uni0307_1"/>
  <anchor x="413" y="700" name="t.uni031B_2"/>
  <anchor x="338" y="0" name="b.uni0324_3"/>
  <outline>
    <contour>
      <point x="114.305" y="0" type="line"/>
      <point x="114.305" y="700" type="line"/>
      <point x="187.557" y="700" type="line"/>
      <point x="187.557" y="64.3206" type="line"/>
      <point x="579.631" y="64.3206" type="line"/>
      <point x="579.631" y="0" type="line"/>
    </contour>
  </outline>
</glyph>
<glyph name="M" format="2">
  <advance width="955"/>
  <unicode hex="004D"/>
  <anchor x="475" y="700" name="t.uni0308"/>
  <anchor x="475" y="0" name="b.uni0324_3"/>
  <outline>
    <contour>
      <point x="114.305" y="0" type="line"/>
      <point x="114.305" y="700" type="line"/>
      <point x="174.926" y="700" type="line"/>
      <point x="494.897" y="153.69" type="line"/>
      <point x="462.67" y="153.69" type="line"/>
      <point x="779.941" y="700" type="line"/>
      <point x="840.562" y="700" type="line"/>
      <point x="841.128" y="0" type="line"/>
      <point x="770.143" y="0" type="line"/>
      <point x="769.576" y="588.856" type="line"/>
      <point x="787.207" y="588.856" type="line"/>
      <point x="494.764" y="89.3694" type="line"/>
      <point x="460.103" y="89.3694" type="line"/>
      <point x="165.527" y="588.856" type="line"/>
      <point x="185.291" y="588.856" type="line"/>
      <point x="185.291" y="0" type="line"/>
    </contour>
  </outline>
</glyph>
<glyph name="N" format="2">
  <advance width="813"/>
  <unicode hex="004E"/>
  <anchor x="399" y="700" name="t.uni0308"/>
  <anchor x="399" y="0" name="b.uni0324_3"/>
  <outline>
    <contour>
      <point x="114.305" y="0" type="line"/>
      <point x="114.305" y="700" type="line"/>
      <point x="174.926" y="700" type="line"/>
      <point x="657.571" y="91.5474" type="line"/>
      <point x="625.611" y="91.5474" type="line"/>
      <point x="625.611" y="700" type="line"/>
      <point x="698.862" y="700" type="line"/>
      <point x="698.862" y="0" type="line"/>
      <point x="638.241" y="0" type="line"/>
      <point x="155.596" y="608.453" type="line"/>
      <point x="187.557" y="608.453" type="line"/>
      <point x="187.557" y="0" type="line"/>
    </contour>
  </outline>
</glyph>
<glyph name="P" format="2">
  <advance width="718"/>
  <unicode hex="0050"/>
  <outline>
    <contour>
      <point x="114.305" y="0" type="line"/>
      <point x="114.305" y="700" type="line"/>
      <point x="375.665" y="700" type="line" smooth="yes"/>
      <point x="465.064" y="700"/>
      <point x="593.163" y="642.734"/>
      <point x="661.995" y="535.635"/>
      <point x="661.995" y="460.369" type="qcurve" smooth="yes"/>
      <point x="661.995" y="386.103"/>
      <point x="593.163" y="278.571"/>
      <point x="465.064" y="221.305"/>
      <point x="375.665" y="221.305" type="qcurve" smooth="yes"/>
      <point x="154.764" y="221.305" type="line"/>
      <point x="187.557" y="255.798" type="line"/>
      <point x="187.557" y="0" type="line"/>
    </contour>
    <contour>
      <point x="187.557" y="249.867" type="line"/>
      <point x="154.764" y="285.626" type="line"/>
      <point x="374.266" y="285.626" type="line" smooth="yes"/>
      <point x="479.138" y="285.626"/>
      <point x="588.177" y="377.365"/>
      <point x="588.177" y="460.369" type="qcurve" smooth="yes"/>
      <point x="588.177" y="544.374"/>
      <point x="479.138" y="635.679"/>
      <point x="374.266" y="635.679" type="qcurve" smooth="yes"/>
      <point x="154.764" y="635.679" type="line"/>
      <point x="187.557" y="671.438" type="line"/>
    </contour>
  </outline>
</glyph>
<glyph name="Q" format="2">
  <advance width="839"/>
  <unicode hex="0051"/>
  <anchor x="428" y="700" name="t.uni0308"/>
  <outline>
    <contour>
      <point x="419.7" y="-6.39904" type="qcurve" smooth="yes"/>
      <point x="340.433" y="-6.39904"/>
      <point x="206.034" y="47.1675"/>
      <point x="106.768" y="143.734"/>
      <point x="51.6354" y="273.433"/>
      <point x="51.6354" y="350" type="qcurve" smooth="yes"/>
      <point x="51.6354" y="426.567"/>
      <point x="106.768" y="556.266"/>
      <point x="206.034" y="652.833"/>
      <point x="340.433" y="706.399"/>
      <point x="419.7" y="706.399" type="qcurve" smooth="yes"/>
      <point x="498.966" y="706.399"/>
      <point x="632.798" y="653.399"/>
      <point x="732.064" y="556.833"/>
      <point x="787.197" y="427.133"/>
      <point x="787.197" y="350" type="qcurve" smooth="yes"/>
      <point x="787.197" y="272.867"/>
      <point x="732.064" y="143.167"/>
      <point x="632.798" y="46.601"/>
      <point x="498.966" y="-6.39904"/>
    </contour>
    <contour>
      <point x="649.133" y="-138.729" type="qcurve" smooth="yes"/>
      <point x="617.034" y="-138.729"/>
      <point x="557.103" y="-122.596"/>
      <point x="495.872" y="-87.6306"/>
      <point x="431.507" y="-32.266"/>
      <point x="394.409" y="7.53206" type="qcurve"/>
      <point x="474.793" y="27.8278" type="line"/>
      <point x="505.961" y="-9.17224"/>
      <point x="565.03" y="-57.3397"/>
      <point x="622.099" y="-79.5072"/>
      <point x="650.266" y="-79.5072" type="qcurve" smooth="yes"/>
      <point x="728.335" y="-79.5072"/>
      <point x="783.369" y="-15.8718" type="qcurve"/>
      <point x="819.463" y="-58.7636" type="line"/>
      <point x="753.498" y="-138.729"/>
    </contour>
    <contour>
      <point x="419.7" y="59.6211" type="qcurve" smooth="yes"/>
      <point x="482.635" y="59.6211"/>
      <point x="589.64" y="103.256"/>
      <point x="669.177" y="182.36"/>
      <point x="713.379" y="288.064"/>
      <point x="713.379" y="350" type="qcurve" smooth="yes"/>
      <point x="713.379" y="412.502"/>
      <point x="669.177" y="517.64"/>
      <point x="589.64" y="596.744"/>
      <point x="482.635" y="640.379"/>
      <point x="419.7" y="640.379" type="qcurve" smooth="yes"/>
      <point x="356.764" y="640.379"/>
      <point x="249.192" y="596.744"/>
      <point x="169.656" y="517.64"/>
      <point x="125.454" y="412.502"/>
      <point x="125.454" y="350" type="qcurve" smooth="yes"/>
      <point x="125.454" y="288.064"/>
      <point x="169.656" y="182.36"/>
      <point x="249.192" y="103.256"/>
      <point x="356.764" y="59.6211"/>
    </contour>
  </outline>
</glyph>
<glyph name="U" format="2">
  <advance width="792"/>
  <unicode hex="0055"/>
  <anchor x="393" y="700" name="t.uni0308"/>
  <anchor x="626" y="700" name="t.uni031B_2"/>
  <anchor x="393" y="0" name="b.uni0324_3"/>
  <anchor x="636" y="0" name="m.uni0328_4"/>
  <outline>
    <contour>
      <point x="395.867" y="-6.39904" type="qcurve" smooth="yes"/>
      <point x="261.803" y="-6.39904"/>
      <point x="108.305" y="148.399"/>
      <point x="108.305" y="299.232" type="qcurve" smooth="yes"/>
      <point x="108.305" y="700" type="line"/>
      <point x="181.557" y="700" type="line"/>
      <point x="181.557" y="301.931" type="line" smooth="yes"/>
      <point x="181.557" y="177.793"/>
      <point x="293.862" y="59.6211"/>
      <point x="396.433" y="59.6211" type="qcurve" smooth="yes"/>
      <point x="499.005" y="59.6211"/>
      <point x="611.31" y="177.793"/>
      <point x="611.31" y="301.931" type="qcurve" smooth="yes"/>
      <point x="611.31" y="700" type="line"/>
      <point x="683.429" y="700" type="line"/>
      <point x="683.429" y="299.232" type="line" smooth="yes"/>
      <point x="683.429" y="148.399"/>
      <point x="529.931" y="-6.39904"/>
    </contour>
  </outline>
</glyph>
<glyph name="V" format="2">
  <advance width="698"/>
  <unicode hex="0056"/>
  <outline>
    <contour>
      <point x="313.103" y="0" type="line"/>
      <point x="2.6354" y="700" type="line"/>
      <point x="82.8526" y="700" type="line"/>
      <point x="373.424" y="41.4928" type="line"/>
      <point x="328.867" y="41.4928" type="line"/>
      <point x="621.138" y="700" type="line"/>
      <point x="695.69" y="700" type="line"/>
      <point x="385.789" y="0" type="line"/>
    </contour>
  </outline>
</glyph>
<glyph name="W" format="2">
  <advance width="1111"/>
  <unicode hex="0057"/>
  <anchor x="631" y="700" name="t.uni0308"/>
  <anchor x="631" y="0" name="b.uni0324_3"/>
  <outline>
    <contour>
      <point x="272.537" y="0" type="line"/>
      <point x="36.5024" y="700" type="line"/>
      <point x="112.887" y="700" type="line"/>
      <point x="333.857" y="41.4928" type="line"/>
      <point x="295.665" y="41.4928" type="line"/>
      <point x="523.768" y="700" type="line"/>
      <point x="592.488" y="700" type="line"/>
      <point x="817.192" y="41.4928" type="line"/>
      <point x="780.567" y="41.4928" type="line"/>
      <point x="1003.8" y="700" type="line"/>
      <point x="1074.66" y="700" type="line"/>
      <point x="838.621" y="0" type="line"/>
      <point x="761.404" y="0" type="line"/>
      <point x="546.498" y="624.748" type="line"/>
      <point x="566.36" y="624.748" type="line"/>
      <point x="350.321" y="0" type="line"/>
    </contour>
  </outline>
</glyph>
<glyph name="X" format="2">
  <advance width="656"/>
  <unicode hex="0058"/>
  <outline>
    <contour>
      <point x="17.0689" y="0" type="line"/>
      <point x="304" y="388.128" type="line"/>
      <point x="304" y="331.34" type="line"/>
      <point x="34.2364" y="700" type="line"/>
      <point x="118.72" y="700" type="line"/>
      <point x="345.724" y="391.695" type="line"/>
      <point x="313.099" y="391.128" type="line"/>
      <point x="539.537" y="700" type="line"/>
      <point x="620.188" y="700" type="line"/>
      <point x="352.857" y="336.473" type="line"/>
      <point x="352.857" y="387.527" type="line"/>
      <point x="639.055" y="0" type="line"/>
      <point x="553.438" y="0" type="line"/>
      <point x="310.966" y="329.473" type="line"/>
      <point x="342.458" y="329.473" type="line"/>
      <point x="101.685" y="0" type="line"/>
    </contour>
  </outline>
</glyph>
<glyph name="bracketleft" format="2">
  <advance width="318"/>
  <unicode hex="005B"/>
  <outline>
    <contour>
      <point x="114.305" y="-194" type="line"/>
      <point x="114.305" y="742" type="line"/>
      <point x="296.99" y="742" type="line"/>
      <point x="296.99" y="682.778" type="line"/>
      <point x="185.291" y="682.778" type="line"/>
      <point x="185.291" y="-134.778" type="line"/>
      <point x="296.99" y="-134.778" type="line"/>
      <point x="296.99" y="-194" type="line"/>
    </contour>
  </outline>
</glyph>
<glyph name="backslash" format="2">
  <advance width="335"/>
  <unicode hex="005C"/>
  <outline>
    <contour>
      <point x="359.656" y="-100" type="line"/>
      <point x="294.901" y="-100" type="line"/>
      <point x="-35.0986" y="842" type="line"/>
      <point x="29.6555" y="842" type="line"/>
    </contour>
  </outline>
</glyph>
<glyph name="bracketright" format="2">
  <advance width="318"/>
  <unicode hex="005D"/>
  <outline>
    <contour>
      <point x="203.72" y="-194" type="line"/>
      <point x="21.0344" y="-194" type="line"/>
      <point x="21.0344" y="-134.778" type="line"/>
      <point x="132.734" y="-134.778" type="line"/>
      <point x="132.734" y="682.778" type="line"/>
      <point x="21.0344" y="682.778" type="line"/>
      <point x="21.0344" y="742" type="line"/>
      <point x="203.72" y="742" type="line"/>
    </contour>
  </outline>
</glyph>
<glyph name="asciicircum" format="2">
  <advance width="576"/>
  <unicode hex="005E"/>
  <outline>
    <contour>
      <point x="83.1378" y="143.3" type="line"/>
      <point x="258.103" y="556.7" type="line"/>
      <point x="318.626" y="556.7" type="line"/>
      <point x="493.025" y="143.3" type="line"/>
      <point x="434.202" y="143.3" type="line"/>
      <point x="273.034" y="532.369" type="line"/>
      <point x="303.128" y="532.369" type="line"/>
      <point x="141.961" y="143.3" type="line"/>
    </contour>
  </outline>
</glyph>
<glyph name="a" format="2">
  <advance width="682"/>
  <unicode hex="0061"/>
  <anchor x="368.7" y="562" name="t.uni0308"/>
  <anchor x="368.7" y="0" name="b.uni0324_3"/>
  <anchor x="672.7" y="0" name="m.uni0328_4"/>
  <outline>
    <contour>
      <point x="317.133" y="-4.69952" type="qcurve" smooth="yes"/>
      <point x="242.167" y="-4.69952"/>
      <point x="123.069" y="62.867"/>
      <point x="54.8029" y="183.567"/>
      <point x="54.8029" y="262.966" type="qcurve" smooth="yes"/>
      <point x="54.8029" y="342.798"/>
      <point x="123.069" y="462.631"/>
      <point x="242.167" y="530.197"/>
      <point x="317.133" y="530.197" type="qcurve" smooth="yes"/>
      <point x="385.3" y="530.197"/>
      <point x="495.034" y="467.729"/>
      <point x="560.034" y="349.03"/>
      <point x="560.034" y="262.966" type="qcurve" smooth="yes"/>
      <point x="560.034" y="177.901"/>
      <point x="496.167" y="57.7684"/>
      <point x="386.433" y="-4.69952"/>
    </contour>
    <contour>
      <point x="322.232" y="57.9215" type="qcurve" smooth="yes"/>
      <point x="378.034" y="57.9215"/>
      <point x="466.606" y="109.158"/>
      <point x="518.108" y="202.163"/>
      <point x="518.108" y="262.966" type="qcurve" smooth="yes"/>
      <point x="518.108" y="324.768"/>
      <point x="466.606" y="416.773"/>
      <point x="378.034" y="467.576"/>
      <point x="322.232" y="467.576" type="qcurve" smooth="yes"/>
      <point x="266.429" y="467.576"/>
      <point x="178.291" y="416.773"/>
      <point x="126.355" y="324.768"/>
      <point x="126.355" y="262.966" type="qcurve" smooth="yes"/>
      <point x="126.355" y="202.163"/>
      <point x="178.291" y="109.158"/>
      <point x="266.429" y="57.9215"/>
    </contour>
    <contour>
      <point x="519.808" y="0" type="line"/>
      <point x="519.808" y="158.276" type="line"/>
      <point x="526.975" y="263.966" type="line"/>
      <point x="516.975" y="369.656" type="line"/>
      <point x="516.975" y="525.498" type="line"/>
      <point x="587.961" y="525.498" type="line"/>
      <point x="587.961" y="0" type="line"/>
    </contour>
  </outline>
</glyph>
<glyph name="b" format="2">
  <advance width="678"/>
  <unicode hex="0062"/>
  <outline>
    <contour>
      <point x="369.966" y="-4.69952" type="qcurve" smooth="yes"/>
      <point x="301.232" y="-4.69952"/>
      <point x="190.931" y="57.7684"/>
      <point x="127.064" y="177.901"/>
      <point x="127.064" y="262.966" type="qcurve" smooth="yes"/>
      <point x="127.064" y="349.03"/>
      <point x="192.064" y="467.729"/>
      <point x="302.365" y="530.197"/>
      <point x="369.966" y="530.197" type="qcurve" smooth="yes"/>
      <point x="445.498" y="530.197"/>
      <point x="564.03" y="462.631"/>
      <point x="632.296" y="342.798"/>
      <point x="632.296" y="262.966" type="qcurve" smooth="yes"/>
      <point x="632.296" y="183.567"/>
      <point x="564.03" y="62.867"/>
      <point x="445.498" y="-4.69952"/>
    </contour>
    <contour>
      <point x="99.1378" y="0" type="line"/>
      <point x="99.1378" y="742" type="line"/>
      <point x="170.123" y="742" type="line"/>
      <point x="170.123" y="369.656" type="line"/>
      <point x="160.123" y="263.966" type="line"/>
      <point x="167.291" y="158.276" type="line"/>
      <point x="167.291" y="0" type="line"/>
    </contour>
    <contour>
      <point x="364.867" y="57.9215" type="qcurve" smooth="yes"/>
      <point x="420.67" y="57.9215"/>
      <point x="509.241" y="109.158"/>
      <point x="560.744" y="202.163"/>
      <point x="560.744" y="262.966" type="qcurve" smooth="yes"/>
      <point x="560.744" y="324.768"/>
      <point x="509.241" y="416.773"/>
      <point x="420.67" y="467.576"/>
      <point x="364.867" y="467.576" type="qcurve" smooth="yes"/>
      <point x="309.064" y="467.576"/>
      <point x="220.493" y="416.773"/>
      <point x="168.99" y="324.768"/>
      <point x="168.99" y="262.966" type="qcurve" smooth="yes"/>
      <point x="168.99" y="202.163"/>
      <point x="220.493" y="109.158"/>
      <point x="309.064" y="57.9215"/>
    </contour>
  </outline>
</glyph>
<glyph name="d" format="2">
  <advance width="678"/>
  <unicode hex="0064"/>
  <anchor x="494" y="645" name="t.uni0307_1"/>
  <anchor x="757" y="742" name="t.uni031B_2"/>
  <anchor x="404" y="0" name="b.uni0324_3"/>
  <outline>
    <contour>
      <point x="308.399" y="-4.69952" type="qcurve" smooth="yes"/>
      <point x="233.433" y="-4.69952"/>
      <point x="114.335" y="62.867"/>
      <point x="46.0689" y="183.567"/>
      <point x="46.0689" y="262.966" type="qcurve" smooth="yes"/>
      <point x="46.0689" y="342.798"/>
      <point x="114.335" y="462.631"/>
      <point x="233.433" y="530.197"/>
      <point x="308.399" y="530.197" type="qcurve" smooth="yes"/>
      <point x="376.567" y="530.197"/>
      <point x="486.3" y="467.729"/>
      <point x="551.3" y="349.03"/>
      <point x="551.3" y="262.966" type="qcurve" smooth="yes"/>
      <point x="551.3" y="177.901"/>
      <point x="487.433" y="57.7684"/>
      <point x="377.7" y="-4.69952"/>
    </contour>
    <contour>
      <point x="313.498" y="57.9215" type="qcurve" smooth="yes"/>
      <point x="369.3" y="57.9215"/>
      <point x="457.872" y="109.158"/>
      <point x="509.374" y="202.163"/>
      <point x="509.374" y="262.966" type="qcurve" smooth="yes"/>
      <point x="509.374" y="324.768"/>
      <point x="457.872" y="416.773"/>
      <point x="369.3" y="467.576"/>
      <point x="313.498" y="467.576" type="qcurve" smooth="yes"/>
      <point x="257.695" y="467.576"/>
      <point x="169.557" y="416.773"/>
      <point x="117.621" y="324.768"/>
      <point x="117.621" y="262.966" type="qcurve" smooth="yes"/>
      <point x="117.621" y="202.163"/>
      <point x="169.557" y="109.158"/>
      <point x="257.695" y="57.9215"/>
    </contour>
    <contour>
      <point x="511.074" y="0" type="line"/>
      <point x="511.074" y="158.276" type="line"/>
      <point x="518.241" y="263.966" type="line"/>
      <point x="508.241" y="369.656" type="line"/>
      <point x="508.241" y="742" type="line"/>
      <point x="579.227" y="742" type="line"/>
      <point x="579.227" y="0" type="line"/>
    </contour>
  </outline>
</glyph>
<glyph name="e" format="2">
  <advance width="604"/>
  <unicode hex="0065"/>
  <anchor x="342" y="562" name="t.uni0308"/>
  <anchor x="342" y="0" name="b.uni0324_3"/>
  <anchor x="584" y="0" name="m.uni0328_4"/>
  <outline>
    <contour>
      <point x="322.197" y="-4.69952" type="qcurve" smooth="yes"/>
      <point x="240.399" y="-4.69952"/>
      <point x="115.901" y="64"/>
      <point x="46.0689" y="185.266"/>
      <point x="46.0689" y="262.966" type="qcurve" smooth="yes"/>
      <point x="46.0689" y="341.099"/>
      <point x="112.601" y="461.498"/>
      <point x="229.532" y="530.197"/>
      <point x="303.197" y="530.197" type="qcurve" smooth="yes"/>
      <point x="376.862" y="530.197"/>
      <point x="492.094" y="462.931"/>
      <point x="557.926" y="342.399"/>
      <point x="557.926" y="262.867" type="qcurve" smooth="yes"/>
      <point x="557.926" y="258.468"/>
      <point x="557.36" y="246.837"/>
      <point x="556.793" y="241.438" type="qcurve"/>
      <point x="100.123" y="241.438" type="line"/>
      <point x="100.123" y="294.429" type="line"/>
      <point x="519.167" y="294.429" type="line"/>
      <point x="490.773" y="273.197" type="line"/>
      <point x="491.34" y="329.867"/>
      <point x="442.404" y="418.606"/>
      <point x="358.133" y="469.276"/>
      <point x="303.197" y="469.276" type="qcurve" smooth="yes"/>
      <point x="248.695" y="469.276"/>
      <point x="163.424" y="418.606"/>
      <point x="115.488" y="329.3"/>
      <point x="115.488" y="271.498" type="qcurve" smooth="yes"/>
      <point x="115.488" y="259.567" type="line" smooth="yes"/>
      <point x="115.488" y="200.463"/>
      <point x="168.424" y="109.158"/>
      <point x="262.828" y="57.9215"/>
      <point x="323.897" y="57.9215" type="qcurve" smooth="yes"/>
      <point x="372.498" y="57.9215"/>
      <point x="455.3" y="92.2565"/>
      <point x="484.601" y="127.158" type="qcurve"/>
      <point x="524.66" y="80.867" type="line"/>
      <point x="489.527" y="38.867"/>
      <point x="384.995" y="-4.69952"/>
    </contour>
  </outline>
</glyph>
<glyph name="f" format="2">
  <advance width="339"/>
  <unicode hex="0066"/>
  <outline>
    <contour>
      <point x="111.103" y="0" type="line"/>
      <point x="111.103" y="590.808" type="line" smooth="yes"/>
      <point x="111.103" y="661.404"/>
      <point x="193.099" y="746.7"/>
      <point x="269.527" y="746.7" type="qcurve" smooth="yes"/>
      <point x="299.793" y="746.7"/>
      <point x="355.926" y="730.966"/>
      <point x="375.059" y="714.232" type="qcurve"/>
      <point x="350.862" y="660.576" type="line"/>
      <point x="335.995" y="673.744"/>
      <point x="295.527" y="687.477"/>
      <point x="273.36" y="687.477" type="qcurve" smooth="yes"/>
      <point x="227.591" y="687.477"/>
      <point x="180.389" y="636.842"/>
      <point x="180.389" y="588.074" type="qcurve" smooth="yes"/>
      <point x="180.389" y="507.768" type="line"/>
      <point x="182.089" y="474.675" type="line"/>
      <point x="182.089" y="0" type="line"/>
    </contour>
    <contour>
      <point x="17.3349" y="466.276" type="line"/>
      <point x="17.3349" y="525.498" type="line"/>
      <point x="341.793" y="525.498" type="line"/>
      <point x="341.793" y="466.276" type="line"/>
    </contour>
  </outline>
</glyph>
<glyph name="g" format="2">
  <advance width="685"/>
  <unicode hex="0067"/>
  <anchor x="372" y="562" name="t.uni0308"/>
  <outline>
    <contour>
      <point x="323" y="-198.7" type="qcurve" smooth="yes"/>
      <point x="251.3" y="-198.7"/>
      <point x="119.103" y="-156.665"/>
      <point x="77.5713" y="-117.798" type="qcurve"/>
      <point x="113.665" y="-63.5761" type="line"/>
      <point x="151.399" y="-97.4775"/>
      <point x="260.266" y="-136.078"/>
      <point x="320.734" y="-136.078" type="qcurve" smooth="yes"/>
      <point x="420.837" y="-136.078"/>
      <point x="515.374" y="-42.5416"/>
      <point x="515.374" y="55.4632" type="qcurve" smooth="yes"/>
      <point x="515.374" y="185.773" type="line"/>
      <point x="525.374" y="275.798" type="line"/>
      <point x="518.207" y="366.389" type="line"/>
      <point x="518.207" y="525.498" type="line"/>
      <point x="586.36" y="525.498" type="line"/>
      <point x="586.36" y="63.5617" type="line" smooth="yes"/>
      <point x="586.36" y="-71.6354"/>
      <point x="453.197" y="-198.7"/>
    </contour>
    <contour>
      <point x="310.266" y="20.399" type="qcurve" smooth="yes"/>
      <point x="234.867" y="20.399"/>
      <point x="115.335" y="85.399"/>
      <point x="46.0689" y="200.532"/>
      <point x="46.0689" y="275.798" type="qcurve" smooth="yes"/>
      <point x="46.0689" y="351.498"/>
      <point x="115.335" y="466.197"/>
      <point x="234.867" y="530.197"/>
      <point x="310.266" y="530.197" type="qcurve" smooth="yes"/>
      <point x="379.867" y="530.197"/>
      <point x="491.734" y="471.862"/>
      <point x="558.433" y="358.296"/>
      <point x="558.433" y="275.798" type="qcurve" smooth="yes"/>
      <point x="558.433" y="193.734"/>
      <point x="491.734" y="79.734"/>
      <point x="379.867" y="20.399"/>
    </contour>
    <contour>
      <point x="317.064" y="83.0201" type="qcurve" smooth="yes"/>
      <point x="375.433" y="83.0201"/>
      <point x="465.138" y="131.823"/>
      <point x="516.507" y="219.128"/>
      <point x="516.507" y="275.798" type="qcurve" smooth="yes"/>
      <point x="516.507" y="332.901"/>
      <point x="465.138" y="419.34"/>
      <point x="375.433" y="467.576"/>
      <point x="317.064" y="467.576" type="qcurve" smooth="yes"/>
      <point x="259.695" y="467.576"/>
      <point x="168.99" y="419.34"/>
      <point x="117.621" y="332.901"/>
      <point x="117.621" y="275.798" type="qcurve" smooth="yes"/>
      <point x="117.621" y="219.128"/>
      <point x="168.99" y="131.823"/>
      <point x="259.695" y="83.0201"/>
    </contour>
  </outline>
</glyph>
<glyph name="k" format="2">
  <advance width="601"/>
  <unicode hex="006B"/>
  <anchor x="180" y="742" name="t.uni0308"/>
  <anchor x="341" y="562" name="t.uni031B_2"/>
  <anchor x="330" y="0" name="b.uni0324_3"/>
  <outline>
    <contour>
      <point x="155.192" y="136.438" type="line"/>
      <point x="156.892" y="226.72" type="line"/>
      <point x="483.571" y="525.498" type="line"/>
      <point x="571.488" y="525.498" type="line"/>
      <point x="340.256" y="303.635" type="line"/>
      <point x="299.897" y="270.108" type="line"/>
    </contour>
    <contour>
      <point x="99.1378" y="0" type="line"/>
      <point x="99.1378" y="742" type="line"/>
      <point x="170.123" y="742" type="line"/>
      <point x="170.123" y="0" type="line"/>
    </contour>
    <contour>
      <point x="506.172" y="0" type="line"/>
      <point x="286.833" y="272.842" type="line"/>
      <point x="333.424" y="328.463" type="line"/>
      <point x="593.355" y="0" type="line"/>
    </contour>
  </outline>
</glyph>
<glyph name="m" format="2">
  <advance width="1061"/>
  <unicode hex="006D"/>
  <anchor x="511" y="0" name="b.uni0324_3"/>
  <outline>
    <contour>
      <point x="755.167" y="530.197" type="qcurve" smooth="yes"/>
      <point x="818.867" y="530.197"/>
      <point x="913.966" y="480.631"/>
      <point x="966.931" y="380.665"/>
      <point x="966.931" y="305" type="qcurve" smooth="yes"/>
      <point x="966.931" y="0" type="line"/>
      <point x="895.945" y="0" type="line"/>
      <point x="895.945" y="297.635" type="line" smooth="yes"/>
      <point x="895.945" y="381.172"/>
      <point x="816.808" y="466.443"/>
      <point x="744.837" y="466.443" type="qcurve" smooth="yes"/>
      <point x="691.3" y="466.443"/>
      <point x="611.596" y="421.074"/>
      <point x="568.527" y="336.236"/>
      <point x="568.527" y="275.901" type="qcurve" smooth="yes"/>
      <point x="568.527" y="0" type="line"/>
      <point x="497.542" y="0" type="line"/>
      <point x="497.542" y="297.635" type="line" smooth="yes"/>
      <point x="497.542" y="381.172"/>
      <point x="418.404" y="466.443"/>
      <point x="346.433" y="466.443" type="qcurve" smooth="yes"/>
      <point x="292.897" y="466.443"/>
      <point x="213.192" y="421.074"/>
      <point x="170.123" y="336.236"/>
      <point x="170.123" y="275.901" type="qcurve" smooth="yes"/>
      <point x="170.123" y="0" type="line"/>
      <point x="99.1378" y="0" type="line"/>
      <point x="99.1378" y="525.498" type="line"/>
      <point x="167.291" y="525.498" type="line"/>
      <point x="167.291" y="382.897" type="line"/>
      <point x="156.227" y="407.99" type="line"/>
      <point x="180.493" y="465.36"/>
      <point x="286.527" y="530.197"/>
      <point x="359.596" y="530.197" type="qcurve" smooth="yes"/>
      <point x="436.764" y="530.197"/>
      <point x="544.729" y="453.163"/>
      <point x="560.562" y="375.995" type="qcurve"/>
      <point x="533.202" y="386.626" type="line"/>
      <point x="555.601" y="450.828"/>
      <point x="673.133" y="530.197"/>
    </contour>
  </outline>
</glyph>
<glyph name="p" format="2">
  <advance width="678"/>
  <unicode hex="0070"/>
  <anchor x="360" y="562" name="t.uni0308"/>
  <anchor x="435" y="0" name="b.uni0324_3"/>
  <outline>
    <contour>
      <point x="369.966" y="-4.69952" type="qcurve" smooth="yes"/>
      <point x="302.365" y="-4.69952"/>
      <point x="192.064" y="57.7684"/>
      <point x="127.064" y="177.468"/>
      <point x="127.064" y="262.532" type="qcurve" smooth="yes"/>
      <point x="127.064" y="348.596"/>
      <point x="190.931" y="467.729"/>
      <point x="301.232" y="530.197"/>
      <point x="369.966" y="530.197" type="qcurve" smooth="yes"/>
      <point x="445.498" y="530.197"/>
      <point x="564.03" y="462.631"/>
      <point x="632.296" y="342.365"/>
      <point x="632.296" y="262.532" type="qcurve" smooth="yes"/>
      <point x="632.296" y="183.133"/>
      <point x="564.03" y="62.867"/>
      <point x="445.498" y="-4.69952"/>
    </contour>
    <contour>
      <point x="99.1378" y="-194" type="line"/>
      <point x="99.1378" y="525.498" type="line"/>
      <point x="167.291" y="525.498" type="line"/>
      <point x="167.291" y="367.222" type="line"/>
      <point x="160.123" y="261.532" type="line"/>
      <point x="170.123" y="155.842" type="line"/>
      <point x="170.123" y="-194" type="line"/>
    </contour>
    <contour>
      <point x="364.867" y="57.9215" type="qcurve" smooth="yes"/>
      <point x="420.67" y="57.9215"/>
      <point x="509.241" y="108.724"/>
      <point x="560.744" y="201.729"/>
      <point x="560.744" y="262.532" type="qcurve" smooth="yes"/>
      <point x="560.744" y="324.335"/>
      <point x="509.241" y="416.34"/>
      <point x="420.67" y="467.576"/>
      <point x="364.867" y="467.576" type="qcurve" smooth="yes"/>
      <point x="309.064" y="467.576"/>
      <point x="220.493" y="416.34"/>
      <point x="168.99" y="324.335"/>
      <point x="168.99" y="262.532" type="qcurve" smooth="yes"/>
      <point x="168.99" y="201.729"/>
      <point x="220.493" y="108.724"/>
      <point x="309.064" y="57.9215"/>
    </contour>
  </outline>
</glyph>
<glyph name="q" format="2">
  <advance width="678"/>
  <unicode hex="0071"/>
  <anchor x="354" y="562" name="t.uni0308"/>
  <anchor x="281" y="0" name="b.uni0324_3"/>
  <outline>
    <contour>
      <point x="308.399" y="-4.69952" type="qcurve" smooth="yes"/>
      <point x="233.433" y="-4.69952"/>
      <point x="114.335" y="62.867"/>
      <point x="46.0689" y="183.133"/>
      <point x="46.0689" y="262.532" type="qcurve" smooth="yes"/>
      <point x="46.0689" y="342.365"/>
      <point x="114.335" y="462.631"/>
      <point x="233.433" y="530.197"/>
      <point x="308.399" y="530.197" type="qcurve" smooth="yes"/>
      <point x="377.7" y="530.197"/>
      <point x="487.433" y="467.729"/>
      <point x="551.3" y="348.596"/>
      <point x="551.3" y="262.532" type="qcurve" smooth="yes"/>
      <point x="551.3" y="177.468"/>
      <point x="486.3" y="57.7684"/>
      <point x="376.567" y="-4.69952"/>
    </contour>
    <contour>
      <point x="313.498" y="57.9215" type="qcurve" smooth="yes"/>
      <point x="369.3" y="57.9215"/>
      <point x="457.872" y="108.724"/>
      <point x="509.374" y="201.729"/>
      <point x="509.374" y="262.532" type="qcurve" smooth="yes"/>
      <point x="509.374" y="324.335"/>
      <point x="457.872" y="416.34"/>
      <point x="369.3" y="467.576"/>
      <point x="313.498" y="467.576" type="qcurve" smooth="yes"/>
      <point x="257.695" y="467.576"/>
      <point x="169.557" y="416.34"/>
      <point x="117.621" y="324.335"/>
      <point x="117.621" y="262.532" type="qcurve" smooth="yes"/>
      <point x="117.621" y="201.729"/>
      <point x="169.557" y="108.724"/>
      <point x="257.695" y="57.9215"/>
    </contour>
    <contour>
      <point x="508.241" y="-194" type="line"/>
      <point x="508.241" y="155.842" type="line"/>
      <point x="518.241" y="261.532" type="line"/>
      <point x="511.074" y="367.222" type="line"/>
      <point x="511.074" y="525.498" type="line"/>
      <point x="579.227" y="525.498" type="line"/>
      <point x="579.227" y="-194" type="line"/>
    </contour>
  </outline>
</glyph>
<glyph name="r" format="2">
  <advance width="401"/>
  <unicode hex="0072"/>
  <anchor x="253" y="562" name="t.uni0308"/>
  <anchor x="180" y="0" name="b.uni0324_3"/>
  <outline>
    <contour>
      <point x="99.1378" y="0" type="line"/>
      <point x="99.1378" y="525.498" type="line"/>
      <point x="167.291" y="525.498" type="line"/>
      <point x="167.291" y="381.931" type="line"/>
      <point x="160.192" y="407.025" type="line"/>
      <point x="182.325" y="466.527"/>
      <point x="286.192" y="530.197"/>
      <point x="363.493" y="530.197" type="qcurve"/>
      <point x="363.493" y="460.911" type="line"/>
      <point x="359.094" y="461.477"/>
      <point x="350.995" y="462.044"/>
      <point x="346.729" y="462.044" type="qcurve" smooth="yes"/>
      <point x="264.493" y="462.044"/>
      <point x="170.123" y="361.172"/>
      <point x="170.123" y="268.369" type="qcurve" smooth="yes"/>
      <point x="170.123" y="0" type="line"/>
    </contour>
  </outline>
</glyph>
<glyph name="s" format="2">
  <advance width="488"/>
  <unicode hex="0073"/>
  <anchor x="295" y="562" name="t.uni0308"/>
  <anchor x="295" y="0" name="b.uni0324_3"/>
  <outline>
    <contour>
      <point x="240.232" y="-4.69952" type="qcurve" smooth="yes"/>
      <point x="174.966" y="-4.69952"/>
      <point x="58.734" y="32.4679"/>
      <point x="26.3349" y="60.0689" type="qcurve"/>
      <point x="57.5962" y="116.291" type="line"/>
      <point x="89.5617" y="91.557"/>
      <point x="189.562" y="56.7885"/>
      <point x="244.764" y="56.7885" type="qcurve" smooth="yes"/>
      <point x="319.768" y="56.7885"/>
      <point x="386.172" y="103.793"/>
      <point x="386.172" y="142.897" type="qcurve" smooth="yes"/>
      <point x="386.172" y="171.966"/>
      <point x="349.305" y="204.768"/>
      <point x="288.571" y="222.103"/>
      <point x="215.404" y="233.837"/>
      <point x="142.236" y="250.404"/>
      <point x="81.5024" y="281.103"/>
      <point x="44.6354" y="334.936"/>
      <point x="44.6354" y="379.635" type="qcurve" smooth="yes"/>
      <point x="44.6354" y="423.133"/>
      <point x="93.399" y="491.064"/>
      <point x="186.296" y="530.197"/>
      <point x="253.128" y="530.197" type="qcurve" smooth="yes"/>
      <point x="303.961" y="530.197"/>
      <point x="406.458" y="503.463"/>
      <point x="438.857" y="480.596" type="qcurve"/>
      <point x="407.596" y="424.374" type="line"/>
      <point x="373.197" y="448.241"/>
      <point x="293.163" y="468.709"/>
      <point x="252.562" y="468.709" type="qcurve" smooth="yes"/>
      <point x="182.291" y="468.709"/>
      <point x="115.488" y="419.704"/>
      <point x="115.488" y="382.468" type="qcurve" smooth="yes"/>
      <point x="115.488" y="351.833"/>
      <point x="152.355" y="317.596"/>
      <point x="213.089" y="298.695"/>
      <point x="286.256" y="286.961"/>
      <point x="358.99" y="270.394"/>
      <point x="419.724" y="240.695"/>
      <point x="456.591" y="188.296"/>
      <point x="456.591" y="144.596" type="qcurve" smooth="yes"/>
      <point x="456.591" y="99.3646"/>
      <point x="405.527" y="32.133"/>
      <point x="309.197" y="-4.69952"/>
    </contour>
  </outline>
</glyph>
<glyph name="u" format="2">
  <advance width="672"/>
  <unicode hex="0075"/>
  <anchor x="356" y="562" name="t.uni0308"/>
  <anchor x="533" y="562" name="t.uni031B_2"/>
  <anchor x="356" y="0" name="b.uni0324_3"/>
  <anchor x="691" y="0" name="m.uni0328_4"/>
  <outline>
    <contour>
      <point x="316.468" y="-4.69952" type="qcurve" smooth="yes"/>
      <point x="248.768" y="-4.69952"/>
      <point x="148.67" y="44.867"/>
      <point x="93.7043" y="145.399"/>
      <point x="93.7043" y="220.498" type="qcurve" smooth="yes"/>
      <point x="93.7043" y="525.498" type="line"/>
      <point x="164.69" y="525.498" type="line"/>
      <point x="164.69" y="227.862" type="line" smooth="yes"/>
      <point x="164.69" y="144.325"/>
      <point x="247.695" y="59.0546"/>
      <point x="323.399" y="59.0546" type="qcurve" smooth="yes"/>
      <point x="378.202" y="59.0546"/>
      <point x="458.606" y="104.424"/>
      <point x="502.374" y="190.261"/>
      <point x="502.374" y="249.596" type="qcurve" smooth="yes"/>
      <point x="502.374" y="525.498" type="line"/>
      <point x="573.36" y="525.498" type="line"/>
      <point x="573.36" y="0" type="line"/>
      <point x="505.207" y="0" type="line"/>
      <point x="505.207" y="143.734" type="line"/>
      <point x="516.271" y="117.507" type="line"/>
      <point x="491.438" y="60.1378"/>
      <point x="386.271" y="-4.69952"/>
    </contour>
  </outline>
</glyph>
<glyph name="w" format="2">
  <advance width="879"/>
  <unicode hex="0077"/>
  <anchor x="522" y="560" name="t.uni0308"/>
  <anchor x="522" y="0" name="b.uni0324_3"/>
  <outline>
    <contour>
      <point x="205.901" y="0" type="line"/>
      <point x="8.03445" y="525.498" type="line"/>
      <point x="75.6211" y="525.498" type="line"/>
      <point x="255.857" y="38.3598" type="line"/>
      <point x="224.631" y="38.3598" type="line"/>
      <point x="410.133" y="525.498" type="line"/>
      <point x="471.055" y="525.498" type="line"/>
      <point x="654.291" y="38.3598" type="line"/>
      <point x="623.064" y="38.3598" type="line"/>
      <point x="806.133" y="525.498" type="line"/>
      <point x="870.754" y="525.498" type="line"/>
      <point x="672.321" y="0" type="line"/>
      <point x="605.034" y="0" type="line"/>
      <point x="429.163" y="457.778" type="line"/>
      <point x="450.325" y="457.778" type="line"/>
      <point x="272.754" y="0" type="line"/>
    </contour>
  </outline>
</glyph>
<glyph name="x" format="2">
  <advance width="534"/>
  <unicode hex="0078"/>
  <outline>
    <contour>
      <point x="18.9359" y="0" type="line"/>
      <point x="241.266" y="288.429" type="line"/>
      <point x="240.266" y="253.103" type="line"/>
      <point x="29.2364" y="525.498" type="line"/>
      <point x="109.188" y="525.498" type="line"/>
      <point x="282.025" y="300.227" type="line"/>
      <point x="251.931" y="300.793" type="line"/>
      <point x="424.768" y="525.498" type="line"/>
      <point x="503.153" y="525.498" type="line"/>
      <point x="290.123" y="250.236" type="line"/>
      <point x="291.123" y="288.296" type="line"/>
      <point x="515.321" y="0" type="line"/>
      <point x="433.803" y="0" type="line"/>
      <point x="251.099" y="239.571" type="line"/>
      <point x="279.325" y="236.172" type="line"/>
      <point x="98.8871" y="0" type="line"/>
    </contour>
  </outline>
</glyph>
<glyph name="y" format="2">
  <advance width="542"/>
  <unicode hex="0079"/>
  <anchor x="345" y="562" name="t.uni0308"/>
  <anchor x="608" y="0" name="b.uni0324_3"/>
  <outline>
    <contour>
      <point x="103.094" y="-198.7" type="qcurve" smooth="yes"/>
      <point x="66.2613" y="-198.7"/>
      <point x="-0.935882" y="-174.567"/>
      <point x="-24.7684" y="-151" type="qcurve"/>
      <point x="7.79331" y="-97.6105" type="line"/>
      <point x="27.6603" y="-117.344"/>
      <point x="75.3598" y="-137.778"/>
      <point x="103.527" y="-137.778" type="qcurve" smooth="yes"/>
      <point x="139.261" y="-137.778"/>
      <point x="190.197" y="-99.31"/>
      <point x="212.665" y="-49.8076" type="qcurve" smooth="yes"/>
      <point x="247.266" y="26.8278" type="line"/>
      <point x="255.099" y="37.7933" type="line"/>
      <point x="470.502" y="525.498" type="line"/>
      <point x="541.089" y="525.498" type="line"/>
      <point x="277.986" y="-63.1722" type="line"/>
      <point x="256.153" y="-114.236"/>
      <point x="203.222" y="-173.867"/>
      <point x="140.892" y="-198.7"/>
    </contour>
    <contour>
      <point x="242.768" y="-14.9656" type="line"/>
      <point x="0.901434" y="525.498" type="line"/>
      <point x="75.4536" y="525.498" type="line"/>
      <point x="288.591" y="43.4584" type="line"/>
    </contour>
  </outline>
</glyph>
<glyph name="z" format="2">
  <advance width="511"/>
  <unicode hex="007A"/>
  <anchor x="310" y="562" name="t.uni0308"/>
  <anchor x="305" y="0" name="b.uni0324_3"/>
  <outline>
    <contour>
      <point x="42.0344" y="0" type="line"/>
      <point x="42.0344" y="46.7244" type="line"/>
      <point x="391.773" y="490.404" type="line"/>
      <point x="407.138" y="466.276" type="line"/>
      <point x="47.601" y="466.276" type="line"/>
      <point x="47.601" y="525.498" type="line"/>
      <point x="463.493" y="525.498" type="line"/>
      <point x="463.493" y="478.773" type="line"/>
      <point x="113.754" y="35.0938" type="line"/>
      <point x="95.5225" y="59.222" type="line"/>
      <point x="470.192" y="59.222" type="line"/>
      <point x="470.192" y="0" type="line"/>
    </contour>
  </outline>
</glyph>
<glyph name="braceleft" format="2">
  <advance width="334"/>
  <unicode hex="007B"/>
  <outline>
    <contour>
      <point x="275.493" y="-194" type="line" smooth="yes"/>
      <point x="208.197" y="-194"/>
      <point x="139.335" y="-127.005"/>
      <point x="139.335" y="-61.4086" type="qcurve" smooth="yes"/>
      <point x="139.335" y="193.305" type="line" smooth="yes"/>
      <point x="139.335" y="220.172"/>
      <point x="115.768" y="244.039"/>
      <point x="94.3349" y="244.039" type="qcurve" smooth="yes"/>
      <point x="59.9014" y="244.039" type="line"/>
      <point x="59.9014" y="304.394" type="line"/>
      <point x="94.3349" y="304.394" type="line" smooth="yes"/>
      <point x="115.768" y="304.394"/>
      <point x="139.335" y="328.394"/>
      <point x="139.335" y="354.695" type="qcurve" smooth="yes"/>
      <point x="139.335" y="609.409" type="line" smooth="yes"/>
      <point x="139.335" y="676.005"/>
      <point x="208.197" y="742"/>
      <point x="275.493" y="742" type="qcurve" smooth="yes"/>
      <point x="312.956" y="742" type="line"/>
      <point x="312.956" y="682.778" type="line"/>
      <point x="286.055" y="682.778" type="line" smooth="yes"/>
      <point x="247.754" y="682.778"/>
      <point x="210.321" y="641.477"/>
      <point x="210.321" y="603.177" type="qcurve" smooth="yes"/>
      <point x="210.321" y="355.828" type="line" smooth="yes"/>
      <point x="210.321" y="326.197"/>
      <point x="196.089" y="291.567"/>
      <point x="167.059" y="274.167"/>
      <point x="143.862" y="269.167" type="qcurve"/>
      <point x="143.862" y="278.833" type="line"/>
      <point x="167.059" y="274.833"/>
      <point x="196.089" y="256.433"/>
      <point x="210.321" y="221.803"/>
      <point x="210.321" y="192.172" type="qcurve" smooth="yes"/>
      <point x="210.321" y="-55.177" type="line" smooth="yes"/>
      <point x="210.321" y="-93.4775"/>
      <point x="247.754" y="-134.778"/>
      <point x="286.055" y="-134.778" type="qcurve" smooth="yes"/>
      <point x="312.956" y="-134.778" type="line"/>
      <point x="312.956" y="-194" type="line"/>
    </contour>
  </outline>
</glyph>
<glyph name="bar" format="2">
  <advance width="294"/>
  <unicode hex="007C"/>
  <outline>
    <contour>
      <point x="114.305" y="-194" type="line"/>
      <point x="114.305" y="742" type="line"/>
      <point x="180.192" y="742" type="line"/>
      <point x="180.192" y="-194" type="line"/>
    </contour>
  </outline>
</glyph>
<glyph name="braceright" format="2">
  <advance width="334"/>
  <unicode hex="007D"/>
  <outline>
    <contour>
      <point x="58.4976" y="-194" type="qcurve" smooth="yes"/>
      <point x="21.0344" y="-194" type="line"/>
      <point x="21.0344" y="-134.778" type="line"/>
      <point x="47.9359" y="-134.778" type="line" smooth="yes"/>
      <point x="87.2364" y="-134.778"/>
      <point x="124.236" y="-93.4775"/>
      <point x="124.236" y="-55.177" type="qcurve" smooth="yes"/>
      <point x="124.236" y="192.172" type="line" smooth="yes"/>
      <point x="124.236" y="221.803"/>
      <point x="138.468" y="256.433"/>
      <point x="167.931" y="274.833"/>
      <point x="190.128" y="278.833" type="qcurve"/>
      <point x="190.128" y="269.167" type="line"/>
      <point x="167.931" y="274.167"/>
      <point x="138.468" y="291.567"/>
      <point x="124.236" y="326.197"/>
      <point x="124.236" y="355.828" type="qcurve" smooth="yes"/>
      <point x="124.236" y="603.177" type="line" smooth="yes"/>
      <point x="124.236" y="641.477"/>
      <point x="87.2364" y="682.778"/>
      <point x="47.9359" y="682.778" type="qcurve" smooth="yes"/>
      <point x="21.0344" y="682.778" type="line"/>
      <point x="21.0344" y="742" type="line"/>
      <point x="58.4976" y="742" type="line" smooth="yes"/>
      <point x="126.36" y="742"/>
      <point x="195.222" y="676.005"/>
      <point x="195.222" y="609.409" type="qcurve" smooth="yes"/>
      <point x="195.222" y="354.695" type="line" smooth="yes"/>
      <point x="195.222" y="328.394"/>
      <point x="218.789" y="304.394"/>
      <point x="239.656" y="304.394" type="qcurve" smooth="yes"/>
      <point x="274.089" y="304.394" type="line"/>
      <point x="274.089" y="244.039" type="line"/>
      <point x="239.656" y="244.039" type="line" smooth="yes"/>
      <point x="218.789" y="244.039"/>
      <point x="195.222" y="220.172"/>
      <point x="195.222" y="193.305" type="qcurve" smooth="yes"/>
      <point x="195.222" y="-61.4086" type="line" smooth="yes"/>
      <point x="195.222" y="-127.005"/>
      <point x="126.36" y="-194"/>
    </contour>
  </outline>
</glyph>
<glyph name="asciitilde" format="2">
  <advance width="575"/>
  <unicode hex="007E"/>
  <outline>
    <contour>
      <point x="388.798" y="271.837" type="qcurve" smooth="yes"/>
      <point x="352.798" y="271.837"/>
      <point x="299.966" y="302.571"/>
      <point x="256.266" y="342.606"/>
      <point x="214.099" y="373.34"/>
      <point x="188.197" y="373.34" type="qcurve" smooth="yes"/>
      <point x="152.862" y="373.34"/>
      <point x="111.66" y="321.571"/>
      <point x="109.66" y="277.67" type="qcurve"/>
      <point x="61.6354" y="277.67" type="line"/>
      <point x="64.0689" y="353.099"/>
      <point x="133.133" y="428.729"/>
      <point x="185.931" y="428.729" type="qcurve" smooth="yes"/>
      <point x="221.931" y="428.729"/>
      <point x="274.764" y="397.995"/>
      <point x="318.463" y="357.961"/>
      <point x="360.631" y="327.227"/>
      <point x="386.532" y="327.227" type="qcurve" smooth="yes"/>
      <point x="422.433" y="327.227"/>
      <point x="463.635" y="379.562"/>
      <point x="465.069" y="423.463" type="qcurve"/>
      <point x="513.094" y="423.463" type="line"/>
      <point x="510.66" y="348.468"/>
      <point x="442.596" y="271.837"/>
    </contour>
  </outline>
</glyph>
<glyph name="exclamdown" format="2">
  <advance width="260"/>
  <unicode hex="00A1"/>
  <outline>
    <contour>
      <point x="157.458" y="315.404" type="line"/>
      <point x="171.656" y="-154" type="line"/>
      <point x="88.4727" y="-154" type="line"/>
      <point x="102.103" y="315.404" type="line"/>
    </contour>
    <contour>
      <point x="130.064" y="530.197" type="qcurve" smooth="yes"/>
      <point x="152.961" y="530.197"/>
      <point x="182.123" y="499.901"/>
      <point x="182.123" y="478.138" type="qcurve" smooth="yes"/>
      <point x="182.123" y="457.374"/>
      <point x="152.961" y="427.211"/>
      <point x="130.064" y="427.211" type="qcurve" smooth="yes"/>
      <point x="108.167" y="427.211"/>
      <point x="77.4383" y="457.374"/>
      <point x="77.4383" y="478.138" type="qcurve" smooth="yes"/>
      <point x="77.4383" y="499.901"/>
      <point x="108.167" y="530.197"/>
    </contour>
  </outline>
</glyph>
<glyph name="cent" format="2">
  <advance width="563"/>
  <unicode hex="00A2"/>
  <outline>
    <contour>
      <point x="285.635" y="-120" type="line"/>
      <point x="285.635" y="645.498" type="line"/>
      <point x="334.66" y="645.498" type="line"/>
      <point x="334.66" y="-120" type="line"/>
    </contour>
    <contour>
      <point x="317.064" y="-4.69952" type="qcurve" smooth="yes"/>
      <point x="238.966" y="-4.69952"/>
      <point x="116.034" y="64"/>
      <point x="46.0689" y="184.833"/>
      <point x="46.0689" y="262.966" type="qcurve" smooth="yes"/>
      <point x="46.0689" y="341.665"/>
      <point x="116.034" y="461.931"/>
      <point x="238.966" y="530.197"/>
      <point x="317.064" y="530.197" type="qcurve" smooth="yes"/>
      <point x="383.828" y="530.197"/>
      <point x="491.591" y="478"/>
      <point x="523.458" y="426.369" type="qcurve"/>
      <point x="469.803" y="390.409" type="line"/>
      <point x="442.635" y="429.709"/>
      <point x="362.833" y="467.576"/>
      <point x="316.498" y="467.576" type="qcurve" smooth="yes"/>
      <point x="259.695" y="467.576"/>
      <point x="169.557" y="416.773"/>
      <point x="117.621" y="324.768"/>
      <point x="117.621" y="262.966" type="qcurve" smooth="yes"/>
      <point x="117.621" y="201.163"/>
      <point x="169.557" y="109.158"/>
      <point x="259.695" y="57.9215"/>
      <point x="316.498" y="57.9215" type="qcurve" smooth="yes"/>
      <point x="362.833" y="57.9215"/>
      <point x="442.635" y="95.6555"/>
      <point x="469.803" y="135.089" type="qcurve"/>
      <point x="523.458" y="99.1282" type="line"/>
      <point x="491.591" y="48.0641"/>
      <point x="383.828" y="-4.69952"/>
    </contour>
  </outline>
</glyph>
<glyph name="currency" format="2">
  <advance width="700"/>
  <unicode hex="00A4"/>
  <outline>
    <contour>
      <point x="150.502" y="473.039" type="line"/>
      <point x="33.9014" y="590.074" type="line"/>
      <point x="75.0938" y="634.665" type="line"/>
      <point x="192.695" y="517.631" type="line"/>
    </contour>
    <contour>
      <point x="75.0938" y="0.334926" type="line"/>
      <point x="33.9014" y="44.9263" type="line"/>
      <point x="150.502" y="161.961" type="line"/>
      <point x="192.695" y="117.369" type="line"/>
    </contour>
    <contour>
      <point x="624.34" y="0.334926" type="line"/>
      <point x="506.739" y="117.369" type="line"/>
      <point x="548.931" y="161.961" type="line"/>
      <point x="666.099" y="44.9263" type="line"/>
    </contour>
    <contour>
      <point x="548.931" y="473.039" type="line"/>
      <point x="506.739" y="517.631" type="line"/>
      <point x="624.34" y="634.665" type="line"/>
      <point x="666.099" y="590.074" type="line"/>
    </contour>
    <contour>
      <point x="350" y="52.2316" type="qcurve" smooth="yes"/>
      <point x="293.7" y="52.2316"/>
      <point x="194.399" y="93.6651"/>
      <point x="119.099" y="166.966"/>
      <point x="76.2316" y="263.266"/>
      <point x="76.2316" y="317.7" type="qcurve" smooth="yes"/>
      <point x="76.2316" y="373.133"/>
      <point x="119.099" y="469.867"/>
      <point x="194.399" y="543.734"/>
      <point x="293.7" y="585.601"/>
      <point x="350" y="585.601" type="qcurve" smooth="yes"/>
      <point x="407.3" y="585.601"/>
      <point x="507.034" y="543.734"/>
      <point x="582.768" y="469.867"/>
      <point x="625.635" y="373.133"/>
      <point x="625.635" y="317.7" type="qcurve" smooth="yes"/>
      <point x="625.635" y="263.266"/>
      <point x="582.768" y="166.966"/>
      <point x="507.034" y="93.6651"/>
      <point x="407.3" y="52.2316"/>
    </contour>
    <contour>
      <point x="350" y="111.887" type="qcurve" smooth="yes"/>
      <point x="409.97" y="111.887"/>
      <point x="508.01" y="167.99"/>
      <point x="567.113" y="261.163"/>
      <point x="567.113" y="317.7" type="qcurve" smooth="yes"/>
      <point x="567.113" y="375.236"/>
      <point x="508.01" y="469.409"/>
      <point x="409.97" y="525.945"/>
      <point x="350" y="525.945" type="qcurve" smooth="yes"/>
      <point x="291.463" y="525.945"/>
      <point x="193.424" y="469.409"/>
      <point x="135.321" y="375.236"/>
      <point x="135.321" y="317.7" type="qcurve" smooth="yes"/>
      <point x="135.321" y="261.163"/>
      <point x="193.424" y="167.99"/>
      <point x="291.463" y="111.887"/>
    </contour>
  </outline>
</glyph>
<glyph name="yen" format="2">
  <advance width="695"/>
  <unicode hex="00A5"/>
  <outline>
    <contour>
      <point x="310.837" y="0" type="line"/>
      <point x="310.837" y="304.133" type="line"/>
      <point x="327.734" y="254.576" type="line"/>
      <point x="0.935882" y="700" type="line"/>
      <point x="79.4536" y="700" type="line"/>
      <point x="370.158" y="305.601" type="line"/>
      <point x="327.034" y="305.601" type="line"/>
      <point x="618.305" y="700" type="line"/>
      <point x="693.99" y="700" type="line"/>
      <point x="367.192" y="254.576" type="line"/>
      <point x="384.089" y="304.133" type="line"/>
      <point x="384.089" y="0" type="line"/>
    </contour>
    <contour>
      <point x="90.6651" y="130.374" type="line"/>
      <point x="90.6651" y="174.433" type="line"/>
      <point x="604.261" y="174.433" type="line"/>
      <point x="604.261" y="130.374" type="line"/>
    </contour>
    <contour>
      <point x="90.6651" y="268.374" type="line"/>
      <point x="90.6651" y="312.433" type="line"/>
      <point x="604.261" y="312.433" type="line"/>
      <point x="604.261" y="268.374" type="line"/>
    </contour>
  </outline>
</glyph>
<glyph name="brokenbar" format="2">
  <advance width="294"/>
  <unicode hex="00A6"/>
  <outline>
    <contour>
      <point x="114.305" y="392" type="line"/>
      <point x="114.305" y="742" type="line"/>
      <point x="180.192" y="742" type="line"/>
      <point x="180.192" y="392" type="line"/>
    </contour>
    <contour>
      <point x="114.305" y="-194" type="line"/>
      <point x="114.305" y="156" type="line"/>
      <point x="180.192" y="156" type="line"/>
      <point x="180.192" y="-194" type="line"/>
    </contour>
  </outline>
</glyph>
<glyph name="section" format="2">
  <advance width="490"/>
  <unicode hex="00A7"/>
  <outline>
    <contour>
      <point x="340.493" y="147.433" type="qcurve"/>
      <point x="288.433" y="184.793" type="line"/>
      <point x="331.635" y="191.793"/>
      <point x="391.172" y="244.296"/>
      <point x="391.172" y="287.532" type="qcurve" smooth="yes"/>
      <point x="391.172" y="320.3"/>
      <point x="355.305" y="359.803"/>
      <point x="296.571" y="382.704"/>
      <point x="226.404" y="400.005"/>
      <point x="156.67" y="420.005"/>
      <point x="97.9359" y="451.704"/>
      <point x="62.0689" y="505.837"/>
      <point x="62.0689" y="548.97" type="qcurve" smooth="yes"/>
      <point x="62.0689" y="597.236"/>
      <point x="113.734" y="666.601"/>
      <point x="211.064" y="704.7"/>
      <point x="278.862" y="704.7" type="qcurve" smooth="yes"/>
      <point x="310.296" y="704.7"/>
      <point x="378.261" y="692.833"/>
      <point x="438.926" y="669.966"/>
      <point x="459.493" y="653.966" type="qcurve"/>
      <point x="435.03" y="600.01" type="line"/>
      <point x="401.197" y="624.443"/>
      <point x="318.33" y="647.177"/>
      <point x="274.33" y="647.177" type="qcurve" smooth="yes"/>
      <point x="202.094" y="647.177"/>
      <point x="126.256" y="598.507"/>
      <point x="126.256" y="551.236" type="qcurve" smooth="yes"/>
      <point x="126.256" y="520.167"/>
      <point x="161.557" y="482.665"/>
      <point x="219.857" y="460.764"/>
      <point x="290.025" y="443.463"/>
      <point x="360.192" y="423.33"/>
      <point x="418.493" y="389.064"/>
      <point x="453.793" y="332.665"/>
      <point x="453.793" y="288.099" type="qcurve" smooth="yes"/>
      <point x="453.793" y="236.665"/>
      <point x="389.493" y="162.266"/>
    </contour>
    <contour>
      <point x="229.665" y="-104.7" type="qcurve" smooth="yes"/>
      <point x="191.532" y="-104.7"/>
      <point x="113.567" y="-87.8325"/>
      <point x="48.601" y="-57.6651"/>
      <point x="28.0344" y="-38.7981" type="qcurve"/>
      <point x="52.4976" y="15.7244" type="line"/>
      <point x="82.7636" y="-10.1426"/>
      <point x="179.764" y="-47.177"/>
      <point x="231.931" y="-47.177" type="qcurve" smooth="yes"/>
      <point x="295.335" y="-47.177"/>
      <point x="367.305" y="1.92632"/>
      <point x="367.305" y="48.7636" type="qcurve" smooth="yes"/>
      <point x="367.305" y="80.9656"/>
      <point x="331.438" y="118.468"/>
      <point x="273.704" y="140.936"/>
      <point x="203.537" y="157.67"/>
      <point x="132.803" y="177.236"/>
      <point x="75.0689" y="210.369"/>
      <point x="39.2019" y="266.069"/>
      <point x="39.2019" y="309.635" type="qcurve" smooth="yes"/>
      <point x="39.2019" y="364.335"/>
      <point x="103.502" y="437.3"/>
      <point x="152.069" y="452.133" type="qcurve"/>
      <point x="202.128" y="414.773" type="line"/>
      <point x="159.926" y="407.773"/>
      <point x="101.823" y="355.837"/>
      <point x="101.823" y="313.034" type="qcurve" smooth="yes"/>
      <point x="101.823" y="280.266"/>
      <point x="137.69" y="240.764"/>
      <point x="196.424" y="216.862"/>
      <point x="267.158" y="200.562"/>
      <point x="336.892" y="180.562"/>
      <point x="395.626" y="147.862"/>
      <point x="431.493" y="93.1627"/>
      <point x="431.493" y="49.5962" type="qcurve" smooth="yes"/>
      <point x="431.493" y="2.76364"/>
      <point x="381.394" y="-67.0344"/>
      <point x="290.764" y="-104.7"/>
    </contour>
  </outline>
</glyph>
<glyph name="copyright" format="2">
  <advance width="809"/>
  <unicode hex="00A9"/>
  <outline>
    <contour>
      <point x="403.635" y="-3" type="qcurve" smooth="yes"/>
      <point x="328.635" y="-3"/>
      <point x="200.635" y="51"/>
      <point x="104.635" y="148"/>
      <point x="51.6354" y="276"/>
      <point x="51.6354" y="350" type="qcurve" smooth="yes"/>
      <point x="51.6354" y="424"/>
      <point x="105.635" y="552"/>
      <point x="201.635" y="649"/>
      <point x="330.635" y="703"/>
      <point x="405.635" y="703" type="qcurve" smooth="yes"/>
      <point x="480.635" y="703"/>
      <point x="609.635" y="650"/>
      <point x="704.635" y="554"/>
      <point x="757.635" y="427"/>
      <point x="757.635" y="352" type="qcurve" smooth="yes"/>
      <point x="757.635" y="277"/>
      <point x="703.635" y="148"/>
      <point x="606.635" y="51"/>
      <point x="478.635" y="-3"/>
    </contour>
    <contour>
      <point x="403.635" y="33.5617" type="qcurve" smooth="yes"/>
      <point x="470.67" y="33.5617"/>
      <point x="585.438" y="82.7292"/>
      <point x="671.773" y="169.197"/>
      <point x="719.941" y="285.399"/>
      <point x="719.941" y="352" type="qcurve" smooth="yes"/>
      <point x="719.941" y="419.034"/>
      <point x="672.773" y="533.369"/>
      <point x="587.872" y="618.704"/>
      <point x="473.236" y="666.438"/>
      <point x="405.635" y="666.438" type="qcurve" smooth="yes"/>
      <point x="338.034" y="666.438"/>
      <point x="222.266" y="618.271"/>
      <point x="136.931" y="531.369"/>
      <point x="89.3301" y="416.601"/>
      <point x="89.3301" y="350" type="qcurve" smooth="yes"/>
      <point x="89.3301" y="283.399"/>
      <point x="136.931" y="168.631"/>
      <point x="221.833" y="81.7292"/>
      <point x="337.034" y="33.5617"/>
    </contour>
    <contour>
      <point x="413.335" y="142.399" type="qcurve" smooth="yes"/>
      <point x="353.202" y="142.399"/>
      <point x="258.502" y="195.266"/>
      <point x="204.936" y="289.133"/>
      <point x="204.936" y="350" type="qcurve" smooth="yes"/>
      <point x="204.936" y="410.867"/>
      <point x="258.502" y="504.734"/>
      <point x="353.202" y="557.601"/>
      <point x="413.335" y="557.601" type="qcurve" smooth="yes"/>
      <point x="464" y="557.601"/>
      <point x="546.966" y="517.369"/>
      <point x="571.7" y="481.103" type="qcurve"/>
      <point x="528.941" y="448.542" type="line"/>
      <point x="508.34" y="477.709"/>
      <point x="447.67" y="505.744"/>
      <point x="412.335" y="505.744" type="qcurve" smooth="yes"/>
      <point x="369.532" y="505.744"/>
      <point x="301.828" y="466.808"/>
      <point x="262.325" y="396.803"/>
      <point x="262.325" y="350" type="qcurve" smooth="yes"/>
      <point x="262.325" y="303.197"/>
      <point x="301.828" y="233.192"/>
      <point x="369.532" y="194.256"/>
      <point x="412.335" y="194.256" type="qcurve" smooth="yes"/>
      <point x="447.67" y="194.256"/>
      <point x="508.34" y="222.291"/>
      <point x="528.941" y="251.458" type="qcurve"/>
      <point x="571.7" y="220.03" type="line"/>
      <point x="546.966" y="183.197"/>
      <point x="464" y="142.399"/>
    </contour>
  </outline>
</glyph>
<glyph name="ordfeminine" format="2">
  <advance width="401"/>
  <unicode hex="00AA"/>
  <outline>
    <contour>
      <point x="281.103" y="430.034" type="line"/>
      <point x="281.103" y="498.069" type="line"/>
      <point x="277.271" y="509.202" type="line"/>
      <point x="277.271" y="623.936" type="line" smooth="yes"/>
      <point x="277.271" y="665.271"/>
      <point x="230.936" y="704.473"/>
      <point x="185.034" y="704.473" type="qcurve" smooth="yes"/>
      <point x="152" y="704.473"/>
      <point x="92.6995" y="684.739"/>
      <point x="71.8325" y="667.438" type="qcurve"/>
      <point x="51.0689" y="702.399" type="line"/>
      <point x="76.2019" y="722.399"/>
      <point x="151.433" y="746.266"/>
      <point x="189.567" y="746.266" type="qcurve" smooth="yes"/>
      <point x="257.631" y="746.266"/>
      <point x="330.128" y="684.601"/>
      <point x="330.128" y="622.236" type="qcurve" smooth="yes"/>
      <point x="330.128" y="430.034" type="line"/>
    </contour>
    <contour>
      <point x="164.167" y="426.901" type="qcurve" smooth="yes"/>
      <point x="104.202" y="426.901"/>
      <point x="41.0689" y="478.867"/>
      <point x="41.0689" y="518.433" type="qcurve" smooth="yes"/>
      <point x="41.0689" y="556.399"/>
      <point x="101.3" y="607.665"/>
      <point x="171.7" y="607.665" type="qcurve" smooth="yes"/>
      <point x="286.97" y="607.665" type="line"/>
      <point x="286.97" y="573.404" type="line"/>
      <point x="177.931" y="573.404" type="line" smooth="yes"/>
      <point x="131.429" y="573.404"/>
      <point x="91.2268" y="544.468"/>
      <point x="91.2268" y="520.567" type="qcurve" smooth="yes"/>
      <point x="91.2268" y="493.798"/>
      <point x="135.163" y="464.429"/>
      <point x="174.532" y="464.429" type="qcurve" smooth="yes"/>
      <point x="213.601" y="464.429"/>
      <point x="264.103" y="494.365"/>
      <point x="277.271" y="521.867" type="qcurve"/>
      <point x="287.103" y="489.773" type="line"/>
      <point x="275.803" y="462.404"/>
      <point x="212.768" y="426.901"/>
    </contour>
  </outline>
</glyph>
<glyph name="logicalnot" format="2">
  <advance width="575"/>
  <unicode hex="00AC"/>
  <outline>
    <contour>
      <point x="504.828" y="379.961" type="line"/>
      <point x="504.828" y="141.438" type="line"/>
      <point x="441.773" y="141.438" type="line"/>
      <point x="441.773" y="320.739" type="line"/>
      <point x="69.9014" y="320.739" type="line"/>
      <point x="69.9014" y="379.961" type="line"/>
    </contour>
  </outline>
</glyph>
<glyph name="registered" format="2">
  <advance width="809"/>
  <unicode hex="00AE"/>
  <outline>
    <contour>
      <point x="403.635" y="-3" type="qcurve" smooth="yes"/>
      <point x="328.635" y="-3"/>
      <point x="200.635" y="51"/>
      <point x="104.635" y="148"/>
      <point x="51.6354" y="276"/>
      <point x="51.6354" y="350" type="qcurve" smooth="yes"/>
      <point x="51.6354" y="424"/>
      <point x="105.635" y="552"/>
      <point x="201.635" y="649"/>
      <point x="330.635" y="703"/>
      <point x="405.635" y="703" type="qcurve" smooth="yes"/>
      <point x="480.635" y="703"/>
      <point x="609.635" y="650"/>
      <point x="704.635" y="554"/>
      <point x="757.635" y="427"/>
      <point x="757.635" y="352" type="qcurve" smooth="yes"/>
      <point x="757.635" y="277"/>
      <point x="703.635" y="148"/>
      <point x="606.635" y="51"/>
      <point x="478.635" y="-3"/>
    </contour>
    <contour>
      <point x="533.108" y="147.665" type="line"/>
      <point x="431.507" y="304" type="line"/>
      <point x="485.532" y="304" type="line"/>
      <point x="587.133" y="147.665" type="line"/>
    </contour>
    <contour>
      <point x="403.635" y="33.5617" type="qcurve" smooth="yes"/>
      <point x="470.67" y="33.5617"/>
      <point x="585.438" y="82.7292"/>
      <point x="671.773" y="169.197"/>
      <point x="719.941" y="285.399"/>
      <point x="719.941" y="352" type="qcurve" smooth="yes"/>
      <point x="719.941" y="419.034"/>
      <point x="672.773" y="533.369"/>
      <point x="587.872" y="618.704"/>
      <point x="473.236" y="666.438"/>
      <point x="405.635" y="666.438" type="qcurve" smooth="yes"/>
      <point x="338.034" y="666.438"/>
      <point x="222.266" y="618.271"/>
      <point x="136.931" y="531.369"/>
      <point x="89.3301" y="416.601"/>
      <point x="89.3301" y="350" type="qcurve" smooth="yes"/>
      <point x="89.3301" y="283.399"/>
      <point x="136.931" y="168.631"/>
      <point x="221.833" y="81.7292"/>
      <point x="337.034" y="33.5617"/>
    </contour>
    <contour>
      <point x="266.571" y="147.665" type="line"/>
      <point x="266.571" y="552.335" type="line"/>
      <point x="423.369" y="552.335" type="line" smooth="yes"/>
      <point x="497.768" y="552.335"/>
      <point x="582.601" y="479.202"/>
      <point x="582.601" y="417.635" type="qcurve" smooth="yes"/>
      <point x="582.601" y="354.369"/>
      <point x="497.768" y="282.369"/>
      <point x="423.369" y="282.369" type="qcurve" smooth="yes"/>
      <point x="318.862" y="282.369" type="line"/>
      <point x="318.862" y="147.665" type="line"/>
    </contour>
    <contour>
      <point x="317.862" y="326.296" type="line"/>
      <point x="419.67" y="326.296" type="line" smooth="yes"/>
      <point x="472.906" y="326.296"/>
      <point x="532.01" y="374.399"/>
      <point x="532.01" y="417.635" type="qcurve" smooth="yes"/>
      <point x="532.01" y="460.872"/>
      <point x="472.906" y="508.409"/>
      <point x="419.67" y="508.409" type="qcurve" smooth="yes"/>
      <point x="317.862" y="508.409" type="line"/>
    </contour>
  </outline>
</glyph>
<glyph name="degree" format="2">
  <advance width="419"/>
  <unicode hex="00B0"/>
  <outline>
    <contour>
      <point x="209.433" y="388.271" type="qcurve" smooth="yes"/>
      <point x="165.034" y="388.271"/>
      <point x="92.0689" y="430.537"/>
      <point x="49.8029" y="502.502"/>
      <point x="49.8029" y="546.768" type="qcurve" smooth="yes"/>
      <point x="49.8029" y="591.034"/>
      <point x="92.0689" y="663"/>
      <point x="165.034" y="705.266"/>
      <point x="209.433" y="705.266" type="qcurve" smooth="yes"/>
      <point x="254.266" y="705.266"/>
      <point x="326.798" y="663"/>
      <point x="369.064" y="591.034"/>
      <point x="369.064" y="546.768" type="qcurve" smooth="yes"/>
      <point x="369.064" y="502.502"/>
      <point x="326.798" y="430.537"/>
      <point x="254.266" y="388.271"/>
    </contour>
    <contour>
      <point x="209.433" y="430.064" type="qcurve" smooth="yes"/>
      <point x="242.468" y="430.064"/>
      <point x="294.67" y="461.532"/>
      <point x="325.138" y="514.167"/>
      <point x="325.138" y="546.768" type="qcurve" smooth="yes"/>
      <point x="325.138" y="579.803"/>
      <point x="294.67" y="632.571"/>
      <point x="242.468" y="663.473"/>
      <point x="209.433" y="663.473" type="qcurve" smooth="yes"/>
      <point x="176.966" y="663.473"/>
      <point x="124.197" y="632.571"/>
      <point x="93.7292" y="580.369"/>
      <point x="93.7292" y="546.768" type="qcurve" smooth="yes"/>
      <point x="93.7292" y="513.601"/>
      <point x="124.197" y="460.966"/>
      <point x="176.966" y="430.064"/>
    </contour>
  </outline>
</glyph>
<glyph name="plusminus" format="2">
  <advance width="575"/>
  <unicode hex="00B1"/>
  <outline>
    <contour>
      <point x="69.9014" y="0" type="line"/>
      <point x="69.9014" y="59.222" type="line"/>
      <point x="504.828" y="59.222" type="line"/>
      <point x="504.828" y="0" type="line"/>
    </contour>
    <contour>
      <point x="255.837" y="173.227" type="line"/>
      <point x="255.837" y="591.355" type="line"/>
      <point x="318.892" y="591.355" type="line"/>
      <point x="318.892" y="173.227" type="line"/>
    </contour>
    <contour>
      <point x="69.9014" y="352.463" type="line"/>
      <point x="69.9014" y="411.685" type="line"/>
      <point x="504.828" y="411.685" type="line"/>
      <point x="504.828" y="352.463" type="line"/>
    </contour>
  </outline>
</glyph>
<glyph name="paragraph" format="2">
  <advance width="632"/>
  <unicode hex="00B6"/>
  <outline>
    <contour>
      <point x="226.133" y="-100" type="line"/>
      <point x="226.133" y="395.207" type="line"/>
      <point x="165.567" y="395.773"/>
      <point x="73.3005" y="438.606"/>
      <point x="21.0344" y="516.704"/>
      <point x="21.0344" y="569.103" type="qcurve" smooth="yes"/>
      <point x="21.0344" y="622.502"/>
      <point x="74.4335" y="700.167"/>
      <point x="171.232" y="742"/>
      <point x="235.764" y="742" type="qcurve" smooth="yes"/>
      <point x="517.986" y="742" type="line"/>
      <point x="517.986" y="-100" type="line"/>
      <point x="457.764" y="-100" type="line"/>
      <point x="457.764" y="685.611" type="line"/>
      <point x="286.355" y="685.611" type="line"/>
      <point x="286.355" y="-100" type="line"/>
    </contour>
  </outline>
</glyph>
<glyph name="periodcentered" format="2">
  <advance width="252"/>
  <unicode hex="00B7"/>
  <outline>
    <contour>
      <point x="126.296" y="216.473" type="qcurve" smooth="yes"/>
      <point x="104.399" y="216.473"/>
      <point x="72.5368" y="247.768"/>
      <point x="72.5368" y="271.365" type="qcurve" smooth="yes"/>
      <point x="72.5368" y="295.394"/>
      <point x="104.399" y="325.69"/>
      <point x="126.296" y="325.69" type="qcurve" smooth="yes"/>
      <point x="149.192" y="325.69"/>
      <point x="179.488" y="295.394"/>
      <point x="179.488" y="271.365" type="qcurve" smooth="yes"/>
      <point x="179.488" y="247.768"/>
      <point x="149.192" y="216.473"/>
    </contour>
  </outline>
</glyph>
<glyph name="ordmasculine" format="2">
  <advance width="414"/>
  <unicode hex="00BA"/>
  <outline>
    <contour>
      <point x="207.532" y="426.901" type="qcurve" smooth="yes"/>
      <point x="157.133" y="426.901"/>
      <point x="79.1675" y="468.034"/>
      <point x="34.3349" y="540.734"/>
      <point x="34.3349" y="586.867" type="qcurve" smooth="yes"/>
      <point x="34.3349" y="633.433"/>
      <point x="79.1675" y="705.133"/>
      <point x="157.133" y="746.266"/>
      <point x="206.966" y="746.266" type="qcurve" smooth="yes"/>
      <point x="257.365" y="746.266"/>
      <point x="335.33" y="705.133"/>
      <point x="379.596" y="633.433"/>
      <point x="379.596" y="586.867" type="qcurve" smooth="yes"/>
      <point x="379.596" y="540.734"/>
      <point x="335.33" y="468.034"/>
      <point x="257.365" y="426.901"/>
    </contour>
    <contour>
      <point x="206.966" y="471.527" type="qcurve" smooth="yes"/>
      <point x="260.468" y="471.527"/>
      <point x="328.305" y="536.064"/>
      <point x="328.305" y="586.867" type="qcurve" smooth="yes"/>
      <point x="328.305" y="638.67"/>
      <point x="260.468" y="701.64"/>
      <point x="206.966" y="701.64" type="qcurve" smooth="yes"/>
      <point x="154.463" y="701.64"/>
      <point x="85.6258" y="638.67"/>
      <point x="85.6258" y="586.867" type="qcurve" smooth="yes"/>
      <point x="85.6258" y="536.064"/>
      <point x="154.463" y="471.527"/>
    </contour>
  </outline>
</glyph>
<glyph name="questiondown" format="2">
  <advance width="567"/>
  <unicode hex="00BF"/>
  <outline>
    <contour>
      <point x="305.133" y="-160.399" type="qcurve" smooth="yes"/>
      <point x="235.167" y="-160.399"/>
      <point x="131.803" y="-117.833"/>
      <point x="75.4038" y="-42.3005"/>
      <point x="75.4038" y="7.79809" type="qcurve" smooth="yes"/>
      <point x="75.4038" y="48.6651"/>
      <point x="101.704" y="107.532"/>
      <point x="143.872" y="152.399"/>
      <point x="189.473" y="191.266"/>
      <point x="231.64" y="231.3"/>
      <point x="257.941" y="281.069"/>
      <point x="257.941" y="315.404" type="qcurve"/>
      <point x="331.759" y="315.404" type="line"/>
      <point x="331.759" y="275.803"/>
      <point x="305.458" y="218.635"/>
      <point x="263.857" y="173.768"/>
      <point x="217.123" y="134.901"/>
      <point x="175.523" y="95.3005"/>
      <point x="149.222" y="47.2316"/>
      <point x="149.222" y="15.5962" type="qcurve" smooth="yes"/>
      <point x="149.222" y="-31.0737"/>
      <point x="233.36" y="-97.2115"/>
      <point x="309.665" y="-97.2115" type="qcurve" smooth="yes"/>
      <point x="374.3" y="-97.2115"/>
      <point x="468.404" y="-55.778"/>
      <point x="500.739" y="-16.177" type="qcurve"/>
      <point x="554.394" y="-55.6699" type="line"/>
      <point x="513.695" y="-105.468"/>
      <point x="388.931" y="-160.399"/>
    </contour>
    <contour>
      <point x="294.567" y="427.211" type="qcurve" smooth="yes"/>
      <point x="272.67" y="427.211"/>
      <point x="242.507" y="457.374"/>
      <point x="242.507" y="478.138" type="qcurve" smooth="yes"/>
      <point x="242.507" y="499.901"/>
      <point x="272.67" y="530.197"/>
      <point x="294.567" y="530.197" type="qcurve" smooth="yes"/>
      <point x="317.463" y="530.197"/>
      <point x="346.626" y="499.901"/>
      <point x="346.626" y="478.138" type="qcurve" smooth="yes"/>
      <point x="346.626" y="457.374"/>
      <point x="317.463" y="427.211"/>
    </contour>
  </outline>
</glyph>
<glyph name="AE" format="2">
  <advance width="1033"/>
  <unicode hex="00C6"/>
  <anchor x="680" y="700" name="t.uni0308"/>
  <anchor x="680" y="0" name="b.uni0324_3"/>
  <outline>
    <contour>
      <point x="2.20191" y="0" type="line"/>
      <point x="428.507" y="700" type="line"/>
      <point x="502.192" y="700" type="line"/>
      <point x="502.192" y="635.679" type="line"/>
      <point x="436.005" y="635.679" type="line"/>
      <point x="481.729" y="666.305" type="line"/>
      <point x="79.0201" y="0" type="line"/>
    </contour>
    <contour>
      <point x="169.429" y="186.64" type="line"/>
      <point x="176.596" y="246.995" type="line"/>
      <point x="502.192" y="246.995" type="line"/>
      <point x="502.192" y="186.64" type="line"/>
    </contour>
    <contour>
      <point x="544.483" y="387.094" type="line"/>
      <point x="914.523" y="387.094" type="line"/>
      <point x="914.523" y="323.906" type="line"/>
      <point x="543.917" y="323.906" type="line"/>
    </contour>
    <contour>
      <point x="551.749" y="64.3206" type="line"/>
      <point x="972.823" y="64.3206" type="line"/>
      <point x="972.823" y="0" type="line"/>
      <point x="478.498" y="0" type="line"/>
      <point x="478.498" y="700" type="line"/>
      <point x="958.389" y="700" type="line"/>
      <point x="958.389" y="635.679" type="line"/>
      <point x="551.749" y="635.679" type="line"/>
    </contour>
  </outline>
</glyph>
<glyph name="multiply" format="2">
  <advance width="575"/>
  <unicode hex="00D7"/>
  <outline>
    <contour>
      <point x="113.837" y="217.099" type="line"/>
      <point x="420.833" y="526.36" type="line"/>
      <point x="461.458" y="482.901" type="line"/>
      <point x="153.897" y="173.64" type="line"/>
    </contour>
    <contour>
      <point x="113.837" y="482.901" type="line"/>
      <point x="153.897" y="526.36" type="line"/>
      <point x="461.458" y="217.099" type="line"/>
      <point x="420.833" y="173.64" type="line"/>
    </contour>
  </outline>
</glyph>
<glyph name="Thorn" format="2">
  <advance width="718"/>
  <unicode hex="00DE"/>
  <outline>
    <contour>
      <point x="168.926" y="129.369" type="line"/>
      <point x="168.926" y="193.69" type="line"/>
      <point x="374.266" y="193.69" type="line" smooth="yes"/>
      <point x="479.138" y="193.69"/>
      <point x="588.177" y="285.995"/>
      <point x="588.177" y="369.433" type="qcurve" smooth="yes"/>
      <point x="588.177" y="453.438"/>
      <point x="479.138" y="544.744"/>
      <point x="374.266" y="544.744" type="qcurve" smooth="yes"/>
      <point x="168.926" y="544.744" type="line"/>
      <point x="168.926" y="609.064" type="line"/>
      <point x="375.665" y="609.064" type="line" smooth="yes"/>
      <point x="465.064" y="609.064"/>
      <point x="593.163" y="551.232"/>
      <point x="661.995" y="444.7"/>
      <point x="661.995" y="370" type="qcurve" smooth="yes"/>
      <point x="661.995" y="294.734"/>
      <point x="593.163" y="187.202"/>
      <point x="465.064" y="129.369"/>
      <point x="375.665" y="129.369" type="qcurve" smooth="yes"/>
    </contour>
    <contour>
      <point x="114.305" y="0" type="line"/>
      <point x="114.305" y="700" type="line"/>
      <point x="187.557" y="700" type="line"/>
      <point x="187.557" y="0" type="line"/>
    </contour>
  </outline>
</glyph>
<glyph name="germandbls" format="2">
  <advance width="668"/>
  <unicode hex="00DF"/>
  <outline>
    <contour>
      <point x="384.729" y="-4.69952" type="qcurve" smooth="yes"/>
      <point x="355.596" y="-4.69952"/>
      <point x="296.064" y="3.30048"/>
      <point x="272.498" y="10.867" type="qcurve"/>
      <point x="284.729" y="71.222" type="line"/>
      <point x="306.03" y="64.222"/>
      <point x="352.197" y="57.355"/>
      <point x="381.897" y="57.355" type="qcurve" smooth="yes"/>
      <point x="431.833" y="57.355"/>
      <point x="507.138" y="90.8574"/>
      <point x="550.241" y="155.562"/>
      <point x="550.241" y="200.798" type="qcurve" smooth="yes"/>
      <point x="550.241" y="269.369"/>
      <point x="452.936" y="343.241"/>
      <point x="374.966" y="343.241" type="qcurve" smooth="yes"/>
      <point x="317.232" y="343.241" type="line"/>
      <point x="317.232" y="404.163" type="line"/>
      <point x="400.369" y="404.729"/>
      <point x="494.374" y="485.433"/>
      <point x="494.374" y="553.271" type="qcurve" smooth="yes"/>
      <point x="494.374" y="611.507"/>
      <point x="413.369" y="684.645"/>
      <point x="339.966" y="684.645" type="qcurve" smooth="yes"/>
      <point x="262.429" y="684.645"/>
      <point x="170.123" y="593.773"/>
      <point x="170.123" y="503.601" type="qcurve" smooth="yes"/>
      <point x="170.123" y="0" type="line"/>
      <point x="99.1378" y="0" type="line"/>
      <point x="99.1378" y="498.369" type="line" smooth="yes"/>
      <point x="99.1378" y="580.901"/>
      <point x="161.369" y="691"/>
      <point x="270" y="746.7"/>
      <point x="339.532" y="746.7" type="qcurve" smooth="yes"/>
      <point x="409.197" y="746.7"/>
      <point x="509.128" y="696.734"/>
      <point x="563.094" y="610.502"/>
      <point x="563.094" y="556.103" type="qcurve" smooth="yes"/>
      <point x="563.094" y="510.537"/>
      <point x="528.961" y="439.97"/>
      <point x="472.527" y="390.97"/>
      <point x="404.36" y="364.97"/>
      <point x="369.759" y="364.97" type="qcurve"/>
      <point x="397.591" y="394.665" type="line"/>
      <point x="462.059" y="394.665"/>
      <point x="563.227" y="348.665"/>
      <point x="621.793" y="261.665"/>
      <point x="621.793" y="199.099" type="qcurve" smooth="yes"/>
      <point x="621.793" y="135.266"/>
      <point x="559.66" y="43.867"/>
      <point x="452.695" y="-4.69952"/>
    </contour>
  </outline>
</glyph>
<glyph name="ae" format="2">
  <advance width="986"/>
  <unicode hex="00E6"/>
  <anchor x="488" y="562" name="t.uni0308"/>
  <anchor x="481" y="0" name="b.uni0324_3"/>
  <outline>
    <contour>
      <point x="253.665" y="-4.69952" type="qcurve" smooth="yes"/>
      <point x="159.867" y="-4.69952"/>
      <point x="54.8029" y="80.9656"/>
      <point x="54.8029" y="149.931" type="qcurve" smooth="yes"/>
      <point x="54.8029" y="189.197"/>
      <point x="93.7684" y="255.163"/>
      <point x="182.833" y="296.429"/>
      <point x="258.064" y="296.429" type="qcurve" smooth="yes"/>
      <point x="436.837" y="296.429" type="line"/>
      <point x="436.837" y="243.438" type="line"/>
      <point x="260.463" y="243.438" type="line" smooth="yes"/>
      <point x="184.36" y="243.438"/>
      <point x="125.222" y="190.034"/>
      <point x="125.222" y="151.498" type="qcurve" smooth="yes"/>
      <point x="125.222" y="104.828"/>
      <point x="195.926" y="51.1235"/>
      <point x="258.764" y="51.1235" type="qcurve" smooth="yes"/>
      <point x="335" y="51.1235"/>
      <point x="425.172" y="131.261"/>
      <point x="425.172" y="201.433" type="qcurve" smooth="yes"/>
      <point x="425.172" y="328.936" type="line" smooth="yes"/>
      <point x="425.172" y="396.34"/>
      <point x="349.67" y="468.143"/>
      <point x="276.468" y="468.143" type="qcurve" smooth="yes"/>
      <point x="225.266" y="468.143"/>
      <point x="133.232" y="434.374"/>
      <point x="100.931" y="406.34" type="qcurve"/>
      <point x="69.3694" y="458.862" type="line"/>
      <point x="109.202" y="492.729"/>
      <point x="221.433" y="530.197"/>
      <point x="282.266" y="530.197" type="qcurve" smooth="yes"/>
      <point x="372.099" y="530.197"/>
      <point x="475.296" y="453.562"/>
      <point x="487.094" y="377.759" type="qcurve"/>
      <point x="455.202" y="384.493" type="line"/>
      <point x="484.601" y="451.261"/>
      <point x="604.867" y="530.197"/>
      <point x="683.867" y="530.197" type="qcurve" smooth="yes"/>
      <point x="738.833" y="530.197"/>
      <point x="832.064" y="491.498"/>
      <point x="901.463" y="420.798"/>
      <point x="939.729" y="324.833"/>
      <point x="939.729" y="267.133" type="qcurve" smooth="yes"/>
      <point x="939.729" y="260.468"/>
      <point x="939.163" y="248.837"/>
      <point x="938.03" y="243.438" type="qcurve"/>
      <point x="481.961" y="243.438" type="line"/>
      <point x="481.961" y="296.429" type="line"/>
      <point x="900.404" y="296.429" type="line"/>
      <point x="870.877" y="273.197" type="line"/>
      <point x="871.443" y="333.833"/>
      <point x="819.675" y="421.438"/>
      <point x="734.271" y="469.276"/>
      <point x="683.3" y="469.276" type="qcurve" smooth="yes"/>
      <point x="632.897" y="469.276"/>
      <point x="547.493" y="421.438"/>
      <point x="495.591" y="332.7"/>
      <point x="495.591" y="271.498" type="qcurve" smooth="yes"/>
      <point x="495.591" y="259.567" type="line" smooth="yes"/>
      <point x="495.591" y="200.463"/>
      <point x="548.527" y="109.158"/>
      <point x="642.365" y="57.9215"/>
      <point x="704" y="57.9215" type="qcurve" smooth="yes"/>
      <point x="752.601" y="57.9215"/>
      <point x="834.271" y="92.2565"/>
      <point x="864.704" y="127.158" type="qcurve"/>
      <point x="905.33" y="80.867" type="line"/>
      <point x="869.631" y="38.3005"/>
      <point x="764.532" y="-4.69952"/>
      <point x="701.734" y="-4.69952" type="qcurve" smooth="yes"/>
      <point x="642.335" y="-4.69952"/>
      <point x="536.936" y="34.9014"/>
      <point x="458.537" y="116.502"/>
      <point x="437.704" y="179.369" type="qcurve"/>
      <point x="483.562" y="177.936" type="line"/>
      <point x="474.03" y="110.369"/>
      <point x="404.665" y="30.2019"/>
      <point x="306.833" y="-4.69952"/>
    </contour>
  </outline>
</glyph>
<glyph name="eth" format="2">
  <advance width="633"/>
  <unicode hex="00F0"/>
  <outline>
    <contour>
      <point x="291.665" y="-6.39904" type="qcurve" smooth="yes"/>
      <point x="221.399" y="-6.39904"/>
      <point x="110.167" y="48.1675"/>
      <point x="46.0689" y="147.867"/>
      <point x="46.0689" y="215.133" type="qcurve" smooth="yes"/>
      <point x="46.0689" y="282.399"/>
      <point x="110.167" y="381.665"/>
      <point x="223.266" y="436.232"/>
      <point x="295.7" y="436.232" type="qcurve" smooth="yes"/>
      <point x="356.167" y="436.232"/>
      <point x="454.67" y="391.596"/>
      <point x="519.67" y="307.192"/>
      <point x="528.468" y="246.389" type="qcurve"/>
      <point x="500.64" y="237.192" type="line"/>
      <point x="509.808" y="268.961"/>
      <point x="515.108" y="334.931"/>
      <point x="515.108" y="361.631" type="qcurve" smooth="yes"/>
      <point x="515.108" y="459.433"/>
      <point x="450.906" y="591.005"/>
      <point x="333.236" y="657.941"/>
      <point x="253.034" y="657.941" type="qcurve" smooth="yes"/>
      <point x="210.468" y="657.941"/>
      <point x="135.734" y="645.374"/>
      <point x="106.433" y="635.808" type="qcurve"/>
      <point x="94.0689" y="696.729" type="line"/>
      <point x="124.901" y="705.862"/>
      <point x="206.901" y="718.296"/>
      <point x="253.034" y="718.296" type="qcurve" smooth="yes"/>
      <point x="353.532" y="718.296"/>
      <point x="503.429" y="634.33"/>
      <point x="586.66" y="468.833"/>
      <point x="586.66" y="346.601" type="qcurve" smooth="yes"/>
      <point x="586.66" y="238.901"/>
      <point x="518.429" y="80.4679"/>
      <point x="387.064" y="-6.39904"/>
    </contour>
    <contour>
      <point x="296.197" y="54.5225" type="qcurve" smooth="yes"/>
      <point x="357.167" y="54.5225"/>
      <point x="442.305" y="101.059"/>
      <point x="486.374" y="174.498"/>
      <point x="486.374" y="215.133" type="qcurve" smooth="yes"/>
      <point x="486.374" y="260.502"/>
      <point x="438.872" y="333.074"/>
      <point x="356.734" y="375.31"/>
      <point x="302.498" y="375.31" type="qcurve" smooth="yes"/>
      <point x="216.493" y="375.31"/>
      <point x="117.621" y="287.271"/>
      <point x="117.621" y="215.133" type="qcurve" smooth="yes"/>
      <point x="117.621" y="167.33"/>
      <point x="162.69" y="94.8919"/>
      <point x="243.394" y="54.5225"/>
    </contour>
    <contour>
      <point x="151.966" y="493.241" type="line"/>
      <point x="132.069" y="541.7" type="line"/>
      <point x="527.66" y="706.966" type="line"/>
      <point x="547.557" y="657.941" type="line"/>
    </contour>
  </outline>
</glyph>
<glyph name="divide" format="2">
  <advance width="575"/>
  <unicode hex="00F7"/>
  <outline>
    <contour>
      <point x="69.9014" y="320.172" type="line"/>
      <point x="69.9014" y="379.394" type="line"/>
      <point x="504.828" y="379.394" type="line"/>
      <point x="504.828" y="320.172" type="line"/>
    </contour>
    <contour>
      <point x="287.365" y="110.01" type="qcurve" smooth="yes"/>
      <point x="268.3" y="110.01"/>
      <point x="240.404" y="138.473"/>
      <point x="240.404" y="159.236" type="qcurve" smooth="yes"/>
      <point x="240.404" y="180.433"/>
      <point x="268.3" y="207.33"/>
      <point x="287.365" y="207.33" type="qcurve" smooth="yes"/>
      <point x="307.429" y="207.33"/>
      <point x="334.892" y="180.433"/>
      <point x="334.892" y="159.236" type="qcurve" smooth="yes"/>
      <point x="334.892" y="138.473"/>
      <point x="307.429" y="110.01"/>
    </contour>
    <contour>
      <point x="287.365" y="492.67" type="qcurve" smooth="yes"/>
      <point x="268.3" y="492.67"/>
      <point x="240.404" y="521.133"/>
      <point x="240.404" y="541.33" type="qcurve" smooth="yes"/>
      <point x="240.404" y="562.527"/>
      <point x="268.3" y="589.99"/>
      <point x="287.365" y="589.99" type="qcurve" smooth="yes"/>
      <point x="307.429" y="589.99"/>
      <point x="334.892" y="562.527"/>
      <point x="334.892" y="541.33" type="qcurve" smooth="yes"/>
      <point x="334.892" y="521.133"/>
      <point x="307.429" y="492.67"/>
    </contour>
  </outline>
</glyph>
<glyph name="eogonek" format="2">
  <advance width="604"/>
  <unicode hex="0119"/>
  <anchor x="355" y="562" name="t.uni0308"/>
  <anchor x="355" y="0" name="b.uni0324_3"/>
  <outline>
    <contour>
      <point x="430.33" y="-220.365" type="qcurve" smooth="yes"/>
      <point x="380.567" y="-220.365"/>
      <point x="320.069" y="-167.3"/>
      <point x="320.069" y="-122.202" type="qcurve" smooth="yes"/>
      <point x="320.069" y="-89.8029"/>
      <point x="356.768" y="-13.2364"/>
      <point x="405.138" y="25" type="qcurve"/>
      <point x="427.798" y="13.7684" type="line"/>
      <point x="403.931" y="5.03445"/>
      <point x="350.631" y="-4.69952"/>
      <point x="322.197" y="-4.69952" type="qcurve" smooth="yes"/>
      <point x="240.399" y="-4.69952"/>
      <point x="115.901" y="64"/>
      <point x="46.0689" y="185.266"/>
      <point x="46.0689" y="262.966" type="qcurve" smooth="yes"/>
      <point x="46.0689" y="341.099"/>
      <point x="112.601" y="461.498"/>
      <point x="229.532" y="530.197"/>
      <point x="303.197" y="530.197" type="qcurve" smooth="yes"/>
      <point x="376.862" y="530.197"/>
      <point x="492.094" y="462.931"/>
      <point x="557.926" y="342.399"/>
      <point x="557.926" y="262.867" type="qcurve" smooth="yes"/>
      <point x="557.926" y="258.468"/>
      <point x="557.36" y="246.837"/>
      <point x="556.793" y="241.438" type="qcurve"/>
      <point x="100.123" y="241.438" type="line"/>
      <point x="100.123" y="294.429" type="line"/>
      <point x="519.167" y="294.429" type="line"/>
      <point x="490.773" y="273.197" type="line"/>
      <point x="491.34" y="329.867"/>
      <point x="442.404" y="418.606"/>
      <point x="358.133" y="469.276"/>
      <point x="303.197" y="469.276" type="qcurve" smooth="yes"/>
      <point x="248.695" y="469.276"/>
      <point x="163.424" y="418.606"/>
      <point x="115.488" y="329.3"/>
      <point x="115.488" y="271.498" type="qcurve" smooth="yes"/>
      <point x="115.488" y="259.567" type="line" smooth="yes"/>
      <point x="115.488" y="200.463"/>
      <point x="168.424" y="109.158"/>
      <point x="262.828" y="57.9215"/>
      <point x="323.897" y="57.9215" type="qcurve" smooth="yes"/>
      <point x="372.498" y="57.9215"/>
      <point x="455.3" y="92.2565"/>
      <point x="484.601" y="127.158" type="qcurve"/>
      <point x="524.66" y="80.867" type="line"/>
      <point x="517.094" y="71.3005"/>
      <point x="497.961" y="54.734"/>
      <point x="486.961" y="45.3005" type="qcurve" smooth="yes"/>
      <point x="440.059" y="4.66507"/>
      <point x="390.626" y="-53.8029"/>
      <point x="372.36" y="-97.8029"/>
      <point x="372.36" y="-118.236" type="qcurve" smooth="yes"/>
      <point x="372.36" y="-147.837"/>
      <point x="409.394" y="-176.438"/>
      <point x="437.562" y="-176.438" type="qcurve" smooth="yes"/>
      <point x="453.995" y="-176.438"/>
      <point x="486.995" y="-166.138"/>
      <point x="498.995" y="-157.404" type="qcurve"/>
      <point x="515.094" y="-195.631" type="line"/>
      <point x="497.394" y="-207.365"/>
      <point x="454.163" y="-220.365"/>
    </contour>
  </outline>
</glyph>
<glyph name="dotlessi" format="2">
  <advance width="269"/>
  <unicode hex="0131"/>
  <anchor x="180" y="562" name="t.uni0308"/>
  <anchor x="180" y="0" name="b.uni0324_3"/>
  <anchor x="338" y="0" name="m.uni0328_4"/>
  <outline>
    <contour>
      <point x="99.1378" y="0" type="line"/>
      <point x="99.1378" y="525.498" type="line"/>
      <point x="170.123" y="525.498" type="line"/>
      <point x="170.123" y="0" type="line"/>
    </contour>
  </outline>
</glyph>
<glyph name="IJ" format="2">
  <advance width="718"/>
  <unicode hex="0132"/>
  <anchor x="153" y="700" name="t.uni0308"/>
  <outline>
    <contour>
      <point x="327" y="-6.39904" type="qcurve" smooth="yes"/>
      <point x="259.635" y="-6.39904"/>
      <point x="142.305" y="32.3005"/>
      <point x="97.9062" y="62.5665" type="qcurve"/>
      <point x="128.034" y="121.621" type="line"/>
      <point x="170.3" y="92.0546"/>
      <point x="273.133" y="59.6211"/>
      <point x="328.567" y="59.6211" type="qcurve" smooth="yes"/>
      <point x="427.103" y="59.6211"/>
      <point x="536.409" y="177.793"/>
      <point x="536.409" y="299.099" type="qcurve" smooth="yes"/>
      <point x="536.409" y="700" type="line"/>
      <point x="609.66" y="700" type="line"/>
      <point x="609.66" y="302.064" type="line" smooth="yes"/>
      <point x="609.66" y="200.232"/>
      <point x="538.995" y="63"/>
      <point x="412.798" y="-6.39904"/>
    </contour>
    <contour>
      <point x="108.305" y="302.463" type="line"/>
      <point x="108.305" y="700" type="line"/>
      <point x="181.557" y="700" type="line"/>
      <point x="181.557" y="302.463" type="line"/>
    </contour>
  </outline>
</glyph>
<glyph name="kgreenlandic" format="2">
  <advance width="590"/>
  <unicode hex="0138"/>
  <anchor x="347" y="562" name="t.uni0308"/>
  <anchor x="347" y="0" name="b.uni0324_3"/>
  <outline>
    <contour>
      <point x="155.192" y="136.438" type="line"/>
      <point x="156.892" y="226.72" type="line"/>
      <point x="483.571" y="525.498" type="line"/>
      <point x="571.488" y="525.498" type="line"/>
      <point x="340.256" y="303.635" type="line"/>
      <point x="299.897" y="270.108" type="line"/>
    </contour>
    <contour>
      <point x="99.1378" y="0" type="line"/>
      <point x="99.1378" y="525.498" type="line"/>
      <point x="170.123" y="525.498" type="line"/>
      <point x="170.123" y="0" type="line"/>
    </contour>
    <contour>
      <point x="506.172" y="0" type="line"/>
      <point x="286.833" y="272.842" type="line"/>
      <point x="333.424" y="328.463" type="line"/>
      <point x="593.355" y="0" type="line"/>
    </contour>
  </outline>
</glyph>
<glyph name="Eng" format="2">
  <advance width="813"/>
  <unicode hex="014A"/>
  <outline>
    <contour>
      <point x="114.305" y="0" type="line"/>
      <point x="114.305" y="700" type="line"/>
      <point x="174.926" y="700" type="line"/>
      <point x="657.571" y="91.5474" type="line"/>
      <point x="638.241" y="0" type="line"/>
      <point x="155.596" y="608.453" type="line"/>
      <point x="187.557" y="608.453" type="line"/>
      <point x="187.557" y="0" type="line"/>
    </contour>
    <contour>
      <point x="496.837" y="-198.7" type="qcurve" smooth="yes"/>
      <point x="443.837" y="-198.7"/>
      <point x="350.271" y="-154.197"/>
      <point x="318.872" y="-113.296" type="qcurve"/>
      <point x="356.099" y="-61.0737" type="line"/>
      <point x="382.266" y="-96.0096"/>
      <point x="453.936" y="-134.945"/>
      <point x="497.271" y="-134.945" type="qcurve" smooth="yes"/>
      <point x="625.611" y="-134.945"/>
      <point x="625.611" y="20.1282" type="qcurve" smooth="yes"/>
      <point x="625.611" y="700" type="line"/>
      <point x="698.862" y="700" type="line"/>
      <point x="698.862" y="28.3254" type="line" smooth="yes"/>
      <point x="698.862" y="-86.6699"/>
      <point x="597" y="-198.7"/>
    </contour>
  </outline>
</glyph>
<glyph name="eng" format="2">
  <advance width="676"/>
  <unicode hex="014B"/>
  <outline>
    <contour>
      <point x="366.729" y="530.197" type="qcurve" smooth="yes"/>
      <point x="431.296" y="530.197"/>
      <point x="527.828" y="480.631"/>
      <point x="582.793" y="380.665"/>
      <point x="582.793" y="305" type="qcurve" smooth="yes"/>
      <point x="582.793" y="-39.4086" type="line" smooth="yes"/>
      <point x="582.793" y="-112.271"/>
      <point x="503.365" y="-198.7"/>
      <point x="429.069" y="-198.7" type="qcurve" smooth="yes"/>
      <point x="396.803" y="-198.7"/>
      <point x="337.404" y="-182.399"/>
      <point x="317.704" y="-165.099" type="qcurve"/>
      <point x="343.034" y="-111.443" type="line"/>
      <point x="374.202" y="-138.344"/>
      <point x="424.67" y="-138.344" type="qcurve" smooth="yes"/>
      <point x="466.739" y="-138.344"/>
      <point x="511.808" y="-87.7091"/>
      <point x="511.808" y="-38.9407" type="qcurve" smooth="yes"/>
      <point x="511.808" y="297.635" type="line" smooth="yes"/>
      <point x="511.808" y="381.172"/>
      <point x="429.103" y="466.443"/>
      <point x="354.133" y="466.443" type="qcurve" smooth="yes"/>
      <point x="298.03" y="466.443"/>
      <point x="214.759" y="421.074"/>
      <point x="170.123" y="336.236"/>
      <point x="170.123" y="275.901" type="qcurve" smooth="yes"/>
      <point x="170.123" y="0" type="line"/>
      <point x="99.1378" y="0" type="line"/>
      <point x="99.1378" y="525.498" type="line"/>
      <point x="167.291" y="525.498" type="line"/>
      <point x="167.291" y="381.33" type="line"/>
      <point x="156.227" y="407.557" type="line"/>
      <point x="181.493" y="465.36"/>
      <point x="290.66" y="530.197"/>
    </contour>
  </outline>
</glyph>
<glyph name="OE" format="2">
  <advance width="1121"/>
  <unicode hex="0152"/>
  <anchor x="676" y="700" name="t.uni0308"/>
  <anchor x="676" y="0" name="b.uni0324_3"/>
  <outline>
    <contour>
      <point x="426.867" y="0" type="line" smooth="yes"/>
      <point x="315.167" y="0"/>
      <point x="146.335" y="88.867"/>
      <point x="51.6354" y="246.3"/>
      <point x="51.6354" y="349" type="qcurve" smooth="yes"/>
      <point x="51.6354" y="452.266"/>
      <point x="146.335" y="610.7"/>
      <point x="315.167" y="700"/>
      <point x="426.867" y="700" type="qcurve" smooth="yes"/>
      <point x="585.266" y="700" type="line"/>
      <point x="585.266" y="635.679" type="line"/>
      <point x="430.266" y="635.679" type="line" smooth="yes"/>
      <point x="338.296" y="635.679"/>
      <point x="201.123" y="562.709"/>
      <point x="125.454" y="433.67"/>
      <point x="125.454" y="349.567" type="qcurve" smooth="yes"/>
      <point x="125.454" y="264.897"/>
      <point x="201.123" y="136.857"/>
      <point x="338.296" y="64.3206"/>
      <point x="430.266" y="64.3206" type="qcurve" smooth="yes"/>
      <point x="585.266" y="64.3206" type="line"/>
      <point x="585.266" y="0" type="line"/>
    </contour>
    <contour>
      <point x="632.222" y="387.094" type="line"/>
      <point x="1002.26" y="387.094" type="line"/>
      <point x="1002.26" y="323.906" type="line"/>
      <point x="632.222" y="323.906" type="line"/>
    </contour>
    <contour>
      <point x="639.488" y="64.3206" type="line"/>
      <point x="1060.56" y="64.3206" type="line"/>
      <point x="1060.56" y="0" type="line"/>
      <point x="566.236" y="0" type="line"/>
      <point x="566.236" y="700" type="line"/>
      <point x="1046.13" y="700" type="line"/>
      <point x="1046.13" y="635.679" type="line"/>
      <point x="639.488" y="635.679" type="line"/>
    </contour>
  </outline>
</glyph>
<glyph name="oe" format="2">
  <advance width="1068"/>
  <unicode hex="0153"/>
  <anchor x="537" y="562" name="t.uni0308"/>
  <anchor x="537" y="0" name="b.uni0324_3"/>
  <outline>
    <contour>
      <point x="313.498" y="-4.69952" type="qcurve" smooth="yes"/>
      <point x="236.399" y="-4.69952"/>
      <point x="116.034" y="64"/>
      <point x="46.0689" y="185.266"/>
      <point x="46.0689" y="262.966" type="qcurve" smooth="yes"/>
      <point x="46.0689" y="341.665"/>
      <point x="116.034" y="461.498"/>
      <point x="236.399" y="530.197"/>
      <point x="313.498" y="530.197" type="qcurve" smooth="yes"/>
      <point x="390.596" y="530.197"/>
      <point x="507.695" y="461.498"/>
      <point x="573.828" y="341.665"/>
      <point x="573.828" y="262.966" type="qcurve" smooth="yes"/>
      <point x="573.828" y="185.266"/>
      <point x="507.695" y="64"/>
      <point x="390.596" y="-4.69952"/>
    </contour>
    <contour>
      <point x="313.498" y="57.9215" type="qcurve" smooth="yes"/>
      <point x="369.867" y="57.9215"/>
      <point x="458.438" y="109.158"/>
      <point x="509.374" y="202.163"/>
      <point x="509.374" y="262.966" type="qcurve" smooth="yes"/>
      <point x="509.374" y="324.768"/>
      <point x="458.438" y="416.773"/>
      <point x="369.867" y="467.576"/>
      <point x="313.498" y="467.576" type="qcurve" smooth="yes"/>
      <point x="257.695" y="467.576"/>
      <point x="169.557" y="416.773"/>
      <point x="117.621" y="324.768"/>
      <point x="117.621" y="262.966" type="qcurve" smooth="yes"/>
      <point x="117.621" y="202.163"/>
      <point x="169.557" y="109.158"/>
      <point x="257.695" y="57.9215"/>
    </contour>
    <contour>
      <point x="785.936" y="-4.69952" type="qcurve" smooth="yes"/>
      <point x="704.571" y="-4.69952"/>
      <point x="581.906" y="64"/>
      <point x="514.207" y="185.266"/>
      <point x="514.207" y="262.966" type="qcurve" smooth="yes"/>
      <point x="514.207" y="341.099"/>
      <point x="579.039" y="461.498"/>
      <point x="693.271" y="530.197"/>
      <point x="766.936" y="530.197" type="qcurve" smooth="yes"/>
      <point x="840.601" y="530.197"/>
      <point x="955.833" y="462.931"/>
      <point x="1021.67" y="342.399"/>
      <point x="1021.67" y="262.867" type="qcurve" smooth="yes"/>
      <point x="1021.67" y="258.468"/>
      <point x="1021.1" y="246.837"/>
      <point x="1020.53" y="241.438" type="qcurve"/>
      <point x="563.862" y="241.438" type="line"/>
      <point x="563.862" y="294.429" type="line"/>
      <point x="982.906" y="294.429" type="line"/>
      <point x="954.512" y="273.197" type="line"/>
      <point x="955.078" y="329.867"/>
      <point x="906.143" y="418.606"/>
      <point x="821.872" y="469.276"/>
      <point x="766.936" y="469.276" type="qcurve" smooth="yes"/>
      <point x="712.433" y="469.276"/>
      <point x="627.729" y="418.606"/>
      <point x="579.227" y="329.3"/>
      <point x="579.227" y="271.498" type="qcurve" smooth="yes"/>
      <point x="579.227" y="259.567" type="line" smooth="yes"/>
      <point x="579.227" y="200.463"/>
      <point x="632.163" y="109.158"/>
      <point x="727" y="57.9215"/>
      <point x="787.635" y="57.9215" type="qcurve" smooth="yes"/>
      <point x="836.236" y="57.9215"/>
      <point x="919.039" y="92.2565"/>
      <point x="948.34" y="127.158" type="qcurve"/>
      <point x="988.399" y="80.867" type="line"/>
      <point x="953.266" y="38.867"/>
      <point x="848.734" y="-4.69952"/>
    </contour>
  </outline>
</glyph>
<glyph name="Uogonek" format="2">
  <advance width="792"/>
  <unicode hex="0172"/>
  <outline>
    <contour>
      <point x="611.31" y="700" type="line"/>
      <point x="683.429" y="700" type="line"/>
      <point x="683.429" y="299.232" type="line" smooth="yes"/>
      <point x="683.429" y="177.099"/>
      <point x="587.03" y="36.6995"/>
      <point x="503.596" y="8" type="qcurve" smooth="yes"/>
      <point x="441.695" y="-13.4335"/>
      <point x="378.094" y="-58.9014"/>
      <point x="355.527" y="-101.936"/>
      <point x="355.527" y="-120.369" type="qcurve" smooth="yes"/>
      <point x="355.527" y="-147.837"/>
      <point x="392.562" y="-176.438"/>
      <point x="420.729" y="-176.438" type="qcurve" smooth="yes"/>
      <point x="437.163" y="-176.438"/>
      <point x="470.163" y="-166.138"/>
      <point x="482.163" y="-157.404" type="qcurve"/>
      <point x="498.261" y="-195.631" type="line"/>
      <point x="480.562" y="-207.365"/>
      <point x="437.33" y="-220.365"/>
      <point x="413.498" y="-220.365" type="qcurve" smooth="yes"/>
      <point x="363.167" y="-220.365"/>
      <point x="303.236" y="-168.433"/>
      <point x="303.236" y="-125.468" type="qcurve" smooth="yes"/>
      <point x="303.236" y="-100.502"/>
      <point x="328.202" y="-47.5368"/>
      <point x="389.468" y="4.46316"/>
      <point x="444.202" y="25.8967" type="qcurve"/>
      <point x="436.7" y="-4.39904" type="line"/>
      <point x="427.133" y="-5.39904"/>
      <point x="406" y="-6.39904"/>
      <point x="395.867" y="-6.39904" type="qcurve" smooth="yes"/>
      <point x="261.803" y="-6.39904"/>
      <point x="108.305" y="148.399"/>
      <point x="108.305" y="299.232" type="qcurve" smooth="yes"/>
      <point x="108.305" y="700" type="line"/>
      <point x="181.557" y="700" type="line"/>
      <point x="181.557" y="301.931" type="line" smooth="yes"/>
      <point x="181.557" y="177.793"/>
      <point x="293.862" y="59.6211"/>
      <point x="396.433" y="59.6211" type="qcurve" smooth="yes"/>
      <point x="499.005" y="59.6211"/>
      <point x="611.31" y="177.793"/>
      <point x="611.31" y="301.931" type="qcurve" smooth="yes"/>
    </contour>
  </outline>
</glyph>
<glyph name="longs" format="2">
  <advance width="295"/>
  <unicode hex="017F"/>
  <outline>
    <contour>
      <point x="121.537" y="0" type="line"/>
      <point x="121.537" y="590.808" type="line" smooth="yes"/>
      <point x="121.537" y="661.404"/>
      <point x="203.532" y="746.7"/>
      <point x="279.961" y="746.7" type="qcurve" smooth="yes"/>
      <point x="310.227" y="746.7"/>
      <point x="366.36" y="730.966"/>
      <point x="385.493" y="714.232" type="qcurve"/>
      <point x="361.296" y="660.576" type="line"/>
      <point x="346.429" y="673.744"/>
      <point x="305.961" y="687.477"/>
      <point x="283.793" y="687.477" type="qcurve" smooth="yes"/>
      <point x="239.158" y="687.477"/>
      <point x="192.523" y="636.842"/>
      <point x="192.523" y="588.074" type="qcurve" smooth="yes"/>
      <point x="192.523" y="0" type="line"/>
    </contour>
    <contour>
      <point x="27.7684" y="466.276" type="line"/>
      <point x="27.7684" y="525.498" type="line"/>
      <point x="159.197" y="525.498" type="line"/>
      <point x="159.197" y="466.276" type="line"/>
    </contour>
  </outline>
</glyph>
<glyph name="uni018F" format="2">
  <advance width="817"/>
  <unicode hex="018F"/>
  <outline>
    <contour>
      <point x="408.567" y="-6.39904" type="qcurve" smooth="yes"/>
      <point x="331.867" y="-6.39904"/>
      <point x="201.034" y="47.1675"/>
      <point x="104.768" y="144.3"/>
      <point x="51.6354" y="275.133"/>
      <point x="51.6354" y="352.833" type="qcurve" smooth="yes"/>
      <point x="51.6354" y="374.729" type="line"/>
      <point x="700.645" y="374.729" type="line"/>
      <point x="700.645" y="311.542" type="line"/>
      <point x="100.458" y="311.542" type="line"/>
      <point x="124.887" y="350" type="line"/>
      <point x="124.887" y="285.798"/>
      <point x="166.523" y="178.961"/>
      <point x="242.493" y="100.99"/>
      <point x="346.064" y="57.9215"/>
      <point x="408.567" y="57.9215" type="qcurve" smooth="yes"/>
      <point x="469.335" y="57.9215"/>
      <point x="572.473" y="100.424"/>
      <point x="648.744" y="178.394"/>
      <point x="691.113" y="283.532"/>
      <point x="691.113" y="346.167" type="qcurve" smooth="yes"/>
      <point x="691.113" y="353.266" type="line" smooth="yes"/>
      <point x="691.113" y="414.635"/>
      <point x="646.911" y="519.207"/>
      <point x="567.507" y="596.744"/>
      <point x="462.069" y="640.379"/>
      <point x="400.833" y="640.379" type="qcurve" smooth="yes"/>
      <point x="358.966" y="640.379"/>
      <point x="279.099" y="623.246"/>
      <point x="207.798" y="587.246"/>
      <point x="177.197" y="558.812" type="qcurve"/>
      <point x="133.34" y="610.069" type="line"/>
      <point x="165.906" y="641.335"/>
      <point x="249.271" y="684"/>
      <point x="347.601" y="706.399"/>
      <point x="401.399" y="706.399" type="qcurve" smooth="yes"/>
      <point x="480.099" y="706.399"/>
      <point x="612.798" y="653.399"/>
      <point x="710.931" y="557.266"/>
      <point x="764.931" y="427.133"/>
      <point x="764.931" y="351" type="qcurve" smooth="yes"/>
      <point x="764.931" y="275.167"/>
      <point x="710.931" y="145.468"/>
      <point x="613.798" y="48.0344"/>
      <point x="484.399" y="-6.39904"/>
    </contour>
  </outline>
</glyph>
<glyph name="florin" format="2">
  <advance width="438"/>
  <unicode hex="0192"/>
  <outline>
    <contour>
      <point x="18.0986" y="-198.7" type="qcurve" smooth="yes"/>
      <point x="-14.1675" y="-198.7"/>
      <point x="-71.6995" y="-181.833"/>
      <point x="-89.9656" y="-164.532" type="qcurve"/>
      <point x="-60.8029" y="-111.443" type="line"/>
      <point x="-31.9359" y="-138.344"/>
      <point x="15.6995" y="-138.344" type="qcurve" smooth="yes"/>
      <point x="58.3349" y="-138.344"/>
      <point x="110.97" y="-87.7091"/>
      <point x="116.837" y="-38.9407" type="qcurve" smooth="yes"/>
      <point x="195.172" y="590.808" type="line"/>
      <point x="203.305" y="661.404"/>
      <point x="294.3" y="746.7"/>
      <point x="368.463" y="746.7" type="qcurve" smooth="yes"/>
      <point x="398.729" y="746.7"/>
      <point x="455.828" y="730.399"/>
      <point x="473.527" y="712.532" type="qcurve"/>
      <point x="443.365" y="659.443" type="line"/>
      <point x="429.931" y="672.611"/>
      <point x="391.463" y="686.344"/>
      <point x="369.296" y="686.344" type="qcurve" smooth="yes"/>
      <point x="324.094" y="686.344"/>
      <point x="270.759" y="635.709"/>
      <point x="263.892" y="586.941" type="qcurve" smooth="yes"/>
      <point x="253.724" y="507.768" type="line"/>
      <point x="252.158" y="474.675" type="line"/>
      <point x="187.823" y="-42.8076" type="line" smooth="yes"/>
      <point x="179.123" y="-113.404"/>
      <point x="90.6947" y="-198.7"/>
    </contour>
    <contour>
      <point x="84.7043" y="457.778" type="line"/>
      <point x="92.2364" y="517" type="line"/>
      <point x="416.128" y="517" type="line"/>
      <point x="409.163" y="457.778" type="line"/>
    </contour>
  </outline>
</glyph>
<glyph name="Ohorn" format="2">
  <advance width="839"/>
  <unicode hex="01A0"/>
  <anchor x="427" y="700" name="t.uni0308"/>
  <anchor x="427" y="0" name="b.uni0324_3"/>
  <outline>
    <contour>
      <point x="419.7" y="-6.39904" type="qcurve" smooth="yes"/>
      <point x="340.433" y="-6.39904"/>
      <point x="206.034" y="47.1675"/>
      <point x="106.768" y="143.734"/>
      <point x="51.6354" y="273.433"/>
      <point x="51.6354" y="350" type="qcurve" smooth="yes"/>
      <point x="51.6354" y="427.133"/>
      <point x="106.768" y="556.833"/>
      <point x="206.601" y="653.399"/>
      <point x="342.133" y="706.399"/>
      <point x="421.966" y="706.399" type="qcurve" smooth="yes"/>
      <point x="483.567" y="706.399"/>
      <point x="575.167" y="691.966"/>
      <point x="619.635" y="691.966" type="qcurve" smooth="yes"/>
      <point x="668.837" y="691.966"/>
      <point x="719.438" y="730.133"/>
      <point x="719.438" y="767.734" type="qcurve" smooth="yes"/>
      <point x="719.438" y="786.601"/>
      <point x="707.438" y="818.468"/>
      <point x="699.438" y="831.901" type="qcurve"/>
      <point x="745.764" y="850.099" type="line"/>
      <point x="758.03" y="832.833"/>
      <point x="771.729" y="789.3"/>
      <point x="771.729" y="765.901" type="qcurve" smooth="yes"/>
      <point x="771.729" y="706.97"/>
      <point x="692" y="643.507"/>
      <point x="616.803" y="643.507" type="qcurve" smooth="yes"/>
      <point x="592.305" y="643.507"/>
      <point x="530.941" y="649.773"/>
      <point x="504.409" y="653.773" type="qcurve"/>
      <point x="592.188" y="664.704" type="line"/>
      <point x="650.857" y="638.438"/>
      <point x="738.562" y="544.404"/>
      <point x="787.197" y="420.901"/>
      <point x="787.197" y="350" type="qcurve" smooth="yes"/>
      <point x="787.197" y="272.867"/>
      <point x="732.064" y="143.167"/>
      <point x="632.798" y="46.601"/>
      <point x="498.966" y="-6.39904"/>
    </contour>
    <contour>
      <point x="419.7" y="59.6211" type="qcurve" smooth="yes"/>
      <point x="482.635" y="59.6211"/>
      <point x="589.64" y="103.823"/>
      <point x="669.177" y="182.36"/>
      <point x="713.379" y="288.064"/>
      <point x="713.379" y="350" type="qcurve" smooth="yes"/>
      <point x="713.379" y="411.936"/>
      <point x="669.177" y="517.64"/>
      <point x="589.64" y="596.177"/>
      <point x="482.635" y="640.379"/>
      <point x="419.7" y="640.379" type="qcurve" smooth="yes"/>
      <point x="356.764" y="640.379"/>
      <point x="249.192" y="596.744"/>
      <point x="169.656" y="517.64"/>
      <point x="125.454" y="412.502"/>
      <point x="125.454" y="350" type="qcurve" smooth="yes"/>
      <point x="125.454" y="288.064"/>
      <point x="169.656" y="182.36"/>
      <point x="249.192" y="103.256"/>
      <point x="356.764" y="59.6211"/>
    </contour>
  </outline>
</glyph>
<glyph name="ohorn" format="2">
  <advance width="627"/>
  <unicode hex="01A1"/>
  <anchor x="354" y="562" name="t.uni0308"/>
  <anchor x="354" y="0" name="b.uni0324_3"/>
  <outline>
    <contour>
      <point x="313.498" y="-4.69952" type="qcurve" smooth="yes"/>
      <point x="236.399" y="-4.69952"/>
      <point x="116.034" y="64"/>
      <point x="46.0689" y="185.266"/>
      <point x="46.0689" y="262.966" type="qcurve" smooth="yes"/>
      <point x="46.0689" y="341.665"/>
      <point x="116.034" y="461.498"/>
      <point x="236.966" y="530.197"/>
      <point x="314.064" y="530.197" type="qcurve" smooth="yes"/>
      <point x="341.498" y="530.197"/>
      <point x="378.498" y="527.631"/>
      <point x="414.798" y="524.064"/>
      <point x="438.399" y="524.064" type="qcurve" smooth="yes"/>
      <point x="480.3" y="524.064"/>
      <point x="519.202" y="565.665"/>
      <point x="519.202" y="593.665" type="qcurve" smooth="yes"/>
      <point x="519.202" y="612.532"/>
      <point x="507.202" y="644.399"/>
      <point x="498.635" y="657.833" type="qcurve"/>
      <point x="544.961" y="676.03" type="line"/>
      <point x="556.66" y="658.764"/>
      <point x="571.493" y="615.232"/>
      <point x="571.493" y="591.833" type="qcurve" smooth="yes"/>
      <point x="571.493" y="558.202"/>
      <point x="539.562" y="505.005"/>
      <point x="478.532" y="475.039"/>
      <point x="433.734" y="475.039" type="qcurve" smooth="yes"/>
      <point x="421.069" y="475.039"/>
      <point x="394.305" y="477.739"/>
      <point x="377.473" y="479.872" type="qcurve"/>
      <point x="411.527" y="512.798" type="line"/>
      <point x="487.793" y="485.532"/>
      <point x="580.926" y="353.399"/>
      <point x="580.926" y="262.966" type="qcurve" smooth="yes"/>
      <point x="580.926" y="185.266"/>
      <point x="511.961" y="64"/>
      <point x="390.596" y="-4.69952"/>
    </contour>
    <contour>
      <point x="313.498" y="57.9215" type="qcurve" smooth="yes"/>
      <point x="369.3" y="57.9215"/>
      <point x="457.872" y="109.158"/>
      <point x="509.374" y="202.163"/>
      <point x="509.374" y="262.966" type="qcurve" smooth="yes"/>
      <point x="509.374" y="324.768"/>
      <point x="458.438" y="416.773"/>
      <point x="369.867" y="467.576"/>
      <point x="313.498" y="467.576" type="qcurve" smooth="yes"/>
      <point x="257.695" y="467.576"/>
      <point x="169.557" y="416.773"/>
      <point x="117.621" y="324.768"/>
      <point x="117.621" y="262.966" type="qcurve" smooth="yes"/>
      <point x="117.621" y="202.163"/>
      <point x="169.557" y="109.158"/>
      <point x="257.695" y="57.9215"/>
    </contour>
  </outline>
</glyph>
<glyph name="uni01E5" format="2">
  <advance width="691"/>
  <unicode hex="01E5"/>
  <outline>
    <contour>
      <point x="323" y="-198.7" type="qcurve" smooth="yes"/>
      <point x="251.3" y="-198.7"/>
      <point x="119.103" y="-156.665"/>
      <point x="77.5713" y="-117.798" type="qcurve"/>
      <point x="113.665" y="-63.5761" type="line"/>
      <point x="151.399" y="-97.4775"/>
      <point x="260.266" y="-136.078"/>
      <point x="320.734" y="-136.078" type="qcurve" smooth="yes"/>
      <point x="420.837" y="-136.078"/>
      <point x="515.374" y="-42.5416"/>
      <point x="515.374" y="55.4632" type="qcurve" smooth="yes"/>
      <point x="515.374" y="185.773" type="line"/>
      <point x="525.374" y="275.798" type="line"/>
      <point x="518.207" y="366.389" type="line"/>
      <point x="518.207" y="525.498" type="line"/>
      <point x="586.36" y="525.498" type="line"/>
      <point x="586.36" y="63.5617" type="line" smooth="yes"/>
      <point x="586.36" y="-71.6354"/>
      <point x="453.197" y="-198.7"/>
    </contour>
    <contour>
      <point x="288.369" y="-61.6354" type="line"/>
      <point x="288.369" y="-11.4775" type="line"/>
      <point x="650.36" y="-10.911" type="line"/>
      <point x="650.36" y="-61.6354" type="line"/>
    </contour>
    <contour>
      <point x="310.266" y="34.5617" type="qcurve" smooth="yes"/>
      <point x="234.867" y="34.5617"/>
      <point x="115.335" y="97.8622"/>
      <point x="46.0689" y="210.163"/>
      <point x="46.0689" y="283.163" type="qcurve" smooth="yes"/>
      <point x="46.0689" y="356.596"/>
      <point x="115.335" y="467.897"/>
      <point x="234.867" y="530.197"/>
      <point x="310.266" y="530.197" type="qcurve" smooth="yes"/>
      <point x="379.867" y="530.197"/>
      <point x="491.734" y="472.995"/>
      <point x="558.433" y="363.394"/>
      <point x="558.433" y="283.163" type="qcurve" smooth="yes"/>
      <point x="558.433" y="203.365"/>
      <point x="491.734" y="92.1971"/>
      <point x="379.867" y="34.5617"/>
    </contour>
    <contour>
      <point x="317.064" y="94.9168" type="qcurve" smooth="yes"/>
      <point x="375.433" y="94.9168"/>
      <point x="465.138" y="142.587"/>
      <point x="516.507" y="227.626"/>
      <point x="516.507" y="283.163" type="qcurve" smooth="yes"/>
      <point x="516.507" y="339.133"/>
      <point x="465.138" y="422.739"/>
      <point x="375.433" y="470.409"/>
      <point x="317.064" y="470.409" type="qcurve" smooth="yes"/>
      <point x="259.695" y="470.409"/>
      <point x="168.99" y="422.739"/>
      <point x="117.621" y="339.133"/>
      <point x="117.621" y="283.163" type="qcurve" smooth="yes"/>
      <point x="117.621" y="227.626"/>
      <point x="168.99" y="142.587"/>
      <point x="259.695" y="94.9168"/>
    </contour>
  </outline>
</glyph>
<glyph name="uni01EA" format="2">
  <advance width="839"/>
  <unicode hex="01EA"/>
  <anchor x="427" y="700" name="t.uni0308"/>
  <outline>
    <contour>
      <point x="423.764" y="-220.365" type="qcurve" smooth="yes"/>
      <point x="373.433" y="-220.365"/>
      <point x="313.502" y="-168.433"/>
      <point x="313.502" y="-125.468" type="qcurve" smooth="yes"/>
      <point x="313.502" y="-100.502"/>
      <point x="338.335" y="-46.9703"/>
      <point x="400.601" y="5.02967"/>
      <point x="454.468" y="26.7636" type="qcurve"/>
      <point x="450.631" y="-4.39904" type="line"/>
      <point x="441.798" y="-5.39904"/>
      <point x="426.833" y="-6.39904"/>
      <point x="419.7" y="-6.39904" type="qcurve" smooth="yes"/>
      <point x="340.433" y="-6.39904"/>
      <point x="206.601" y="46.601"/>
      <point x="106.768" y="143.167"/>
      <point x="51.6354" y="272.867"/>
      <point x="51.6354" y="350" type="qcurve" smooth="yes"/>
      <point x="51.6354" y="427.133"/>
      <point x="106.768" y="556.833"/>
      <point x="206.601" y="653.399"/>
      <point x="340.433" y="706.399"/>
      <point x="419.7" y="706.399" type="qcurve" smooth="yes"/>
      <point x="498.966" y="706.399"/>
      <point x="632.798" y="653.399"/>
      <point x="732.064" y="556.833"/>
      <point x="787.197" y="427.133"/>
      <point x="787.197" y="350" type="qcurve" smooth="yes"/>
      <point x="787.197" y="259.7"/>
      <point x="714.03" y="116.966"/>
      <point x="591.296" y="23.8325"/>
      <point x="515.862" y="6" type="qcurve" smooth="yes"/>
      <point x="472.596" y="-4.26603"/>
      <point x="404.562" y="-42.5665"/>
      <point x="365.793" y="-91.9014"/>
      <point x="365.793" y="-120.369" type="qcurve" smooth="yes"/>
      <point x="365.793" y="-147.837"/>
      <point x="402.828" y="-176.438"/>
      <point x="430.995" y="-176.438" type="qcurve" smooth="yes"/>
      <point x="447.429" y="-176.438"/>
      <point x="480.429" y="-166.138"/>
      <point x="492.429" y="-157.404" type="qcurve"/>
      <point x="508.527" y="-195.631" type="line"/>
      <point x="490.828" y="-207.365"/>
      <point x="447.596" y="-220.365"/>
    </contour>
    <contour>
      <point x="419.7" y="59.6211" type="qcurve" smooth="yes"/>
      <point x="482.635" y="59.6211"/>
      <point x="589.64" y="102.823"/>
      <point x="669.177" y="181.926"/>
      <point x="713.379" y="287.631"/>
      <point x="713.379" y="350" type="qcurve" smooth="yes"/>
      <point x="713.379" y="412.936"/>
      <point x="669.177" y="518.074"/>
      <point x="589.64" y="597.177"/>
      <point x="482.635" y="640.379"/>
      <point x="419.7" y="640.379" type="qcurve" smooth="yes"/>
      <point x="356.764" y="640.379"/>
      <point x="249.192" y="597.177"/>
      <point x="169.656" y="518.074"/>
      <point x="125.454" y="412.936"/>
      <point x="125.454" y="350" type="qcurve" smooth="yes"/>
      <point x="125.454" y="287.631"/>
      <point x="169.656" y="181.926"/>
      <point x="249.192" y="102.823"/>
      <point x="356.764" y="59.6211"/>
    </contour>
  </outline>
</glyph>
<glyph name="uni01EB" format="2">
  <advance width="627"/>
  <unicode hex="01EB"/>
  <anchor x="350" y="562" name="t.uni0308"/>
  <anchor x="350" y="281" name="t.uni0307_1"/>
  <anchor x="417" y="561" name="t.uni031B_2"/>
  <anchor x="350" y="0" name="b.uni0324_3"/>
  <outline>
    <contour>
      <point x="342.498" y="-220.365" type="qcurve" smooth="yes"/>
      <point x="292.167" y="-220.365"/>
      <point x="232.236" y="-168.433"/>
      <point x="232.236" y="-126.601" type="qcurve" smooth="yes"/>
      <point x="232.236" y="-101.069"/>
      <point x="256.202" y="-47.4038"/>
      <point x="315.601" y="4.59618"/>
      <point x="368.335" y="26.7636" type="qcurve"/>
      <point x="368.665" y="-0.26603" type="line"/>
      <point x="351.365" y="-2.69952"/>
      <point x="325.931" y="-4.69952"/>
      <point x="313.498" y="-4.69952" type="qcurve" smooth="yes"/>
      <point x="236.399" y="-4.69952"/>
      <point x="116.034" y="64"/>
      <point x="46.0689" y="185.266"/>
      <point x="46.0689" y="262.966" type="qcurve" smooth="yes"/>
      <point x="46.0689" y="341.665"/>
      <point x="116.034" y="461.498"/>
      <point x="236.399" y="530.197"/>
      <point x="313.498" y="530.197" type="qcurve" smooth="yes"/>
      <point x="390.596" y="530.197"/>
      <point x="511.961" y="461.498"/>
      <point x="580.926" y="341.665"/>
      <point x="580.926" y="262.966" type="qcurve" smooth="yes"/>
      <point x="580.926" y="176.7"/>
      <point x="497.128" y="48.734"/>
      <point x="425.596" y="16.734" type="qcurve" smooth="yes"/>
      <point x="366.394" y="-9.73397"/>
      <point x="305.793" y="-57.6354"/>
      <point x="284.527" y="-100.369"/>
      <point x="284.527" y="-119.803" type="qcurve" smooth="yes"/>
      <point x="284.527" y="-147.837"/>
      <point x="321.562" y="-176.438"/>
      <point x="349.729" y="-176.438" type="qcurve" smooth="yes"/>
      <point x="366.163" y="-176.438"/>
      <point x="399.163" y="-166.138"/>
      <point x="411.163" y="-157.404" type="qcurve"/>
      <point x="427.261" y="-195.631" type="line"/>
      <point x="409.562" y="-207.365"/>
      <point x="366.33" y="-220.365"/>
    </contour>
    <contour>
      <point x="313.498" y="57.9215" type="qcurve" smooth="yes"/>
      <point x="369.867" y="57.9215"/>
      <point x="458.438" y="109.158"/>
      <point x="509.374" y="202.163"/>
      <point x="509.374" y="262.966" type="qcurve" smooth="yes"/>
      <point x="509.374" y="324.768"/>
      <point x="458.438" y="416.773"/>
      <point x="369.867" y="467.576"/>
      <point x="313.498" y="467.576" type="qcurve" smooth="yes"/>
      <point x="257.695" y="467.576"/>
      <point x="169.557" y="416.773"/>
      <point x="117.621" y="324.768"/>
      <point x="117.621" y="262.966" type="qcurve" smooth="yes"/>
      <point x="117.621" y="202.163"/>
      <point x="169.557" y="109.158"/>
      <point x="257.695" y="57.9215"/>
    </contour>
  </outline>
</glyph>
<glyph name="uni0237" format="2">
  <advance width="274"/>
  <unicode hex="0237"/>
  <anchor x="188" y="562" name="t.uni0308"/>
  <outline>
    <contour>
      <point x="21.399" y="-198.7" type="qcurve" smooth="yes"/>
      <point x="-10.867" y="-198.7"/>
      <point x="-70.266" y="-182.399"/>
      <point x="-89.9656" y="-165.099" type="qcurve"/>
      <point x="-64.6354" y="-111.443" type="line"/>
      <point x="-33.4679" y="-138.344"/>
      <point x="17" y="-138.344" type="qcurve" smooth="yes"/>
      <point x="59.0689" y="-138.344"/>
      <point x="104.138" y="-87.7091"/>
      <point x="104.138" y="-38.9407" type="qcurve" smooth="yes"/>
      <point x="104.138" y="525.498" type="line"/>
      <point x="175.123" y="525.498" type="line"/>
      <point x="175.123" y="-39.4086" type="line" smooth="yes"/>
      <point x="175.123" y="-112.271"/>
      <point x="95.6947" y="-198.7"/>
    </contour>
  </outline>
</glyph>
<glyph name="uni0259" format="2">
  <advance width="604"/>
  <unicode hex="0259"/>
  <anchor x="341" y="562" name="t.uni0308"/>
  <anchor x="341" y="0" name="b.uni0324_3"/>
  <anchor x="99" y="562" name="m.uni0328_4"/>
  <outline>
    <contour>
      <point x="281.798" y="530.197" type="qcurve" smooth="yes"/>
      <point x="364.163" y="530.197"/>
      <point x="488.094" y="461.498"/>
      <point x="557.926" y="341.232"/>
      <point x="557.926" y="262.532" type="qcurve" smooth="yes"/>
      <point x="557.926" y="184.833"/>
      <point x="491.394" y="64"/>
      <point x="374.897" y="-4.69952"/>
      <point x="300.798" y="-4.69952" type="qcurve" smooth="yes"/>
      <point x="227.133" y="-4.69952"/>
      <point x="111.901" y="63"/>
      <point x="46.0689" y="183.665"/>
      <point x="46.0689" y="262.631" type="qcurve" smooth="yes"/>
      <point x="46.0689" y="267.463"/>
      <point x="46.6354" y="279.094"/>
      <point x="47.2019" y="284.059" type="qcurve"/>
      <point x="503.872" y="284.059" type="line"/>
      <point x="503.872" y="231.069" type="line"/>
      <point x="84.8278" y="231.069" type="line"/>
      <point x="113.222" y="252.3" type="line"/>
      <point x="113.222" y="195.631"/>
      <point x="161.591" y="106.892"/>
      <point x="246.296" y="56.222"/>
      <point x="300.798" y="56.222" type="qcurve" smooth="yes"/>
      <point x="355.734" y="56.222"/>
      <point x="440.571" y="106.892"/>
      <point x="488.507" y="196.764"/>
      <point x="488.507" y="254" type="qcurve" smooth="yes"/>
      <point x="488.507" y="265.931" type="line" smooth="yes"/>
      <point x="488.507" y="326.034"/>
      <point x="435.571" y="416.34"/>
      <point x="341.734" y="467.576"/>
      <point x="280.099" y="467.576" type="qcurve" smooth="yes"/>
      <point x="231.498" y="467.576"/>
      <point x="149.261" y="433.675"/>
      <point x="119.394" y="398.34" type="qcurve"/>
      <point x="79.3349" y="444.631" type="line"/>
      <point x="114.901" y="486.631"/>
      <point x="220" y="530.197"/>
    </contour>
  </outline>
</glyph>
<glyph name="uni02B9" format="2">
  <advance width="202"/>
  <unicode hex="02B9"/>
  <outline>
    <contour>
      <point x="73.9359" y="436.404" type="line"/>
      <point x="69.1033" y="700" type="line"/>
      <point x="132.458" y="700" type="line"/>
      <point x="127.059" y="436.404" type="line"/>
    </contour>
  </outline>
</glyph>
<glyph name="uni02BE" format="2">
  <advance width="600"/>
  <unicode hex="02BE"/>
  <outline>
    <contour>
      <point x="299" y="595.3" type="qcurve"/>
      <point x="299" y="630.729" type="line"/>
      <point x="329.3" y="630.729"/>
      <point x="367.034" y="668.897"/>
      <point x="367.034" y="697.197" type="qcurve" smooth="yes"/>
      <point x="367.034" y="726.498"/>
      <point x="328.734" y="765.532"/>
      <point x="299" y="765.532" type="qcurve"/>
      <point x="299" y="801.527" type="line"/>
      <point x="329.966" y="801.527"/>
      <point x="377.197" y="772.695"/>
      <point x="404.596" y="725.596"/>
      <point x="404.596" y="697.197" type="qcurve" smooth="yes"/>
      <point x="404.596" y="669.232"/>
      <point x="377.631" y="623.133"/>
      <point x="329.966" y="595.3"/>
    </contour>
  </outline>
</glyph>
<glyph name="uni02BF" format="2">
  <advance width="600"/>
  <unicode hex="02BF"/>
  <outline>
    <contour>
      <point x="299" y="595.3" type="line"/>
      <point x="268.601" y="595.3"/>
      <point x="220.803" y="623.133"/>
      <point x="193.404" y="669.232"/>
      <point x="193.404" y="697.197" type="qcurve" smooth="yes"/>
      <point x="193.404" y="725.596"/>
      <point x="220.803" y="772.695"/>
      <point x="269.034" y="801.527"/>
      <point x="299" y="801.527" type="qcurve"/>
      <point x="299" y="765.532" type="line"/>
      <point x="270.266" y="765.532"/>
      <point x="231.532" y="726.498"/>
      <point x="231.532" y="697.197" type="qcurve" smooth="yes"/>
      <point x="231.532" y="668.897"/>
      <point x="269.266" y="630.729"/>
      <point x="299" y="630.729" type="qcurve"/>
    </contour>
  </outline>
</glyph>
<glyph name="uni02C8" format="2">
  <advance width="166"/>
  <unicode hex="02C8"/>
  <outline>
    <contour>
      <point x="57.3694" y="512.768" type="line"/>
      <point x="57.3694" y="699.567" type="line"/>
      <point x="108.527" y="699.567" type="line"/>
      <point x="108.527" y="512.768" type="line"/>
    </contour>
  </outline>
</glyph>
<glyph name="uni02C9" format="2">
  <advance width="600"/>
  <unicode hex="02C9"/>
  <outline>
    <contour>
      <point x="145.872" y="645.202" type="line"/>
      <point x="145.872" y="692.394" type="line"/>
      <point x="454.128" y="692.394" type="line"/>
      <point x="454.128" y="645.202" type="line"/>
    </contour>
  </outline>
</glyph>
<glyph name="uni02CA" format="2">
  <advance width="600"/>
  <unicode hex="02CA"/>
  <outline>
    <contour>
      <point x="234.606" y="607" type="line"/>
      <point x="372.34" y="730.596" type="line"/>
      <point x="467.291" y="730.596" type="line"/>
      <point x="305.394" y="607" type="line"/>
    </contour>
  </outline>
</glyph>
<glyph name="uni02CB" format="2">
  <advance width="600"/>
  <unicode hex="02CB"/>
  <outline>
    <contour>
      <point x="294.606" y="607" type="line"/>
      <point x="132.709" y="730.596" type="line"/>
      <point x="227.66" y="730.596" type="line"/>
      <point x="365.394" y="607" type="line"/>
    </contour>
  </outline>
</glyph>
<glyph name="uni02CC" format="2">
  <advance width="166"/>
  <unicode hex="02CC"/>
  <outline>
    <contour>
      <point x="57.3694" y="-216.798" type="line"/>
      <point x="57.3694" y="-30" type="line"/>
      <point x="109.094" y="-30" type="line"/>
      <point x="109.094" y="-216.798" type="line"/>
    </contour>
  </outline>
</glyph>
<glyph name="acutecomb" format="2">
  <unicode hex="0301"/>
  <anchor x="300" y="562" name="_t.uni0308"/>
  <anchor x="300" y="562" name="_t.uni0308_2"/>
  <anchor x="300" y="562" name="_m.uni0308"/>
  <anchor x="300" y="809" name="m.uni0308"/>
  <outline>
    <contour>
      <point x="240.271" y="607" type="line"/>
      <point x="280.67" y="730.596" type="line"/>
      <point x="362.789" y="730.596" type="line"/>
      <point x="298.227" y="607" type="line"/>
    </contour>
  </outline>
</glyph>
<glyph name="uni0302" format="2">
  <unicode hex="0302"/>
  <anchor x="300" y="562" name="_t.uni0308"/>
  <anchor x="300" y="562" name="_t.uni0308_2"/>
  <anchor x="300" y="562" name="_m.uni0308"/>
  <anchor x="300" y="799" name="m.uni0308"/>
  <outline>
    <contour>
      <point x="134.808" y="607" type="line"/>
      <point x="264.172" y="730.596" type="line"/>
      <point x="335.828" y="730.596" type="line"/>
      <point x="465.192" y="607" type="line"/>
      <point x="398.537" y="607" type="line"/>
      <point x="272.074" y="712.631" type="line"/>
      <point x="327.926" y="712.631" type="line"/>
      <point x="201.463" y="607" type="line"/>
    </contour>
  </outline>
</glyph>
<glyph name="tildecomb" format="2">
  <unicode hex="0303"/>
  <anchor x="300" y="562" name="_t.uni0308"/>
  <anchor x="300" y="562" name="_t.uni0308_2"/>
  <anchor x="300" y="562" name="_m.uni0308"/>
  <anchor x="300" y="799" name="m.uni0308"/>
  <outline>
    <contour>
      <point x="367.532" y="612.768" type="qcurve" smooth="yes"/>
      <point x="344.833" y="612.768"/>
      <point x="309" y="633.202"/>
      <point x="279.734" y="660.202"/>
      <point x="252.3" y="680.635"/>
      <point x="237" y="680.635" type="qcurve" smooth="yes"/>
      <point x="214.133" y="680.635"/>
      <point x="187.266" y="646.901"/>
      <point x="185.266" y="617.034" type="qcurve"/>
      <point x="142.473" y="617.034" type="line"/>
      <point x="144.473" y="667.365"/>
      <point x="192.537" y="726.828"/>
      <point x="232.468" y="726.828" type="qcurve" smooth="yes"/>
      <point x="255.167" y="726.828"/>
      <point x="291.567" y="706.394"/>
      <point x="320.833" y="679.394"/>
      <point x="348.266" y="658.961"/>
      <point x="363" y="658.961" type="qcurve" smooth="yes"/>
      <point x="385.867" y="658.961"/>
      <point x="413.734" y="692.128"/>
      <point x="414.734" y="720.562" type="qcurve"/>
      <point x="457.527" y="720.562" type="line"/>
      <point x="456.527" y="672.798"/>
      <point x="407.463" y="612.768"/>
    </contour>
  </outline>
</glyph>
<glyph name="uni0304" format="2">
  <unicode hex="0304"/>
  <anchor x="300" y="562" name="_t.uni0308"/>
  <anchor x="300" y="562" name="_t.uni0308_2"/>
  <anchor x="300" y="562" name="_m.uni0308"/>
  <anchor x="300" y="779" name="m.uni0308"/>
  <outline>
    <contour>
      <point x="145.872" y="645.202" type="line"/>
      <point x="145.872" y="691.094" type="line"/>
      <point x="454.128" y="691.094" type="line"/>
      <point x="454.128" y="645.202" type="line"/>
    </contour>
  </outline>
</glyph>
<glyph name="uni0306" format="2">
  <unicode hex="0306"/>
  <anchor x="300" y="562" name="_t.uni0308"/>
  <anchor x="300" y="562" name="_t.uni0308_2"/>
  <anchor x="300" y="562" name="_m.uni0308"/>
  <anchor x="300" y="799" name="m.uni0308"/>
  <outline>
    <contour>
      <point x="300" y="602.3" type="qcurve" smooth="yes"/>
      <point x="236.936" y="602.3"/>
      <point x="150.172" y="671.232"/>
      <point x="147.606" y="730.596" type="qcurve"/>
      <point x="197.764" y="730.596" type="line"/>
      <point x="199.764" y="691.562"/>
      <point x="258.532" y="645.66"/>
      <point x="300" y="645.66" type="qcurve" smooth="yes"/>
      <point x="341.901" y="645.66"/>
      <point x="401.236" y="691.562"/>
      <point x="402.236" y="730.596" type="qcurve"/>
      <point x="452.394" y="730.596" type="line"/>
      <point x="450.261" y="671.232"/>
      <point x="363.064" y="602.3"/>
    </contour>
  </outline>
</glyph>
<glyph name="uni0307" format="2">
  <unicode hex="0307"/>
  <anchor x="300" y="562" name="_t.uni0308"/>
  <anchor x="300" y="729" name="_t.uni0307_1"/>
  <anchor x="300" y="562" name="_t.uni0308_2"/>
  <anchor x="300" y="562" name="_m.uni0308"/>
  <anchor x="300" y="883" name="m.uni0308"/>
  <outline>
    <contour>
      <point x="300" y="630.236" type="qcurve" smooth="yes"/>
      <point x="279.803" y="630.236"/>
      <point x="251.906" y="658.133"/>
      <point x="251.906" y="678.33" type="qcurve" smooth="yes"/>
      <point x="251.906" y="698.961"/>
      <point x="279.803" y="726.424"/>
      <point x="300" y="726.424" type="qcurve" smooth="yes"/>
      <point x="320.631" y="726.424"/>
      <point x="348.094" y="698.961"/>
      <point x="348.094" y="678.33" type="qcurve" smooth="yes"/>
      <point x="348.094" y="658.133"/>
      <point x="320.631" y="630.236"/>
    </contour>
  </outline>
</glyph>
<glyph name="uni0308" format="2">
  <unicode hex="0308"/>
  <anchor x="300" y="562" name="_t.uni0308"/>
  <anchor x="300" y="562" name="_t.uni0308_2"/>
  <anchor x="300" y="562" name="_m.uni0308"/>
  <anchor x="300" y="793" name="m.uni0308"/>
  <outline>
    <contour>
      <point x="389.365" y="629.67" type="qcurve" smooth="yes"/>
      <point x="372" y="629.67"/>
      <point x="346.369" y="654.167"/>
      <point x="346.369" y="672.665" type="qcurve" smooth="yes"/>
      <point x="346.369" y="691.596"/>
      <point x="372" y="715.66"/>
      <point x="389.365" y="715.66" type="qcurve" smooth="yes"/>
      <point x="407.163" y="715.66"/>
      <point x="432.36" y="691.596"/>
      <point x="432.36" y="672.665" type="qcurve" smooth="yes"/>
      <point x="432.36" y="654.167"/>
      <point x="407.163" y="629.67"/>
    </contour>
    <contour>
      <point x="210.635" y="629.67" type="qcurve" smooth="yes"/>
      <point x="193.271" y="629.67"/>
      <point x="167.64" y="654.167"/>
      <point x="167.64" y="672.665" type="qcurve" smooth="yes"/>
      <point x="167.64" y="691.596"/>
      <point x="193.271" y="715.66"/>
      <point x="210.635" y="715.66" type="qcurve" smooth="yes"/>
      <point x="228.433" y="715.66"/>
      <point x="253.631" y="691.596"/>
      <point x="253.631" y="672.665" type="qcurve" smooth="yes"/>
      <point x="253.631" y="654.167"/>
      <point x="228.433" y="629.67"/>
    </contour>
  </outline>
</glyph>
<glyph name="hookabovecomb" format="2">
  <unicode hex="0309"/>
  <anchor x="300" y="562" name="_t.uni0308"/>
  <anchor x="300" y="562" name="_t.uni0308_2"/>
  <anchor x="300" y="562" name="_m.uni0308"/>
  <anchor x="300" y="879" name="m.uni0308"/>
  <outline>
    <contour>
      <point x="313.33" y="599.601" type="qcurve"/>
      <point x="288.034" y="630.897" type="line"/>
      <point x="317.901" y="644.897"/>
      <point x="346.502" y="679.498"/>
      <point x="346.502" y="701.665" type="qcurve" smooth="yes"/>
      <point x="346.502" y="722.966"/>
      <point x="316.768" y="750.567"/>
      <point x="292.468" y="750.567" type="qcurve" smooth="yes"/>
      <point x="260.601" y="750.567"/>
      <point x="231.601" y="731.567" type="qcurve"/>
      <point x="214.537" y="767.261" type="line"/>
      <point x="231.936" y="780.094"/>
      <point x="276.734" y="793.36"/>
      <point x="298.266" y="793.36" type="qcurve" smooth="yes"/>
      <point x="340.498" y="793.36"/>
      <point x="392.562" y="746.429"/>
      <point x="392.562" y="707.197" type="qcurve" smooth="yes"/>
      <point x="392.562" y="672.099"/>
      <point x="354.163" y="618.734"/>
    </contour>
  </outline>
</glyph>
<glyph name="uni030A" format="2">
  <unicode hex="030A"/>
  <anchor x="300" y="562" name="_t.uni0308"/>
  <anchor x="300" y="562" name="_t.uni0308_2"/>
  <anchor x="300" y="562" name="_m.uni0308"/>
  <anchor x="300" y="883" name="m.uni0308"/>
  <outline>
    <contour>
      <point x="299" y="595.3" type="qcurve" smooth="yes"/>
      <point x="269.167" y="595.3"/>
      <point x="222.502" y="623.133"/>
      <point x="195.103" y="669.232"/>
      <point x="195.103" y="697.197" type="qcurve" smooth="yes"/>
      <point x="195.103" y="725.596"/>
      <point x="222.502" y="772.695"/>
      <point x="269.601" y="801.527"/>
      <point x="299" y="801.527" type="qcurve" smooth="yes"/>
      <point x="329.399" y="801.527"/>
      <point x="376.498" y="772.695"/>
      <point x="403.897" y="725.596"/>
      <point x="403.897" y="697.197" type="qcurve" smooth="yes"/>
      <point x="403.897" y="669.232"/>
      <point x="376.498" y="623.133"/>
      <point x="329.399" y="595.3"/>
    </contour>
    <contour>
      <point x="299" y="629.596" type="qcurve" smooth="yes"/>
      <point x="329.3" y="629.596"/>
      <point x="367.468" y="668.764"/>
      <point x="367.468" y="697.197" type="qcurve" smooth="yes"/>
      <point x="367.468" y="726.064"/>
      <point x="328.734" y="766.665"/>
      <point x="299" y="766.665" type="qcurve" smooth="yes"/>
      <point x="270.266" y="766.665"/>
      <point x="231.532" y="727.064"/>
      <point x="231.532" y="697.197" type="qcurve" smooth="yes"/>
      <point x="231.532" y="668.33"/>
      <point x="269.266" y="629.596"/>
    </contour>
  </outline>
</glyph>
<glyph name="uni030B" format="2">
  <unicode hex="030B"/>
  <anchor x="300" y="562" name="_t.uni0308"/>
  <anchor x="300" y="562" name="_t.uni0308_2"/>
  <anchor x="300" y="562" name="_m.uni0308"/>
  <anchor x="300" y="809" name="m.uni0308"/>
  <outline>
    <contour>
      <point x="349.768" y="607" type="line"/>
      <point x="446.039" y="730.596" type="line"/>
      <point x="525.36" y="730.596" type="line"/>
      <point x="413.025" y="607" type="line"/>
    </contour>
    <contour>
      <point x="186.975" y="607" type="line"/>
      <point x="283.812" y="730.596" type="line"/>
      <point x="363.133" y="730.596" type="line"/>
      <point x="250.232" y="607" type="line"/>
    </contour>
  </outline>
</glyph>
<glyph name="uni030C" format="2">
  <unicode hex="030C"/>
  <anchor x="300" y="562" name="_t.uni0308"/>
  <anchor x="300" y="562" name="_t.uni0308_2"/>
  <anchor x="300" y="562" name="_m.uni0308"/>
  <anchor x="300" y="799" name="m.uni0308"/>
  <outline>
    <contour>
      <point x="264.172" y="607" type="line"/>
      <point x="134.808" y="730.596" type="line"/>
      <point x="201.463" y="730.596" type="line"/>
      <point x="327.926" y="625.532" type="line"/>
      <point x="272.074" y="625.532" type="line"/>
      <point x="398.537" y="730.596" type="line"/>
      <point x="465.192" y="730.596" type="line"/>
      <point x="335.828" y="607" type="line"/>
    </contour>
  </outline>
</glyph>
<glyph name="uni030F" format="2">
  <unicode hex="030F"/>
  <anchor x="300" y="562" name="_t.uni0308"/>
  <anchor x="300" y="562" name="_t.uni0308_2"/>
  <anchor x="300" y="562" name="_m.uni0308"/>
  <anchor x="300" y="809" name="m.uni0308"/>
  <outline>
    <contour>
      <point x="349.768" y="607" type="line"/>
      <point x="236.867" y="730.596" type="line"/>
      <point x="316.188" y="730.596" type="line"/>
      <point x="413.025" y="607" type="line"/>
    </contour>
    <contour>
      <point x="186.975" y="607" type="line"/>
      <point x="74.6402" y="730.596" type="line"/>
      <point x="153.961" y="730.596" type="line"/>
      <point x="250.232" y="607" type="line"/>
    </contour>
  </outline>
</glyph>
<glyph name="uni0311" format="2">
  <unicode hex="0311"/>
  <anchor x="300" y="562" name="_t.uni0308"/>
  <anchor x="300" y="562" name="_t.uni0308_2"/>
  <anchor x="300" y="562" name="_m.uni0308"/>
  <anchor x="300" y="799" name="m.uni0308"/>
  <outline>
    <contour>
      <point x="147.606" y="607" type="line"/>
      <point x="150.172" y="666.798"/>
      <point x="236.936" y="735.296"/>
      <point x="300" y="735.296" type="qcurve" smooth="yes"/>
      <point x="363.064" y="735.296"/>
      <point x="450.261" y="666.798"/>
      <point x="452.394" y="607" type="qcurve"/>
      <point x="402.236" y="607" type="line"/>
      <point x="401.236" y="646.468"/>
      <point x="341.901" y="691.936"/>
      <point x="300" y="691.936" type="qcurve" smooth="yes"/>
      <point x="258.532" y="691.936"/>
      <point x="199.764" y="646.468"/>
      <point x="197.764" y="607" type="qcurve"/>
    </contour>
  </outline>
</glyph>
<glyph name="uni0312" format="2">
  <unicode hex="0312"/>
  <anchor x="300" y="562" name="_t.uni0308"/>
  <anchor x="300" y="562" name="_t.uni0308_2"/>
  <anchor x="300" y="562" name="_m.uni0308"/>
  <anchor x="300" y="853" name="m.uni0308"/>
  <outline>
    <contour>
      <point x="300" y="602.3" type="qcurve" smooth="yes"/>
      <point x="277.803" y="602.3"/>
      <point x="254.172" y="625.532"/>
      <point x="254.172" y="641.33" type="qcurve" smooth="yes"/>
      <point x="254.172" y="651.03"/>
      <point x="259.872" y="670.828"/>
      <point x="265.404" y="684.493" type="qcurve"/>
      <point x="299.635" y="780.527" type="line"/>
      <point x="342.562" y="780.527" type="line"/>
      <point x="308.365" y="652.365" type="line"/>
      <point x="300" y="680.36" type="line"/>
      <point x="321.197" y="680.36"/>
      <point x="345.828" y="659.128"/>
      <point x="345.828" y="641.33" type="qcurve" smooth="yes"/>
      <point x="345.828" y="624.532"/>
      <point x="321.764" y="602.3"/>
    </contour>
  </outline>
</glyph>
<glyph name="uni031B" format="2">
  <unicode hex="031B"/>
  <anchor x="300" y="562" name="_t.uni031B_2"/>
  <outline>
    <contour>
      <point x="284.901" y="470.808" type="line"/>
      <point x="284.901" y="525.498" type="line"/>
      <point x="300" y="525.498" type="line" smooth="yes"/>
      <point x="335.034" y="525.498"/>
      <point x="366.034" y="564.665"/>
      <point x="366.034" y="592.665" type="qcurve" smooth="yes"/>
      <point x="366.034" y="611.532"/>
      <point x="354.601" y="643.966"/>
      <point x="346.034" y="656.833" type="qcurve"/>
      <point x="392.926" y="675.03" type="line"/>
      <point x="405.192" y="658.33"/>
      <point x="418.892" y="614.798"/>
      <point x="418.892" y="590.833" type="qcurve" smooth="yes"/>
      <point x="418.892" y="537.97"/>
      <point x="358.631" y="470.808"/>
      <point x="300" y="470.808" type="qcurve" smooth="yes"/>
    </contour>
  </outline>
</glyph>
<glyph name="dotbelowcomb" format="2">
  <unicode hex="0323"/>
  <anchor x="300" y="-229" name="t.uni0324"/>
  <outline>
    <contour>
      <point x="300" y="-189.596" type="qcurve" smooth="yes"/>
      <point x="282.635" y="-189.596"/>
      <point x="257.005" y="-165.665"/>
      <point x="257.005" y="-147.167" type="qcurve" smooth="yes"/>
      <point x="257.005" y="-128.236"/>
      <point x="282.635" y="-103.606"/>
      <point x="300" y="-103.606" type="qcurve" smooth="yes"/>
      <point x="317.798" y="-103.606"/>
      <point x="342.995" y="-128.236"/>
      <point x="342.995" y="-147.167" type="qcurve" smooth="yes"/>
      <point x="342.995" y="-165.665"/>
      <point x="317.798" y="-189.596"/>
    </contour>
  </outline>
</glyph>
<glyph name="uni0324" format="2">
  <unicode hex="0324"/>
  <anchor x="300" y="-206" name="t.uni0324"/>
  <outline>
    <contour>
      <point x="382.931" y="-187.33" type="qcurve" smooth="yes"/>
      <point x="366.133" y="-187.33"/>
      <point x="341.069" y="-163.399"/>
      <point x="341.069" y="-145.468" type="qcurve" smooth="yes"/>
      <point x="341.069" y="-127.67"/>
      <point x="366.133" y="-103.606"/>
      <point x="382.931" y="-103.606" type="qcurve" smooth="yes"/>
      <point x="400.163" y="-103.606"/>
      <point x="424.793" y="-127.67"/>
      <point x="424.793" y="-145.468" type="qcurve" smooth="yes"/>
      <point x="424.793" y="-163.399"/>
      <point x="400.163" y="-187.33"/>
    </contour>
    <contour>
      <point x="217.069" y="-187.33" type="qcurve" smooth="yes"/>
      <point x="200.271" y="-187.33"/>
      <point x="175.773" y="-163.399"/>
      <point x="175.773" y="-145.468" type="qcurve" smooth="yes"/>
      <point x="175.773" y="-127.67"/>
      <point x="200.271" y="-103.606"/>
      <point x="217.069" y="-103.606" type="qcurve" smooth="yes"/>
      <point x="234.867" y="-103.606"/>
      <point x="259.498" y="-127.67"/>
      <point x="259.498" y="-145.468" type="qcurve" smooth="yes"/>
      <point x="259.498" y="-163.399"/>
      <point x="234.867" y="-187.33"/>
    </contour>
  </outline>
</glyph>
<glyph name="uni0326" format="2">
  <unicode hex="0326"/>
  <anchor x="300" y="-229" name="t.uni0324"/>
  <outline>
    <contour>
      <point x="264.837" y="-261.833" type="line"/>
      <point x="293.335" y="-154.236" type="line"/>
      <point x="300" y="-182.232" type="line"/>
      <point x="280.936" y="-182.232"/>
      <point x="257.005" y="-160"/>
      <point x="257.005" y="-143.202" type="qcurve" smooth="yes"/>
      <point x="257.005" y="-125.97"/>
      <point x="281.069" y="-103.606"/>
      <point x="300" y="-103.606" type="qcurve" smooth="yes"/>
      <point x="319.931" y="-103.606"/>
      <point x="342.995" y="-127.404"/>
      <point x="342.995" y="-143.202" type="qcurve" smooth="yes"/>
      <point x="342.995" y="-152.901"/>
      <point x="337.862" y="-175.133"/>
      <point x="331.897" y="-188.232" type="qcurve"/>
      <point x="304.365" y="-261.833" type="line"/>
    </contour>
  </outline>
</glyph>
<glyph name="uni0327" format="2">
  <unicode hex="0327"/>
  <outline>
    <contour>
      <point x="277.768" y="-220.365" type="qcurve" smooth="yes"/>
      <point x="253.369" y="-220.365"/>
      <point x="212.271" y="-208.498"/>
      <point x="194.138" y="-196.764" type="qcurve"/>
      <point x="211.369" y="-159.103" type="line"/>
      <point x="226.202" y="-168.404"/>
      <point x="259.202" y="-178.138"/>
      <point x="277.335" y="-178.138" type="qcurve" smooth="yes"/>
      <point x="307.202" y="-178.138"/>
      <point x="339.138" y="-153.369"/>
      <point x="339.138" y="-131.167" type="qcurve" smooth="yes"/>
      <point x="339.138" y="-110.833"/>
      <point x="308.369" y="-85.3301"/>
      <point x="277.202" y="-85.3301" type="qcurve" smooth="yes"/>
      <point x="253.837" y="-85.3301" type="line"/>
      <point x="278.103" y="6.13301" type="line"/>
      <point x="320.897" y="6.13301" type="line"/>
      <point x="305.596" y="-52.0344" type="line"/>
      <point x="346.995" y="-55.1675"/>
      <point x="391.429" y="-100"/>
      <point x="391.429" y="-133.433" type="qcurve" smooth="yes"/>
      <point x="391.429" y="-173.399"/>
      <point x="328.099" y="-220.365"/>
    </contour>
  </outline>
</glyph>
<glyph name="uni0328" format="2">
  <unicode hex="0328"/>
  <anchor x="300" y="0" name="_m.uni0328_4"/>
  <outline>
    <contour>
      <point x="237.069" y="-220.365" type="qcurve" smooth="yes"/>
      <point x="186.739" y="-220.365"/>
      <point x="126.808" y="-168.433"/>
      <point x="126.808" y="-125.468" type="qcurve" smooth="yes"/>
      <point x="126.808" y="-100.502"/>
      <point x="151.773" y="-47.9703"/>
      <point x="213.606" y="4.02967"/>
      <point x="267.773" y="26.7636" type="qcurve"/>
      <point x="301" y="0" type="line"/>
      <point x="253.365" y="-20.734"/>
      <point x="200.498" y="-62.0689"/>
      <point x="179.099" y="-101.236"/>
      <point x="179.099" y="-120.369" type="qcurve" smooth="yes"/>
      <point x="179.099" y="-147.837"/>
      <point x="216.133" y="-176.438"/>
      <point x="244.3" y="-176.438" type="qcurve" smooth="yes"/>
      <point x="260.734" y="-176.438"/>
      <point x="293.734" y="-166.138"/>
      <point x="305.734" y="-157.404" type="qcurve"/>
      <point x="321.833" y="-195.631" type="line"/>
      <point x="304.133" y="-207.365"/>
      <point x="260.901" y="-220.365"/>
    </contour>
  </outline>
</glyph>
<glyph name="uni032E" format="2">
  <unicode hex="032E"/>
  <anchor x="300" y="-232" name="t.uni0324"/>
  <outline>
    <contour>
      <point x="300" y="-205.365" type="qcurve" smooth="yes"/>
      <point x="236.936" y="-205.365"/>
      <point x="150.172" y="-139.433"/>
      <point x="147.606" y="-83.7684" type="qcurve"/>
      <point x="196.064" y="-83.7684" type="line"/>
      <point x="196.931" y="-120.803"/>
      <point x="256.833" y="-163.704"/>
      <point x="300" y="-163.704" type="qcurve" smooth="yes"/>
      <point x="343.601" y="-163.704"/>
      <point x="403.502" y="-120.803"/>
      <point x="403.936" y="-83.7684" type="qcurve"/>
      <point x="452.394" y="-83.7684" type="line"/>
      <point x="450.261" y="-139.433"/>
      <point x="363.064" y="-205.365"/>
    </contour>
  </outline>
</glyph>
<glyph name="uni0331" format="2">
  <unicode hex="0331"/>
  <anchor x="300" y="-204" name="t.uni0324"/>
  <outline>
    <contour>
      <point x="145.872" y="-169.064" type="line"/>
      <point x="145.872" y="-121.872" type="line"/>
      <point x="454.128" y="-121.872" type="line"/>
      <point x="454.128" y="-169.064" type="line"/>
    </contour>
  </outline>
</glyph>
<glyph name="uni0335" format="2">
  <unicode hex="0335"/>
  <anchor x="300" y="429" name="_t.uni0307_1"/>
  <outline>
    <contour>
      <point x="104.768" y="413.305" type="line"/>
      <point x="104.768" y="465.163" type="line"/>
      <point x="495.232" y="465.163" type="line"/>
      <point x="495.232" y="413.305" type="line"/>
    </contour>
  </outline>
</glyph>
<glyph name="uni0336" format="2">
  <unicode hex="0336"/>
  <anchor x="544" y="429" name="_t.uni0307_1"/>
  <outline>
    <contour>
      <point x="26.1627" y="409.34" type="line"/>
      <point x="26.1627" y="468.562" type="line"/>
      <point x="823.123" y="468.562" type="line"/>
      <point x="823.123" y="409.34" type="line"/>
    </contour>
  </outline>
</glyph>
<glyph name="uni0337" format="2">
  <unicode hex="0337"/>
  <anchor x="364" y="412" name="_t.uni0307_1"/>
  <outline>
    <contour>
      <point x="84.6603" y="270.675" type="line"/>
      <point x="52.133" y="313.567" type="line"/>
      <point x="293.853" y="495.789" type="line"/>
      <point x="326.38" y="452.33" type="line"/>
    </contour>
  </outline>
</glyph>
